<?xml version="1.0" encoding="utf-8"?>
<!-- Generator: Adobe Illustrator 25.4.1, SVG Export Plug-In . SVG Version: 6.00 Build 0)  -->
<svg version="1.1" id="Calque_1" xmlns="http://www.w3.org/2000/svg" xmlns:xlink="http://www.w3.org/1999/xlink" x="0px" y="0px"
	 viewBox="0 0 823.7 395" style="enable-background:new 0 0 823.7 395;" xml:space="preserve">
<style type="text/css">
	.st0{fill:#FEF2F1;}
	.st1{fill:none;stroke:#020203;stroke-linecap:round;stroke-linejoin:round;stroke-miterlimit:10;}
</style>
<path class="st0" d="M285.1,334.7c0,0,140.9-0.2,264.8,22.2c123.9,22.4,126,37.1,126,37.1H285.1V334.7z"/>
<rect x="248.9" y="236.4" class="st0" width="17.9" height="30.4"/>
<rect x="61.7" y="191.2" class="st0" width="17.9" height="30.4"/>
<path class="st0" d="M320.7,261.3c0,0-31.5-16.5-19.1-49.9c0,0-14.8-25.9,14.6-44.2s103.1-26.6,100.2,40S372,281,320.7,261.3z"/>
<rect x="101.1" y="222.6" class="st0" width="76.4" height="84.2"/>
<polygon class="st1" points="228.9,208.2 228.9,220.6 212.3,220.6 212.3,192.3 228.9,192.3 "/>
<polygon class="st1" points="266.2,252.3 266.2,264.7 249.6,264.7 249.6,236.4 266.2,236.4 "/>
<polyline class="st1" points="77.4,236.4 60.8,236.4 60.8,264.7 77.4,264.7 77.4,252.3 "/>
<polyline class="st1" points="78.9,192.3 62.3,192.3 62.3,220.6 78.9,220.6 78.9,208.2 "/>
<path class="st1" d="M419.8,186.2c4.3-6.8,9.6-12.6,15.8-14.8c18.8-6.6,18.1,16.3,17.5,23c0,0,7-14.2,21.1-9.4s3.7,25.2,3.7,25.2
	s41.2-3.2,37.9,36.3s-38.2,48.6-38.2,48.6"/>
<line class="st1" x1="362.3" y1="178.2" x2="362.3" y2="334.8"/>
<line class="st1" x1="362.3" y1="222.1" x2="375.3" y2="209.1"/>
<line class="st1" x1="362.3" y1="239.4" x2="332" y2="209.1"/>
<line class="st1" x1="362.3" y1="198.1" x2="352.2" y2="188"/>
<line class="st1" x1="438.3" y1="215.7" x2="438.3" y2="334.8"/>
<line class="st1" x1="438.3" y1="259.6" x2="451.3" y2="246.6"/>
<line class="st1" x1="438.3" y1="276.9" x2="408" y2="246.6"/>
<polyline class="st1" points="285.1,394.1 285.1,170.2 243.3,170.2 243.3,157.1 219.7,157.1 219.7,170.2 190.3,170.2 190.3,188.3 
	190.3,219.5 102.2,219.5 102.2,157.1 53.9,157.1 0.8,191.3 "/>
<path class="st1" d="M680.6,170.2h-17.5c0,0,4.7-17.1,22-28c14.4-9,28.6-7.6,28.6-7.6s3.4-4.7,9.1-6.7c5.2-1.8,9.4-1.2,9.4-1.2
	s6.3-16.1,21.6-17.2c15.3-1.1,25.2,4.2,30.1,13.2c4.9,9,4.1,17,4.1,17s22.7-2.3,28.9,20.4"/>
<path class="st1" d="M686.4,150.1c0,0,4.6-7.9,14.9-7.7"/>
</svg>
