<?xml version="1.0" encoding="utf-8"?>
<!-- Generator: Adobe Illustrator 25.4.1, SVG Export Plug-In . SVG Version: 6.00 Build 0)  -->
<svg version="1.1" id="Calque_1" xmlns="http://www.w3.org/2000/svg" xmlns:xlink="http://www.w3.org/1999/xlink" x="0px" y="0px"
	 viewBox="0 0 825 395" style="enable-background:new 0 0 825 395;" xml:space="preserve">
<style type="text/css">
	.st0{fill:#FEF2F1;}
	.st1{fill:none;stroke:#020203;stroke-linecap:round;stroke-linejoin:round;stroke-miterlimit:10;}
</style>
<g>
	<rect x="787.6" y="243.4" class="st0" width="75.8" height="141.5"/>
	<rect x="602.1" y="228" class="st0" width="18.5" height="31.6"/>
	<rect x="559.5" y="228" class="st0" width="18.5" height="31.6"/>
	<path class="st0" d="M407.2,327.1c-4-9.1-8.9-17.7-13.8-26.4c-4.1-7.3-8.4-14.5-13-21.5c-3-4.5-6.1-9.1-9.9-13
		c-5.8-6.2-14.6-9.3-22.7-10.7c-4.9-0.8-13.6-2.4-15.9,3.7c-0.9,2.4-0.9,5.2-0.9,7.7c0,8.6,0.6,17.3,1,25.9
		c0.6,13.5,1.1,27.1,1.3,40.6c0.1,5.4,0.1,10.9,0.1,16.3c-2.2-5.3-4.4-10.6-6.9-15.8c-2.2-4.6-4.6-9-7.9-13c-2.2-2.7-5.1-4.5-8.2-6
		c-4.2-2.1-8.9-3.4-13.5-4.3c-3.4-0.7-8-1.3-11.5-0.3c-5.4,1.6-7.1,7.3-7.9,12.4c-1.1,7.4-0.8,15-0.7,22.5
		c0.1,8.6,0.2,17.2-0.8,25.7c-0.9,7-2.5,14.3-6.8,20.1c-1.4,1.6-2.9,2.9-4.6,4c-0.7-0.6-1.4-1.3-2-1.9l144.5,1.9V327.1"/>
	<path class="st1" d="M407.2,330.7c-4-9.1-11.5-21.3-16.5-29.9c-4.1-7.3-8.4-14.5-13-21.5c-3-4.5-6.1-9.1-9.9-13
		c-5.8-6.2-14.6-9.3-22.7-10.7c-4.9-0.8-13.6-2.4-15.9,3.7c-0.9,2.4-0.9,5.2-0.9,7.7c0,8.6,0.6,17.3,1,25.9
		c0.6,13.5,1.1,27.1,1.3,40.6c0.1,5.4,0.1,10.9,0.1,16.3c-2.2-5.3-4.4-10.6-6.9-15.8c-2.2-4.6-4.6-9-7.9-13c-2.2-2.7-5.1-4.5-8.2-6
		c-4.2-2.1-8.9-3.4-13.5-4.3c-3.4-0.7-8-1.3-11.5-0.3c-5.4,1.6-7.1,7.3-7.9,12.4c-1.1,7.4-0.8,15-0.7,22.5
		c0.1,8.6,0.2,17.2-0.8,25.7c-0.9,7-2.5,14.3-6.8,20.1c-1.4,1.6-2.9,2.9-4.6,4c-0.7-0.6-1.4-1.3-2-1.9"/>
	<line class="st1" x1="789.2" y1="241.8" x2="873.9" y2="241.8"/>
	<polygon class="st1" points="578.2,245.5 578.2,259.5 559.3,259.5 559.3,227.4 578.2,227.4 	"/>
	<polygon class="st1" points="620.6,245.5 620.6,259.5 601.7,259.5 601.7,227.4 620.6,227.4 	"/>
	<polyline class="st1" points="765.9,225.7 718,225.7 718,257.9 765.9,257.9 765.9,243.8 	"/>
	<polyline class="st1" points="407.7,384.9 407.7,283.4 436.4,233.8 436.4,195 471.6,195 505.4,167.6 559.3,167.6 559.3,197.2 
		704.1,197.2 704.1,179.2 731.6,179.2 731.6,167.6 751.7,167.6 751.7,179.2 787.6,179.2 787.6,283.4 	"/>
	<path class="st1" d="M597.7,63.5c0,0,5-24.5,33.2-23.7c0,0-0.4-27,22.8-33.2c23.3-6.2,36.1,5,41.9,18.3c0,0,14.1-1.4,21.2,9.3
		c0,0,41.1-4.3,58.8,41H755"/>
</g>
</svg>
