<svg id="ecINH7K0LFT1" xmlns="http://www.w3.org/2000/svg" xmlns:xlink="http://www.w3.org/1999/xlink" viewBox="0 0 228.3 132.5" shape-rendering="geometricPrecision" text-rendering="geometricPrecision"><g id="ecINH7K0LFT2"><g id="ecINH7K0LFT3" transform="matrix(1 0 0 1 0.000001 0)"><g id="ecINH7K0LFT4" mask="url(#ecINH7K0LFT6)"><path id="ecINH7K0LFT5" d="M21.5,123.2C18.3,107.6,17.8,92.9,18.1,77C18.1,75.8,18.1,75,18.2,73.7C18.2,72.8,15.6,72.7,15.3,72.6C13.5,72.5,11.5,73,9.8,73.4C8,73.9,6.2,74.6,4.6,75.6C3.8,76.3,3.1,76.5,3,77.6L3,77.7C2.5,89.5,3.1,101,4.3,112.7C4.9,118,5.6,122.8,6.6,128C6.8,128.9,8.6,129.1,9.2,129.2C11,129.3,13,128.9,14.7,128.5C16.5,128,18.3,127.4,19.9,126.4C20.7,125.8,21.6,125,21.7,123.9L21.5,123.2Z" fill="rgb(255,88,65)" stroke="none" stroke-width="1"/><mask id="ecINH7K0LFT6" mask-type="luminance"><rect id="ecINH7K0LFT7" width="52.4" height="80.9" rx="0" ry="0" transform="matrix(0.540709 0 0 0 1.075931 71.73751)" fill="rgb(255,255,255)" stroke="none" stroke-width="1"/></mask></g></g><g id="ecINH7K0LFT8" transform="matrix(1 0 0 1 0.000001 0)"><g id="ecINH7K0LFT9" mask="url(#ecINH7K0LFT11)"><path id="ecINH7K0LFT10" d="M46.5,38.7C42.8,39.4,38.8,40.7,36.1,43.5C34.4,45.3,32.9,47.4,31.6,49.5C29.5,52.7,27.6,56,25.7,59.3C23.4,63.3,21.1,67.4,19.2,71.7C15.8,79.4,13.3,87.5,11.4,95.7C8.9,106.3,7.2,116.7,6.6,127.6L6.6,128C6.8,128.9,8.6,129.1,9.2,129.2C11,129.3,13,128.9,14.7,128.5C16.5,128,18.3,127.4,19.9,126.4C20.7,125.8,21.6,125,21.7,123.9C21.9,118.2,22.6,113.2,23.4,107.6C23.4,107.8,23.5,106.7,23.5,106.9C25.2,95.5,27.7,85.5,31.8,74.7C34.1,68.6,37.1,62.6,40.4,56.9C42.9,52.5,46.3,46.9,48.5,44.2C50.7,41.5,53.3,39.5,52.1,38.8C50.9,38.1,48.4,38.3,46.5,38.7Z" fill="rgb(255,88,65)" stroke="none" stroke-width="1"/><mask id="ecINH7K0LFT11" mask-type="luminance"><rect id="ecINH7K0LFT12" width="52.4" height="80.9" rx="0" ry="0" transform="matrix(-0.954279 -0.298918 0 0 35.629928 141.674327)" fill="rgb(255,255,255)" stroke="none" stroke-width="1"/></mask></g></g><g id="ecINH7K0LFT13"><g id="ecINH7K0LFT14" mask="url(#ecINH7K0LFT16)"><path id="ecINH7K0LFT15" d="M55.2,105.7C56.2,104.9,55.5,104.7,55.1,103.9C54.4,102.7,54.1,101.2,53.9,100C53.5,97.7,53.3,95.4,53.2,93.1C52.8,87.1,52.9,81,53,74.8C53.1,68.5,53.4,62.3,53.7,56C53.9,52,54.2,48,54.2,44C54.2,42.9,54.1,41.5,53.7,40.4C52.6,37.7,48.7,38.3,46.5,38.7C42.8,39.4,40.3,40.3,38.2,41.7C38.2,41.7,37.5,42,37.6,42.8C37.7,43.6,38.5,44.3,38.5,44.3C39.7,45.8,39,48.6,39,50.4C38.8,54.7,38.5,59,38.3,63.3C37.8,74.7,37.5,86.2,38.1,97.7C38.2,99.8,38.4,101.5,38.7,103.6C38.9,104.9,39.3,106.7,40,107.9C41,109.8,45.6,109.4,48,108.8C51.3,108.2,54.2,106.5,55.2,105.7Z" fill="rgb(255,88,65)" stroke="none" stroke-width="1"/><mask id="ecINH7K0LFT16" mask-type="luminance"><rect id="ecINH7K0LFT17" width="52.4" height="80.9" rx="0" ry="0" transform="matrix(1 0 0 0 20.448165 36.651479)" fill="rgb(255,255,255)" stroke="none" stroke-width="1"/></mask></g></g><g id="ecINH7K0LFT18" transform="matrix(1 0 0 1 0.000001 0)"><g id="ecINH7K0LFT19" mask="url(#ecINH7K0LFT21)"><path id="ecINH7K0LFT20" d="M76,65.2C75.6,64.9,75.1,64.7,74.6,64.5C72.3,64,69.5,64.5,67.3,65.1C64.7,65.8,61.8,66.9,59.9,68.8C59.3,69.6,58.6,70.3,58,71.3C56.6,73.6,55.6,75.7,54.5,78.1C51.9,84.3,49.6,90.6,47.1,96.8C47.1,96.8,42.6,104.8,41,105.9C39.5,107.1,40.1,107.9,40.1,107.9C41.1,109.8,45.7,109.4,48.1,108.8C51.6,108,55.1,106.5,57.3,103.6C59.2,101.1,60.2,98.7,61.4,95.8C63.1,91.6,64.8,87.4,66.4,83.2C67.9,79.3,69.5,75.3,71.3,71.5C72,70.1,71.6,70.6,73.2,68C74.8,65.4,77.4,66.2,76,65.2Z" fill="rgb(255,88,65)" stroke="none" stroke-width="1"/><mask id="ecINH7K0LFT21" mask-type="luminance"><rect id="ecINH7K0LFT22" width="52.4" height="80.9" rx="0" ry="0" transform="matrix(-0.974932 -0.222503 0 0 72.191384 119.086806)" fill="rgb(255,255,255)" stroke="none" stroke-width="1"/></mask></g></g><g id="ecINH7K0LFT23"><g id="ecINH7K0LFT24" mask="url(#ecINH7K0LFT26)"><path id="ecINH7K0LFT25" d="M85.2,103.8C83.8,103,83,102.7,82.3,101.7C82.4,101.9,81.9,101.3,82,101.4C79.7,98.4,79.2,94.6,78.8,90.8C78.4,86.5,78.7,82.2,78.7,77.9C78.7,74.5,78.9,71.1,77.8,67.9C77.5,66.8,76.9,65.9,76,65.2C75.6,64.9,75.1,64.7,74.6,64.5C72.3,64,69.5,64.5,67.3,65.1C64.7,65.8,61.8,66.9,59.9,68.8C59.9,68.8,59.5,69.3,60.4,69.3C61.3,69.3,61.9,69.8,61.9,69.8C63.1,71.5,63.4,73.6,63.6,75.5C63.9,78.3,63.8,81.2,63.8,84C63.8,90,63.4,96.2,65.6,101.9C66.5,104.4,68.1,106.7,70.4,108.1C74,110.3,78.4,110.1,82.4,109.3C82.4,109.3,90.9,107.4,91.2,106.3C91.3,105.8,90.7,105.8,89.1,105.3C87.4,104.8,85.2,103.8,85.2,103.8Z" fill="rgb(255,88,65)" stroke="none" stroke-width="1"/><mask id="ecINH7K0LFT26" mask-type="luminance"><rect id="ecINH7K0LFT27" width="52.4" height="80.9" rx="0" ry="0" transform="matrix(0.911774 -0.410693 0 0 37.611303 73.270306)" fill="rgb(255,255,255)" stroke="none" stroke-width="1"/></mask></g></g><g id="ecINH7K0LFT28"><g id="ecINH7K0LFT29" mask="url(#ecINH7K0LFT31)"><path id="ecINH7K0LFT30" d="M82.4,109.3C86.9,108.7,92.3,106.6,96.4,103.4C98.8,101.6,100.8,99.3,102.7,97C105.3,93.7,108.3,86,108.9,82.7C109.1,81.5,114,62.6,112.9,62.2C112.1,62,109.3,62.1,106.9,62.8C104.9,63.3,103.3,64.3,102.4,64.9C100.4,65.5,98.1,74.8,97.4,77C97.1,78.9,95.4,86.2,94.8,88.2C94.2,90.2,91.4,94.9,89.4,97.6C89.2,97.9,89,98.1,88.8,98.4C88.7,98.5,88,99.4,88.4,98.9C88.8,98.4,88.1,99.3,88,99.4C87.8,99.7,87.5,100,87.2,100.3C86.2,101.4,85.2,102.4,84.1,103.4C84.1,103.4,79.9,106.8,77.9,107.7C75.9,108.6,73.8,109.7,76.8,109.9C78.3,109.9,79,109.9,82.4,109.3Z" transform="matrix(1 0 0 1 0 -0.215811)" fill="rgb(255,88,65)" stroke="none" stroke-width="1"/><mask id="ecINH7K0LFT31" mask-type="luminance"><rect id="ecINH7K0LFT32" width="52.4" height="80.9" rx="0" ry="0" transform="matrix(-0.962235 -0.27222 0 0 105.401724 126.854565)" fill="rgb(255,255,255)" stroke="none" stroke-width="1"/></mask></g></g></g><g id="ecINH7K0LFT33"><g id="ecINH7K0LFT34" transform="matrix(1 0 0 1 0.000001 0.000001)"><g id="ecINH7K0LFT35" mask="url(#ecINH7K0LFT37)"><path id="ecINH7K0LFT36" d="M118.7,105.6C116.7,105.7,112,103.9,112,103.9C111.1,104.1,109.3,101.4,108.7,99.1C108.6,98.7,108.3,97.9,108.2,96.5C107.9,89.2,109,81.8,111,74.9C111.4,73.5,112.4,70.2,112.5,69.9C113.6,66.2,115.1,63.7,114.8,63.3C114.3,62.5,113,62.2,111.7,62.2C109.9,62.1,107.1,62.6,105.4,63.4C104,64,101.6,64.9,101,66.4L100.9,66.7C99.4,70.1,99.2,71.2,98.1,74.7C96.1,81.5,94.6,88.5,94.6,95.6C94.6,100.8,94.8,105.5,99.5,108.7C103.8,111.5,113.2,109.5,118.5,107C120,106.4,120.7,105.5,118.7,105.6Z" fill="rgb(255,88,65)" stroke="none" stroke-width="1"/><mask id="ecINH7K0LFT37" mask-type="luminance"><rect id="ecINH7K0LFT38" width="52.4" height="80.9" rx="0" ry="0" transform="matrix(1 0 0 0 87.95 60.451302)" fill="rgb(255,255,255)" stroke="none" stroke-width="1"/></mask></g></g><g id="ecINH7K0LFT39" transform="matrix(1 0 0 1 0 0.000001)"><g id="ecINH7K0LFT40" mask="url(#ecINH7K0LFT42)"><path id="ecINH7K0LFT41" d="M99.5,108.7C103.8,111.5,113.2,109.5,118.5,107C126.4,103.2,131,98.2,136,91.2C136.7,90.2,137.4,88.9,136.7,88C135.9,86.9,134.1,86.3,132.8,86.3C129.2,86.1,128.4,86.3,126.5,88.5C125.4,89.6,125.3,89.9,124.9,90.3C124.3,90.9,123.1,92.2,122.7,92.7C122.1,93.5,118.4,98,117.7,98.8L116.8,99.8C115.9,100.6,114.4,102.1,114.1,102.3C114.1,102.3,112.5,103.7,112.1,103.8C112.1,103.8,107.2,107.1,103.5,107.7C99.6,108.4,98.7,108.2,99.5,108.7Z" fill="rgb(255,88,65)" stroke="none" stroke-width="1"/><mask id="ecINH7K0LFT42" mask-type="luminance"><rect id="ecINH7K0LFT43" width="52.4" height="80.9" rx="0" ry="0" transform="matrix(-0.712569 -0.701602 0 0 117.143523 133.981873)" fill="rgb(255,255,255)" stroke="none" stroke-width="1"/></mask></g></g></g><g id="ecINH7K0LFT44"><g id="ecINH7K0LFT45"><g id="ecINH7K0LFT46" mask="url(#ecINH7K0LFT48)"><path id="ecINH7K0LFT47" d="M144.2,103.2C141.3,102.3,139.2,97.9,139.2,97.9C138.9,97.2,138.4,95.3,138.5,92C138.5,92.3,138.5,91.5,138.5,90.9C138.8,83.6,140.3,75.2,141.8,67.4C143.3,59.5,145.4,51.6,147.7,43.9C150.9,33,154.4,24,159,13.6C159.6,12.2,159.9,11.6,160.6,10.2C160.8,9.8,161.2,8.8,161.4,8.4C161.7,7.8,161,5.8,160.1,4.9C159.3,4,157.7,3.2,156.6,3.2C154.8,3.2,153.3,3.1,151.7,3.9C150.5,4.6,148.8,5.4,148.2,6.7L148,7.2C145.3,12.6,142.7,18.8,140.5,24.4C135.5,37.2,132,50,129,63.5C127.2,71.6,125.5,80,124.7,88.2C124.4,91.3,124.8,93.7,125,96.8C125.1,98.7,125.6,101.6,126.3,103.3C127.1,105.1,128.6,107.1,130.2,108.1C132.3,109.4,135.1,109.9,137.4,109.6C142.3,109.1,146.4,106.4,150.3,103.5C152.5,102,147.1,104.1,144.2,103.2Z" fill="rgb(255,88,65)" stroke="none" stroke-width="1"/><mask id="ecINH7K0LFT48" mask-type="luminance"><rect id="ecINH7K0LFT49" width="52.4" height="80.9" rx="0" ry="0" transform="matrix(1 0 0 0 116.824968 2.602315)" fill="rgb(255,255,255)" stroke="none" stroke-width="1"/></mask></g></g><g id="ecINH7K0LFT50"><g id="ecINH7K0LFT51" mask="url(#ecINH7K0LFT53)"><path id="ecINH7K0LFT52" d="M126.3,103.3C127.1,105.1,128.6,107.1,130.2,108.1C132.3,109.4,135.1,109.9,137.4,109.6C142.3,109.1,146.4,106.4,150.3,103.5C155.7,99.4,159.7,92.9,163.7,87.5C164,87.1,164.3,86.7,164.6,86.3C166.4,83.7,162.7,80.8,160.6,80.8C157.6,80.8,154.4,81.3,152.5,83.9C151.4,85.4,147.7,89.9,146.5,91.3L144.2,93.8C142.4,95.6,141.6,96.1,139.6,97.6L139.4,97.8C139.4,97.8,136.1,100.9,132.7,101.9C129.3,102.9,125.6,101.1,126.3,103.3Z" transform="matrix(1 0 0 1 0.629488 0)" fill="rgb(255,88,65)" stroke="none" stroke-width="1"/><mask id="ecINH7K0LFT53" mask-type="luminance"><rect id="ecINH7K0LFT54" width="52.4" height="80.9" rx="0" ry="0" transform="matrix(-0.758425 -0.651761 0 0 147.007018 125.896668)" fill="rgb(255,255,255)" stroke="none" stroke-width="1"/></mask></g></g></g><g id="ecINH7K0LFT55"><g id="ecINH7K0LFT56"><g id="ecINH7K0LFT57" mask="url(#ecINH7K0LFT59)"><path id="ecINH7K0LFT58" d="M169.7,72.3C169.3,75.3,175.2,75.2,175.2,75.2C179,75.3,182.9,73.5,183.4,69.9L183.4,69.9C183.8,67.4,183.5,64.6,182.2,62.4C180.6,59.8,177,59.3,174.1,59.4C170.8,59.6,168.2,60.8,165.5,62.7C171.1,61.5,170.1,69.3,169.7,72.3Z" fill="rgb(255,88,65)" stroke="none" stroke-width="1"/><mask id="ecINH7K0LFT59" mask-type="luminance"><rect id="ecINH7K0LFT60" width="52.4" height="80.9" rx="0" ry="0" transform="matrix(-0.72129 0.692633 0 0 206.555508 62.653018)" fill="rgb(255,255,255)" stroke="none" stroke-width="1"/></mask></g></g><g id="ecINH7K0LFT61" transform="matrix(1 0 0 1 0.000001 0.000001)"><g id="ecINH7K0LFT62" mask="url(#ecINH7K0LFT64)"><path id="ecINH7K0LFT63" d="M182.2,62.4C180.6,60,177.6,59.1,174.7,59.2C171.4,59.4,168.2,60.8,165.5,62.7C161.4,65.6,158.9,70,156.5,74.4C153.7,79.6,151.9,84.8,150.5,90.5C149.5,94.5,148.4,99.9,150.1,103.8C152.8,110,160.1,110.1,165.2,107C168.6,105.6,163.4,100,163.4,100C162.9,99,162.7,97.8,162.6,96.7C162.6,97.2,162.7,97.6,162.7,98.1C162.6,96.4,162.7,94.7,163,93C163.1,92.1,163.3,91.1,163.6,90.2C163.7,90,164.1,88.1,163.8,89.4C164,88.8,164.2,88.2,164.3,87.6C165.6,83.6,167.5,79.8,169.5,76C169.9,75.2,170.4,74.5,170.8,73.7C170.8,73.7,175.6,64.2,178.2,63.3C181.7,62,182.8,63.7,182.2,62.4Z" fill="rgb(255,88,65)" stroke="none" stroke-width="1"/><mask id="ecINH7K0LFT64" mask-type="luminance"><rect id="ecINH7K0LFT65" width="52.4" height="80.9" rx="0" ry="0" transform="matrix(0.921463 0.388465 0 0 150.390091 44.614307)" fill="rgb(255,255,255)" stroke="none" stroke-width="1"/></mask></g></g><g id="ecINH7K0LFT66" transform="matrix(1 0 0 1 0 0.000001)"><g id="ecINH7K0LFT67" mask="url(#ecINH7K0LFT69)"><path id="ecINH7K0LFT68" d="M150,103.8C152.7,110,160,110.1,165.1,107C168.2,105.1,170.8,102,173,99.2C175.3,96.2,177.4,93.4,179.6,90.2C182.3,86.3,184.6,82,187.1,77.9C187.9,76.5,188.8,75.1,189.6,73.7C189.9,73.2,190.2,72.6,190.5,72.1C190.7,71.8,190.8,71.5,191,71.2C192.9,68,192.6,68,192.6,68C192.3,66.2,190.7,64.9,189,64.3C185.4,63,180.6,65.1,178.3,68C177.1,69.6,176.6,70.7,175.6,72.4C174.6,74.2,173.9,76.1,172.8,77.9L171.7,79.7C171,80.8,170.1,82.2,169.4,83.3C166.6,87.5,163.9,91.8,160.7,95.7C160.7,95.7,154.2,101.9,151.8,102.4C149.4,102.9,150,103.8,150,103.8Z" fill="rgb(255,88,65)" stroke="none" stroke-width="1"/><mask id="ecINH7K0LFT69" mask-type="luminance"><rect id="ecINH7K0LFT70" width="52.4" height="80.9" rx="0" ry="0" transform="matrix(-0.858495 -0.512822 0 0 173.028969 129.215499)" fill="rgb(255,255,255)" stroke="none" stroke-width="1"/></mask></g></g><g id="ecINH7K0LFT71"><g id="ecINH7K0LFT72" mask="url(#ecINH7K0LFT74)"><path id="ecINH7K0LFT73" d="M178.2,70.4C178.3,72.9,178.2,75.4,178.1,77.8C178,80.4,178.4,83,178.6,85.5C179,89.8,179.9,94.2,182.3,97.8C186.2,103.5,193.3,104.8,199.5,103C205.8,101.1,211.7,97.4,216.6,93.2C219.6,90.8,207.6,95.4,203.1,95.6C198.6,95.8,196.1,93,196.1,93C193.1,91.4,192.3,82.7,192.3,82.7C192.3,82.3,192.2,78.2,192.3,76C192.5,73.3,192.9,70.5,192.5,67.8C192.2,66,190.6,64.7,188.9,64.1C185.3,62.8,180.5,64.9,178.2,67.8L178.2,70.4Z" fill="rgb(255,88,65)" stroke="none" stroke-width="1"/><mask id="ecINH7K0LFT74" mask-type="luminance"><rect id="ecINH7K0LFT75" width="52.4" height="80.9" rx="0" ry="0" transform="matrix(0.528036 -0.208839 0.00094 0.002376 165.762184 69.041325)" fill="rgb(255,255,255)" stroke="none" stroke-width="1"/></mask></g></g><g id="ecINH7K0LFT76" transform="matrix(1 0 0 1 0.000001 0)"><g id="ecINH7K0LFT77" mask="url(#ecINH7K0LFT79)"><path id="ecINH7K0LFT78" d="M182.2,97.9C186.1,103.6,193.2,104.9,199.4,103.1C205.7,101.2,211.6,97.5,216.5,93.3C219.6,90.6,222.7,87.7,225.3,84.6C227.4,82.2,226.5,78.7,223.4,77.6C220.1,76.5,216,77.2,213.7,79.9C213,80.8,212.1,81.8,211.3,82.6C210.9,83,208.3,85.6,207.1,86.5C207.1,86.5,204.2,89.1,201.2,91C199.3,92.2,197.1,92.9,196.1,93.1C196.1,93.1,185.8,96.1,184,95.9C182.2,95.7,181.2,96.4,182.2,97.9Z" fill="rgb(255,88,65)" stroke="none" stroke-width="1"/><mask id="ecINH7K0LFT79" mask-type="luminance"><rect id="ecINH7K0LFT80" width="52.4" height="80.9" rx="0" ry="0" transform="matrix(-0.477184 -0.878803 0 0 193.554622 123.653483)" fill="rgb(255,255,255)" stroke="none" stroke-width="1"/></mask></g></g></g><circle id="ecINH7K0LFT81" r="7.2" transform="matrix(0 0 0 0 113.10001 45.548069)" fill="rgb(255,88,65)" stroke="none" stroke-width="1"/><script><![CDATA[!function(t,n){"object"==typeof exports&&"undefined"!=typeof module?module.exports=n():"function"==typeof define&&define.amd?define(n):((t="undefined"!=typeof globalThis?globalThis:t||self).__SVGATOR_PLAYER__=t.__SVGATOR_PLAYER__||{},t.__SVGATOR_PLAYER__["91c80d77"]=n())}(this,(function(){"use strict";function t(t,n){var e=Object.keys(t);if(Object.getOwnPropertySymbols){var r=Object.getOwnPropertySymbols(t);n&&(r=r.filter((function(n){return Object.getOwnPropertyDescriptor(t,n).enumerable}))),e.push.apply(e,r)}return e}function n(t){return(n="function"==typeof Symbol&&"symbol"==typeof Symbol.iterator?function(t){return typeof t}:function(t){return t&&"function"==typeof Symbol&&t.constructor===Symbol&&t!==Symbol.prototype?"symbol":typeof t})(t)}function e(t,n){if(!(t instanceof n))throw new TypeError("Cannot call a class as a function")}function r(t,n){for(var e=0;e<n.length;e++){var r=n[e];r.enumerable=r.enumerable||!1,r.configurable=!0,"value"in r&&(r.writable=!0),Object.defineProperty(t,r.key,r)}}function i(t,n,e){return n&&r(t.prototype,n),e&&r(t,e),t}function u(t,n,e){return n in t?Object.defineProperty(t,n,{value:e,enumerable:!0,configurable:!0,writable:!0}):t[n]=e,t}function o(t){return(o=Object.setPrototypeOf?Object.getPrototypeOf:function(t){return t.__proto__||Object.getPrototypeOf(t)})(t)}function a(t,n){return(a=Object.setPrototypeOf||function(t,n){return t.__proto__=n,t})(t,n)}function l(t,n){if(n&&("object"==typeof n||"function"==typeof n))return n;if(void 0!==n)throw new TypeError("Derived constructors may only return object or undefined");return function(t){if(void 0===t)throw new ReferenceError("this hasn't been initialised - super() hasn't been called");return t}(t)}function s(t){var n=function(){if("undefined"==typeof Reflect||!Reflect.construct)return!1;if(Reflect.construct.sham)return!1;if("function"==typeof Proxy)return!0;try{return Boolean.prototype.valueOf.call(Reflect.construct(Boolean,[],(function(){}))),!0}catch(t){return!1}}();return function(){var e,r=o(t);if(n){var i=o(this).constructor;e=Reflect.construct(r,arguments,i)}else e=r.apply(this,arguments);return l(this,e)}}function f(t,n,e){return(f="undefined"!=typeof Reflect&&Reflect.get?Reflect.get:function(t,n,e){var r=function(t,n){for(;!Object.prototype.hasOwnProperty.call(t,n)&&null!==(t=o(t)););return t}(t,n);if(r){var i=Object.getOwnPropertyDescriptor(r,n);return i.get?i.get.call(e):i.value}})(t,n,e||t)}var c=h(Math.pow(10,-6));function h(t){var n=arguments.length>1&&void 0!==arguments[1]?arguments[1]:6;if(Number.isInteger(t))return t;var e=Math.pow(10,n);return Math.round((+t+Number.EPSILON)*e)/e}function v(t,n){var e=arguments.length>2&&void 0!==arguments[2]?arguments[2]:c;return Math.abs(t-n)<e}var d=Math.PI/180;function y(t){return t}function g(t,n,e){var r=1-e;return 3*e*r*(t*r+n*e)+e*e*e}function p(){var t=arguments.length>0&&void 0!==arguments[0]?arguments[0]:0,n=arguments.length>1&&void 0!==arguments[1]?arguments[1]:0,e=arguments.length>2&&void 0!==arguments[2]?arguments[2]:1,r=arguments.length>3&&void 0!==arguments[3]?arguments[3]:1;return t<0||t>1||e<0||e>1?null:v(t,n)&&v(e,r)?y:function(i){if(i<=0)return t>0?i*n/t:0===n&&e>0?i*r/e:0;if(i>=1)return e<1?1+(i-1)*(r-1)/(e-1):1===e&&t<1?1+(i-1)*(n-1)/(t-1):1;for(var u,o=0,a=1;o<a;){var l=g(t,e,u=(o+a)/2);if(v(i,l))break;l<i?o=u:a=u}return g(n,r,u)}}function b(){return 1}function m(t){return 1===t?1:0}function w(){var t=arguments.length>0&&void 0!==arguments[0]?arguments[0]:1,n=arguments.length>1&&void 0!==arguments[1]?arguments[1]:0;if(1===t){if(0===n)return m;if(1===n)return b}var e=1/t;return function(t){return t>=1?1:(t+=n*e)-t%e}}function x(t,n,e){return t>=.5?e:n}function A(t,n,e){return 0===t||n===e?n:t*(e-n)+n}function k(t,n,e){var r=A(t,n,e);return r<=0?0:r}function _(t,n,e){return 0===t?n:1===t?e:{x:A(t,n.x,e.x),y:A(t,n.y,e.y)}}function S(t,n,e){return 0===t?n:1===t?e:{x:k(t,n.x,e.x),y:k(t,n.y,e.y)}}function O(t,n,e){var r=function(t,n,e){return Math.round(A(t,n,e))}(t,n,e);return r<=0?0:r>=255?255:r}function M(t,n,e){return 0===t?n:1===t?e:{r:O(t,n.r,e.r),g:O(t,n.g,e.g),b:O(t,n.b,e.b),a:A(t,null==n.a?1:n.a,null==e.a?1:e.a)}}function E(t,n,e){if(0===t)return n;if(1===t)return e;var r=n.length;if(r!==e.length)return x(t,n,e);for(var i=[],u=0;u<r;u++)i.push(M(t,n[u],e[u]));return i}function P(t,n,e){var r=n.length;if(r!==e.length)return x(t,n,e);for(var i=new Array(r),u=0;u<r;u++)i[u]=A(t,n[u],e[u]);return i}function j(t,n){for(var e=[],r=0;r<t;r++)e.push(n);return e}function B(t,n){if(--n<=0)return t;var e=(t=Object.assign([],t)).length;do{for(var r=0;r<e;r++)t.push(t[r])}while(--n>0);return t}var I,R=function(){function t(n){e(this,t),this.list=n,this.length=n.length}return i(t,[{key:"setAttribute",value:function(t,n){for(var e=this.list,r=0;r<this.length;r++)e[r].setAttribute(t,n)}},{key:"removeAttribute",value:function(t){for(var n=this.list,e=0;e<this.length;e++)n[e].removeAttribute(t)}},{key:"style",value:function(t,n){for(var e=this.list,r=0;r<this.length;r++)e[r].style[t]=n}}]),t}(),T=/-./g,N=function(t,n){return n.toUpperCase()};function C(t){return"function"==typeof t?t:x}function F(t){return t?"function"==typeof t?t:Array.isArray(t)?function(t){var n=arguments.length>1&&void 0!==arguments[1]?arguments[1]:y;if(!Array.isArray(t))return n;switch(t.length){case 1:return w(t[0])||n;case 2:return w(t[0],t[1])||n;case 4:return p(t[0],t[1],t[2],t[3])||n}return n}(t,null):function(t,n){var e=arguments.length>2&&void 0!==arguments[2]?arguments[2]:y;switch(t){case"linear":return y;case"steps":return w(n.steps||1,n.jump||0)||e;case"bezier":case"cubic-bezier":return p(n.x1||0,n.y1||0,n.x2||0,n.y2||0)||e}return e}(t.type,t.value,null):null}function L(t,n,e){var r=arguments.length>3&&void 0!==arguments[3]&&arguments[3],i=n.length-1;if(t<=n[0].t)return r?[0,0,n[0].v]:n[0].v;if(t>=n[i].t)return r?[i,1,n[i].v]:n[i].v;var u,o=n[0],a=null;for(u=1;u<=i;u++){if(!(t>n[u].t)){a=n[u];break}o=n[u]}return null==a?r?[i,1,n[i].v]:n[i].v:o.t===a.t?r?[u,1,a.v]:a.v:(t=(t-o.t)/(a.t-o.t),o.e&&(t=o.e(t)),r?[u,t,e(t,o.v,a.v)]:e(t,o.v,a.v))}function V(t,n){var e=arguments.length>2&&void 0!==arguments[2]?arguments[2]:null;return t&&t.length?"function"!=typeof n?null:("function"!=typeof e&&(e=null),function(r){var i=L(r,t,n);return null!=i&&e&&(i=e(i)),i}):null}function q(t,n){return t.t-n.t}function D(t,e,r,i,u){var o,a="@"===r[0],l="#"===r[0],s=I[r],f=x;switch(a?(o=r.substr(1),r=o.replace(T,N)):l&&(r=r.substr(1)),n(s)){case"function":if(f=s(i,u,L,F,r,a,e,t),l)return f;break;case"string":f=V(i,C(s));break;case"object":if((f=V(i,C(s.i),s.f))&&"function"==typeof s.u)return s.u(e,f,r,a,t)}return f?function(t,n,e){if(arguments.length>3&&void 0!==arguments[3]&&arguments[3])return t instanceof R?function(r){return t.style(n,e(r))}:function(r){return t.style[n]=e(r)};if(Array.isArray(n)){var r=n.length;return function(i){var u=e(i);if(null==u)for(var o=0;o<r;o++)t[o].removeAttribute(n);else for(var a=0;a<r;a++)t[a].setAttribute(n,u)}}return function(r){var i=e(r);null==i?t.removeAttribute(n):t.setAttribute(n,i)}}(e,r,f,a):null}function z(t,e,r,i){if(!i||"object"!==n(i))return null;var u=null,o=null;return Array.isArray(i)?o=function(t){if(!t||!t.length)return null;for(var n=0;n<t.length;n++)t[n].e&&(t[n].e=F(t[n].e));return t.sort(q)}(i):(o=i.keys,u=i.data||null),o?D(t,e,r,o,u):null}function Y(t,n,e){if(!e)return null;var r=[];for(var i in e)if(e.hasOwnProperty(i)){var u=z(t,n,i,e[i]);u&&r.push(u)}return r.length?r:null}function G(t,n){if(!n.duration||n.duration<0)return null;var e=function(t,n){if(!n)return null;var e=[];if(Array.isArray(n))for(var r=n.length,i=0;i<r;i++){var u=n[i];if(2===u.length){var o=null;if("string"==typeof u[0])o=t.getElementById(u[0]);else if(Array.isArray(u[0])){o=[];for(var a=0;a<u[0].length;a++)if("string"==typeof u[0][a]){var l=t.getElementById(u[0][a]);l&&o.push(l)}o=o.length?1===o.length?o[0]:new R(o):null}if(o){var s=Y(t,o,u[1]);s&&(e=e.concat(s))}}}else for(var f in n)if(n.hasOwnProperty(f)){var c=t.getElementById(f);if(c){var h=Y(t,c,n[f]);h&&(e=e.concat(h))}}return e.length?e:null}(t,n.elements);return e?function(t,n){var e=arguments.length>2&&void 0!==arguments[2]?arguments[2]:1/0,r=arguments.length>3&&void 0!==arguments[3]?arguments[3]:1,i=arguments.length>4&&void 0!==arguments[4]&&arguments[4],u=arguments.length>5&&void 0!==arguments[5]?arguments[5]:1,o=t.length,a=r>0?n:0;i&&e%2==0&&(a=n-a);var l=null;return function(s,f){var c=s%n,h=1+(s-c)/n;f*=r,i&&h%2==0&&(f=-f);var v=!1;if(h>e)c=a,v=!0,-1===u&&(c=r>0?0:n);else if(f<0&&(c=n-c),c===l)return!1;l=c;for(var d=0;d<o;d++)t[d](c);return v}}(e,n.duration,n.iterations||1/0,n.direction||1,!!n.alternate,n.fill||1):null}function U(t){return+("0x"+(t.replace(/[^0-9a-fA-F]+/g,"")||27))}function W(t,n,e){return!t||!e||n>t.length?t:t.substring(0,n)+W(t.substring(n+1),e,e)}function H(t){var n=arguments.length>1&&void 0!==arguments[1]?arguments[1]:27;return!t||t%n?t%n:H(t/n,n)}function Q(t,n,e){if(t&&t.length){var r=U(e),i=U(n),u=H(r)+5,o=W(t,H(r,5),u);return o=o.replace(/\x7c$/g,"==").replace(/\x2f$/g,"="),o=function(t,n,e){var r=+("0x"+t.substring(0,4));t=t.substring(4);for(var i=n%r+e%27,u=[],o=0;o<t.length;o+=2)if("|"!==t[o]){var a=+("0x"+t[o]+t[o+1])-i;u.push(a)}else{var l=+("0x"+t.substring(o+1,o+1+4))-i;o+=3,u.push(l)}return String.fromCharCode.apply(String,u)}(o=(o=atob(o)).replace(/[\x41-\x5A]/g,""),i,r),o=JSON.parse(o)}}Number.isInteger||(Number.isInteger=function(t){return"number"==typeof t&&isFinite(t)&&Math.floor(t)===t}),Number.EPSILON||(Number.EPSILON=2220446049250313e-31);var X=function(){function n(t,r){var i=arguments.length>2&&void 0!==arguments[2]?arguments[2]:{};e(this,n),this._id=0,this._running=!1,this._rollingBack=!1,this._animations=t,this.duration=r.duration,this.alternate=r.alternate,this.fill=r.fill,this.iterations=r.iterations,this.direction=i.direction||1,this.speed=i.speed||1,this.fps=i.fps||100,this.offset=i.offset||0,this.rollbackStartOffset=0}return i(n,[{key:"_rollback",value:function(){var t=this,n=1/0,e=null;this.rollbackStartOffset=this.offset,this._rollingBack||(this._rollingBack=!0,this._running=!0);this._id=window.requestAnimationFrame((function r(i){if(t._rollingBack){null==e&&(e=i);var u=i-e,o=t.rollbackStartOffset-u,a=Math.round(o*t.speed);if(a>t.duration&&n!=1/0){var l=!!t.alternate&&a/t.duration%2>1,s=a%t.duration;a=(s+=l?t.duration:0)||t.duration}var f=t.fps?1e3/t.fps:0,c=Math.max(0,a);if(c<n-f){t.offset=c,n=c;for(var h=t._animations,v=h.length,d=0;d<v;d++)h[d](c,t.direction)}var y=!1;if(t.iterations>0&&-1===t.fill){var g=t.iterations*t.duration,p=g==a;a=p?0:a,t.offset=p?0:t.offset,y=a>g}a>0&&t.offset>=a&&!y?t._id=window.requestAnimationFrame(r):t.stop()}}))}},{key:"_start",value:function(){var t=this,n=arguments.length>0&&void 0!==arguments[0]?arguments[0]:0,e=-1/0,r=null,i={},u=function u(o){t._running=!0,null==r&&(r=o);var a=Math.round((o-r+n)*t.speed),l=t.fps?1e3/t.fps:0;if(a>e+l&&!t._rollingBack){t.offset=a,e=a;for(var s=t._animations,f=s.length,c=0,h=0;h<f;h++)i[h]?c++:(i[h]=s[h](a,t.direction),i[h]&&c++);if(c===f)return void t._stop()}t._id=window.requestAnimationFrame(u)};this._id=window.requestAnimationFrame(u)}},{key:"_stop",value:function(){this._id&&window.cancelAnimationFrame(this._id),this._running=!1,this._rollingBack=!1}},{key:"play",value:function(){!this._rollingBack&&this._running||(this._rollingBack=!1,this.rollbackStartOffset>this.duration&&(this.offset=this.rollbackStartOffset-(this.rollbackStartOffset-this.offset)%this.duration,this.rollbackStartOffset=0),this._start(this.offset))}},{key:"stop",value:function(){this._stop(),this.offset=0,this.rollbackStartOffset=0;var t=this.direction,n=this._animations;window.requestAnimationFrame((function(){for(var e=0;e<n.length;e++)n[e](0,t)}))}},{key:"reachedToEnd",value:function(){return this.iterations>0&&this.offset>=this.iterations*this.duration}},{key:"restart",value:function(){this._stop(),this.offset=0,this._start()}},{key:"pause",value:function(){this._stop()}},{key:"reverse",value:function(){this.direction=-this.direction}}],[{key:"build",value:function(e,r){return delete e.animationSettings,e.options=Q(e.options,e.root,"91c80d77"),e.animations.map((function(n){var r=Q(n.s,e.root,"91c80d77");for(var i in delete n.s,e.animationSettings||(e.animationSettings=function(n){for(var e=1;e<arguments.length;e++){var r=null!=arguments[e]?arguments[e]:{};e%2?t(Object(r),!0).forEach((function(t){u(n,t,r[t])})):Object.getOwnPropertyDescriptors?Object.defineProperties(n,Object.getOwnPropertyDescriptors(r)):t(Object(r)).forEach((function(t){Object.defineProperty(n,t,Object.getOwnPropertyDescriptor(r,t))}))}return n}({},r)),r)r.hasOwnProperty(i)&&(n[i]=r[i])})),(e=function(t,n){if(I=n,!t||!t.root||!Array.isArray(t.animations))return null;for(var e=document.getElementsByTagName("svg"),r=!1,i=0;i<e.length;i++)if(e[i].id===t.root&&!e[i].svgatorAnimation){(r=e[i]).svgatorAnimation=!0;break}if(!r)return null;var u=t.animations.map((function(t){return G(r,t)})).filter((function(t){return!!t}));return u.length?{element:r,animations:u,animationSettings:t.animationSettings,options:t.options||void 0}:null}(e,r))?{el:e.element,options:e.options||{},player:new n(e.animations,e.animationSettings,e.options)}:null}},{key:"push",value:function(t){return this.build(t)}},{key:"init",value:function(){var t=this,n=window.__SVGATOR_PLAYER__&&window.__SVGATOR_PLAYER__["91c80d77"];Array.isArray(n)&&n.splice(0).forEach((function(n){return t.build(n)}))}}]),n}();!function(){for(var t=0,n=["ms","moz","webkit","o"],e=0;e<n.length&&!window.requestAnimationFrame;++e)window.requestAnimationFrame=window[n[e]+"RequestAnimationFrame"],window.cancelAnimationFrame=window[n[e]+"CancelAnimationFrame"]||window[n[e]+"CancelRequestAnimationFrame"];window.requestAnimationFrame||(window.requestAnimationFrame=function(n){var e=Date.now(),r=Math.max(0,16-(e-t)),i=window.setTimeout((function(){n(e+r)}),r);return t=e+r,i},window.cancelAnimationFrame=window.clearTimeout)}();var $=function(t,n){var e=!1,r=null;return function(i){e&&clearTimeout(e),e=setTimeout((function(){return function(){for(var i=0,u=window.innerHeight,o=0,a=window.innerWidth,l=t.parentNode;l instanceof Element;){var s=window.getComputedStyle(l);if("visible"!==s.overflowY||"visible"!==s.overflowX){var f=l.getBoundingClientRect();"visible"!==s.overflowY&&(i=Math.max(i,f.top),u=Math.min(u,f.bottom)),"visible"!==s.overflowX&&(o=Math.max(o,f.left),a=Math.min(a,f.right))}if(l===l.parentNode)break;l=l.parentNode}e=!1;var c=t.getBoundingClientRect(),h=Math.min(c.height,Math.max(0,i-c.top)),v=Math.min(c.height,Math.max(0,c.bottom-u)),d=Math.min(c.width,Math.max(0,o-c.left)),y=Math.min(c.width,Math.max(0,c.right-a)),g=(c.height-h-v)/c.height,p=(c.width-d-y)/c.width,b=Math.round(g*p*100);null!==r&&r===b||(r=b,n(b))}()}),100)}},J=function(){function t(n,r,i){e(this,t),r=Math.max(1,r||1),r=Math.min(r,100),this.el=n,this.onTresholdChange=i&&i.call?i:function(){},this.tresholdPercent=r||1,this.currentVisibility=null,this.visibilityCalculator=$(n,this.onVisibilityUpdate.bind(this)),this.bindScrollWatchers(),this.visibilityCalculator()}return i(t,[{key:"bindScrollWatchers",value:function(){for(var t=this.el.parentNode;t&&(t.addEventListener("scroll",this.visibilityCalculator),t!==t.parentNode&&t!==document);)t=t.parentNode}},{key:"onVisibilityUpdate",value:function(t){var n=this.currentVisibility>=this.tresholdPercent,e=t>=this.tresholdPercent;if(null===this.currentVisibility||n!==e)return this.currentVisibility=t,void this.onTresholdChange(e);this.currentVisibility=t}}]),t}();function Z(t){return h(t)+""}function K(t){var n=arguments.length>1&&void 0!==arguments[1]?arguments[1]:" ";return t&&t.length?t.map(Z).join(n):""}function tt(t){return Z(t.x)+","+Z(t.y)}function nt(t){return t?null==t.a||t.a>=1?"rgb("+t.r+","+t.g+","+t.b+")":"rgba("+t.r+","+t.g+","+t.b+","+t.a+")":"transparent"}var et={f:null,i:S,u:function(t,n){return function(e){var r=n(e);t.setAttribute("rx",Z(r.x)),t.setAttribute("ry",Z(r.y))}}},rt={f:null,i:function(t,n,e){return 0===t?n:1===t?e:{width:k(t,n.width,e.width),height:k(t,n.height,e.height)}},u:function(t,n){return function(e){var r=n(e);t.setAttribute("width",Z(r.width)),t.setAttribute("height",Z(r.height))}}},it=Math.sin,ut=Math.cos,ot=Math.acos,at=Math.asin,lt=Math.tan,st=Math.atan2,ft=Math.PI/180,ct=180/Math.PI,ht=Math.sqrt,vt=function(){function t(){var n=arguments.length>0&&void 0!==arguments[0]?arguments[0]:1,r=arguments.length>1&&void 0!==arguments[1]?arguments[1]:0,i=arguments.length>2&&void 0!==arguments[2]?arguments[2]:0,u=arguments.length>3&&void 0!==arguments[3]?arguments[3]:1,o=arguments.length>4&&void 0!==arguments[4]?arguments[4]:0,a=arguments.length>5&&void 0!==arguments[5]?arguments[5]:0;e(this,t),this.m=[n,r,i,u,o,a],this.i=null,this.w=null,this.s=null}return i(t,[{key:"determinant",get:function(){var t=this.m;return t[0]*t[3]-t[1]*t[2]}},{key:"isIdentity",get:function(){if(null===this.i){var t=this.m;this.i=1===t[0]&&0===t[1]&&0===t[2]&&1===t[3]&&0===t[4]&&0===t[5]}return this.i}},{key:"point",value:function(t,n){var e=this.m;return{x:e[0]*t+e[2]*n+e[4],y:e[1]*t+e[3]*n+e[5]}}},{key:"translateSelf",value:function(){var t=arguments.length>0&&void 0!==arguments[0]?arguments[0]:0,n=arguments.length>1&&void 0!==arguments[1]?arguments[1]:0;if(!t&&!n)return this;var e=this.m;return e[4]+=e[0]*t+e[2]*n,e[5]+=e[1]*t+e[3]*n,this.w=this.s=this.i=null,this}},{key:"rotateSelf",value:function(){var t=arguments.length>0&&void 0!==arguments[0]?arguments[0]:0;if(t%=360){var n=it(t*=ft),e=ut(t),r=this.m,i=r[0],u=r[1];r[0]=i*e+r[2]*n,r[1]=u*e+r[3]*n,r[2]=r[2]*e-i*n,r[3]=r[3]*e-u*n,this.w=this.s=this.i=null}return this}},{key:"scaleSelf",value:function(){var t=arguments.length>0&&void 0!==arguments[0]?arguments[0]:1,n=arguments.length>1&&void 0!==arguments[1]?arguments[1]:1;if(1!==t||1!==n){var e=this.m;e[0]*=t,e[1]*=t,e[2]*=n,e[3]*=n,this.w=this.s=this.i=null}return this}},{key:"skewSelf",value:function(t,n){if(n%=360,(t%=360)||n){var e=this.m,r=e[0],i=e[1],u=e[2],o=e[3];t&&(t=lt(t*ft),e[2]+=r*t,e[3]+=i*t),n&&(n=lt(n*ft),e[0]+=u*n,e[1]+=o*n),this.w=this.s=this.i=null}return this}},{key:"resetSelf",value:function(){var t=arguments.length>0&&void 0!==arguments[0]?arguments[0]:1,n=arguments.length>1&&void 0!==arguments[1]?arguments[1]:0,e=arguments.length>2&&void 0!==arguments[2]?arguments[2]:0,r=arguments.length>3&&void 0!==arguments[3]?arguments[3]:1,i=arguments.length>4&&void 0!==arguments[4]?arguments[4]:0,u=arguments.length>5&&void 0!==arguments[5]?arguments[5]:0,o=this.m;return o[0]=t,o[1]=n,o[2]=e,o[3]=r,o[4]=i,o[5]=u,this.w=this.s=this.i=null,this}},{key:"recomposeSelf",value:function(){var t=arguments.length>0&&void 0!==arguments[0]?arguments[0]:null,n=arguments.length>1&&void 0!==arguments[1]?arguments[1]:null,e=arguments.length>2&&void 0!==arguments[2]?arguments[2]:null,r=arguments.length>3&&void 0!==arguments[3]?arguments[3]:null,i=arguments.length>4&&void 0!==arguments[4]?arguments[4]:null;return this.isIdentity||this.resetSelf(),t&&(t.x||t.y)&&this.translateSelf(t.x,t.y),n&&this.rotateSelf(n),e&&(e.x&&this.skewSelf(e.x,0),e.y&&this.skewSelf(0,e.y)),!r||1===r.x&&1===r.y||this.scaleSelf(r.x,r.y),i&&(i.x||i.y)&&this.translateSelf(i.x,i.y),this}},{key:"decompose",value:function(){var t=arguments.length>0&&void 0!==arguments[0]?arguments[0]:0,n=arguments.length>1&&void 0!==arguments[1]?arguments[1]:0,e=this.m,r=e[0]*e[0]+e[1]*e[1],i=[[e[0],e[1]],[e[2],e[3]]],u=ht(r);if(0===u)return{origin:{x:h(e[4]),y:h(e[5])},translate:{x:h(t),y:h(n)},scale:{x:0,y:0},skew:{x:0,y:0},rotate:0};i[0][0]/=u,i[0][1]/=u;var o=e[0]*e[3]-e[1]*e[2]<0;o&&(u=-u);var a=i[0][0]*i[1][0]+i[0][1]*i[1][1];i[1][0]-=i[0][0]*a,i[1][1]-=i[0][1]*a;var l=ht(i[1][0]*i[1][0]+i[1][1]*i[1][1]);if(0===l)return{origin:{x:h(e[4]),y:h(e[5])},translate:{x:h(t),y:h(n)},scale:{x:h(u),y:0},skew:{x:0,y:0},rotate:0};i[1][0]/=l,i[1][1]/=l,a/=l;var s=0;return i[1][1]<0?(s=ot(i[1][1])*ct,i[0][1]<0&&(s=360-s)):s=at(i[0][1])*ct,o&&(s=-s),a=st(a,ht(i[0][0]*i[0][0]+i[0][1]*i[0][1]))*ct,o&&(a=-a),{origin:{x:h(e[4]),y:h(e[5])},translate:{x:h(t),y:h(n)},scale:{x:h(u),y:h(l)},skew:{x:h(a),y:0},rotate:h(s)}}},{key:"toString",value:function(){return null===this.s&&(this.s="matrix("+this.m.map((function(t){return h(t)})).join(" ")+")"),this.s}}]),t}();Object.freeze({M:2,L:2,Z:0,H:1,V:1,C:6,Q:4,T:2,S:4,A:7});var dt={},yt=null;function gt(t){var e=function(){if(yt)return yt;if("object"!==("undefined"==typeof document?"undefined":n(document))||!document.createElementNS)return{};var t=document.createElementNS("http://www.w3.org/2000/svg","svg");return t&&t.style?(t.style.position="absolute",t.style.opacity="0.01",t.style.zIndex="-9999",t.style.left="-9999px",t.style.width="1px",t.style.height="1px",yt={svg:t}):{}}().svg;if(!e)return function(t){return null};var r=document.createElementNS(e.namespaceURI,"path");r.setAttributeNS(null,"d",t),r.setAttributeNS(null,"fill","none"),r.setAttributeNS(null,"stroke","none"),e.appendChild(r);var i=r.getTotalLength();return function(t){var n=r.getPointAtLength(i*t);return{x:n.x,y:n.y}}}function pt(t){return dt[t]?dt[t]:dt[t]=gt(t)}function bt(t,n,e,r){if(!t||!r)return!1;var i=["M",t.x,t.y];if(n&&e&&(i.push("C"),i.push(n.x),i.push(n.y),i.push(e.x),i.push(e.y)),n?!e:e){var u=n||e;i.push("Q"),i.push(u.x),i.push(u.y)}return n||e||i.push("L"),i.push(r.x),i.push(r.y),i.join(" ")}function mt(t,n,e,r){var i=arguments.length>4&&void 0!==arguments[4]?arguments[4]:1,u=bt(t,n,e,r),o=pt(u);try{return o(i)}catch(t){return null}}function wt(t,n,e,r){var i=1-r;return i*i*t+2*i*r*n+r*r*e}function xt(t,n,e,r){return 2*(1-r)*(n-t)+2*r*(e-n)}function At(t,n,e,r){var i=arguments.length>4&&void 0!==arguments[4]&&arguments[4],u=mt(t,n,null,e,r);return u||(u={x:wt(t.x,n.x,e.x,r),y:wt(t.y,n.y,e.y,r)}),i&&(u.a=kt(t,n,e,r)),u}function kt(t,n,e,r){return Math.atan2(xt(t.y,n.y,e.y,r),xt(t.x,n.x,e.x,r))}function _t(t,n,e,r,i){var u=i*i;return i*u*(r-t+3*(n-e))+3*u*(t+e-2*n)+3*i*(n-t)+t}function St(t,n,e,r,i){var u=1-i;return 3*(u*u*(n-t)+2*u*i*(e-n)+i*i*(r-e))}function Ot(t,n,e,r,i){var u=arguments.length>5&&void 0!==arguments[5]&&arguments[5],o=mt(t,n,e,r,i);return o||(o={x:_t(t.x,n.x,e.x,r.x,i),y:_t(t.y,n.y,e.y,r.y,i)}),u&&(o.a=Mt(t,n,e,r,i)),o}function Mt(t,n,e,r,i){return Math.atan2(St(t.y,n.y,e.y,r.y,i),St(t.x,n.x,e.x,r.x,i))}function Et(t,n,e){return t+(n-t)*e}function Pt(t,n,e){var r=arguments.length>3&&void 0!==arguments[3]&&arguments[3],i={x:Et(t.x,n.x,e),y:Et(t.y,n.y,e)};return r&&(i.a=jt(t,n)),i}function jt(t,n){return Math.atan2(n.y-t.y,n.x-t.x)}function Bt(t,n,e){var r=arguments.length>3&&void 0!==arguments[3]&&arguments[3];if(Rt(n)){if(Tt(e))return At(n,e.start,e,t,r)}else if(Rt(e)){if(n.end)return At(n,n.end,e,t,r)}else{if(n.end)return e.start?Ot(n,n.end,e.start,e,t,r):At(n,n.end,e,t,r);if(e.start)return At(n,e.start,e,t,r)}return Pt(n,e,t,r)}function It(t,n,e){var r=Bt(t,n,e,!0);return r.a=function(t){return arguments.length>1&&void 0!==arguments[1]&&arguments[1]?t+Math.PI:t}(r.a)/d,r}function Rt(t){return!t.type||"corner"===t.type}function Tt(t){return null!=t.start&&!Rt(t)}var Nt=new vt;var Ct={f:function(t){return t?t.join(" "):""},i:function(t,e,r){if(0===t)return e;if(1===t)return r;var i=e.length;if(i!==r.length)return x(t,e,r);for(var u,o=new Array(i),a=0;a<i;a++){if((u=n(e[a]))!==n(r[a]))return x(t,e,r);if("number"===u)o[a]=A(t,e[a],r[a]);else{if(e[a]!==r[a])return x(t,e,r);o[a]=e[a]}}return o}},Ft={f:null,i:P,u:function(t,n){return function(e){var r=n(e);t.setAttribute("x1",Z(r[0])),t.setAttribute("y1",Z(r[1])),t.setAttribute("x2",Z(r[2])),t.setAttribute("y2",Z(r[3]))}}},Lt={f:Z,i:A},Vt={f:Z,i:function(t,n,e){var r=A(t,n,e);return r<=0?0:r>=1?1:r}},qt={f:function(t){var n=arguments.length>1&&void 0!==arguments[1]?arguments[1]:" ";return t&&t.length>0&&(t=t.map((function(t){return h(t,4)}))),K(t,n)},i:function(t,n,e){var r,i,u,o=n.length,a=e.length;if(o!==a)if(0===o)n=j(o=a,0);else if(0===a)a=o,e=j(o,0);else{var l=(u=(r=o)*(i=a)/function(t,n){for(var e;n;)e=n,n=t%n,t=e;return t||1}(r,i))<0?-u:u;n=B(n,Math.floor(l/o)),e=B(e,Math.floor(l/a)),o=a=l}for(var s=[],f=0;f<o;f++)s.push(h(k(t,n[f],e[f])));return s}};function Dt(t,n,e,r,i,u,o,a){return n=function(t,n,e){for(var r,i,u,o=t.length-1,a={},l=0;l<=o;l++)(r=t[l]).e&&(r.e=n(r.e)),r.v&&"g"===(i=r.v).t&&i.r&&(u=e.getElementById(i.r))&&(a[i.r]=u.querySelectorAll("stop"));return a}(t,r,a),function(r){var i,u=e(r,t,zt);return u?"c"===u.t?nt(u.v):"g"===u.t?(n[u.r]&&function(t,n){for(var e=0,r=t.length;e<r;e++)t[e].setAttribute("stop-color",nt(n[e]))}(n[u.r],u.v),(i=u.r)?"url(#"+i+")":"none"):"none":"none"}}function zt(t,n,e){if(0===t)return n;if(1===t)return e;if(n&&e){var r=n.t;if(r===e.t)switch(n.t){case"c":return{t:r,v:M(t,n.v,e.v)};case"g":if(n.r===e.r)return{t:r,v:E(t,n.v,e.v),r:n.r}}}return x(t,n,e)}var Yt={blur:S,brightness:k,contrast:k,"drop-shadow":function(t,n,e){return 0===t?n:1===t?e:{blur:S(t,n.blur,e.blur),offset:_(t,n.offset,e.offset),color:M(t,n.color,e.color)}},grayscale:k,"hue-rotate":A,invert:k,opacity:k,saturate:k,sepia:k};function Gt(t,n,e){if(0===t)return n;if(1===t)return e;var r=n.length;if(r!==e.length)return x(t,n,e);for(var i,u=[],o=0;o<r;o++){if(n[o].type!==e[o].type)return n;if(!(i=Yt[n[o].type]))return x(t,n,e);u.push({type:n.type,value:i(t,n[o].value,e[o].value)})}return u}var Ut={blur:function(t){return t?function(n){t.setAttribute("stdDeviation",tt(n))}:null},brightness:function(t,n,e){return(t=Ht(e,n))?function(n){n=Z(n),t.map((function(t){return t.setAttribute("slope",n)}))}:null},contrast:function(t,n,e){return(t=Ht(e,n))?function(n){var e=Z((1-n)/2);n=Z(n),t.map((function(t){t.setAttribute("slope",n),t.setAttribute("intercept",e)}))}:null},"drop-shadow":function(t,n,e){var r=e.getElementById(n+"-blur");if(!r)return null;var i=e.getElementById(n+"-offset");if(!i)return null;var u=e.getElementById(n+"-flood");return u?function(t){r.setAttribute("stdDeviation",tt(t.blur)),i.setAttribute("dx",Z(t.offset.x)),i.setAttribute("dy",Z(t.offset.y)),u.setAttribute("flood-color",nt(t.color))}:null},grayscale:function(t){return t?function(n){t.setAttribute("values",K(function(t){return[.2126+.7874*(t=1-t),.7152-.7152*t,.0722-.0722*t,0,0,.2126-.2126*t,.7152+.2848*t,.0722-.0722*t,0,0,.2126-.2126*t,.7152-.7152*t,.0722+.9278*t,0,0,0,0,0,1,0]}(n)))}:null},"hue-rotate":function(t){return t?function(n){return t.setAttribute("values",Z(n))}:null},invert:function(t,n,e){return(t=Ht(e,n))?function(n){n=Z(n)+" "+Z(1-n),t.map((function(t){return t.setAttribute("tableValues",n)}))}:null},opacity:function(t,n,e){return(t=e.getElementById(n+"-A"))?function(n){return t.setAttribute("tableValues","0 "+Z(n))}:null},saturate:function(t){return t?function(n){return t.setAttribute("values",Z(n))}:null},sepia:function(t){return t?function(n){return t.setAttribute("values",K(function(t){return[.393+.607*(t=1-t),.769-.769*t,.189-.189*t,0,0,.349-.349*t,.686+.314*t,.168-.168*t,0,0,.272-.272*t,.534-.534*t,.131+.869*t,0,0,0,0,0,1,0]}(n)))}:null}};var Wt=["R","G","B"];function Ht(t,n){var e=Wt.map((function(e){return t.getElementById(n+"-"+e)||null}));return-1!==e.indexOf(null)?null:e}var Qt={fill:Dt,"fill-opacity":Vt,stroke:Dt,"stroke-opacity":Vt,"stroke-width":Lt,"stroke-dashoffset":{f:Z,i:A},"stroke-dasharray":qt,opacity:Vt,transform:function(t,e,r,i){if(!(t=function(t,e){if(!t||"object"!==n(t))return null;var r=!1;for(var i in t)t.hasOwnProperty(i)&&(t[i]&&t[i].length?(t[i].forEach((function(t){t.e&&(t.e=e(t.e))})),r=!0):delete t[i]);return r?t:null}(t,i)))return null;var u=function(n,i,u){var o=arguments.length>3&&void 0!==arguments[3]?arguments[3]:null;return t[n]?r(i,t[n],u):e&&e[n]?e[n]:o};return e&&e.a&&t.o?function(n){var e=r(n,t.o,It);return Nt.recomposeSelf(e,u("r",n,A,0)+e.a,u("k",n,_),u("s",n,_),u("t",n,_)).toString()}:function(t){return Nt.recomposeSelf(u("o",t,Bt,null),u("r",t,A,0),u("k",t,_),u("s",t,_),u("t",t,_)).toString()}},"#filter":function(t,n,e,r,i,u,o,a){if(!n.items||!t||!t.length)return null;var l=function(t,n){var e=(t=t.map((function(t){return t&&Ut[t[0]]?(n.getElementById(t[1]),Ut[t[0]](n.getElementById(t[1]),t[1],n)):null}))).length;return function(n){for(var r=0;r<e;r++)t[r]&&t[r](n[r].value)}}(n.items,a);return l?(t=function(t,n){return t.map((function(t){return t.e=n(t.e),t}))}(t,r),function(n){l(e(n,t,Gt))}):null},"#line":Ft,points:{f:K,i:P},d:Ct,r:Lt,"#size":rt,"#radius":et,_:function(t,n){if(Array.isArray(t))for(var e=0;e<t.length;e++)this[t[e]]=n;else this[t]=n}},Xt=function(t){!function(t,n){if("function"!=typeof n&&null!==n)throw new TypeError("Super expression must either be null or a function");t.prototype=Object.create(n&&n.prototype,{constructor:{value:t,writable:!0,configurable:!0}}),n&&a(t,n)}(r,t);var n=s(r);function r(){return e(this,r),n.apply(this,arguments)}return i(r,null,[{key:"build",value:function(t){var n=f(o(r),"build",this).call(this,t,Qt);if(!n)return null;var e=n.el,i=n.options,u=n.player;return function(t,n,e){if("click"===e.start){var r=function(){switch(e.click){case"freeze":return!t._running&&t.reachedToEnd()&&(t.offset=0),t._running?t.pause():t.play();case"restart":return t.offset>0?t.restart():t.play();case"reverse":var n=!t._rollingBack&&t._running,r=t.reachedToEnd();return n||r&&1===t.fill?(t.pause(),r&&(t.offset=t.duration-1),t._rollback()):r?t.restart():t.play();case"none":default:return!t._running&&t.offset?t.restart():t.play()}};return void n.addEventListener("click",r)}if("hover"===e.start)return n.addEventListener("mouseenter",(function(){return t.reachedToEnd()?t.restart():t.play()})),void n.addEventListener("mouseleave",(function(){switch(e.hover){case"freeze":return t.pause();case"reset":return t.stop();case"reverse":return t.pause(),t._rollback();case"none":default:return}}));if("scroll"===e.start)return void new J(n,e.scroll||25,(function(n){n?t.reachedToEnd()?t.restart():t.play():t.pause()}));t.play()}(u,e,i),u}}]),r}(X);return Xt.init(),Xt}));
(function(s,i,o,w){w[o]=w[o]||{};w[o][s]=w[o][s]||[];w[o][s].push(i);})('91c80d77',{"root":"ecINH7K0LFT1","animations":[{"elements":{"ecINH7K0LFT7":{"transform":{"data":{"o":{"x":15.242498,"y":71.73751,"type":"corner"},"t":{"x":-26.199983,"y":0.000006}},"keys":{"s":[{"t":115,"v":{"x":0.540709,"y":0}},{"t":180,"v":{"x":0.540709,"y":0.720985}}]}}},"ecINH7K0LFT12":{"transform":{"data":{"o":{"x":10.627825,"y":133.84267,"type":"corner"},"r":-162.60736,"t":{"x":-26.2,"y":0}},"keys":{"s":[{"t":180,"v":{"x":1,"y":0}},{"t":240,"v":{"x":1,"y":1.296762}}]}}},"ecINH7K0LFT17":{"transform":{"data":{"o":{"x":46.648165,"y":36.651479,"type":"corner"},"t":{"x":-26.2,"y":0}},"keys":{"s":[{"t":240,"v":{"x":1,"y":0}},{"t":295,"v":{"x":1,"y":0.922735}}]}}},"ecINH7K0LFT22":{"transform":{"data":{"o":{"x":46.648164,"y":113.257234,"type":"corner"},"r":-167.143925,"t":{"x":-26.2,"y":0}},"keys":{"s":[{"t":295,"v":{"x":1,"y":0}},{"t":365,"v":{"x":1,"y":0.676447}}]}}},"ecINH7K0LFT27":{"transform":{"data":{"o":{"x":61.499772,"y":62.510146,"type":"corner"},"r":-24.248384,"t":{"x":-26.2,"y":0}},"keys":{"s":[{"t":365,"v":{"x":1,"y":0}},{"t":435,"v":{"x":1,"y":0.659359}}]}}},"ecINH7K0LFT32":{"transform":{"data":{"o":{"x":80.191163,"y":119.722412,"type":"corner"},"r":-164.203612,"t":{"x":-26.2,"y":0}},"keys":{"s":[{"t":435,"v":{"x":1,"y":0}},{"t":510,"v":{"x":1,"y":0.840331}},{"t":515,"v":{"x":1,"y":0.79605}},{"t":530,"v":{"x":1,"y":0.708262}}]}}},"ecINH7K0LFT38":{"transform":{"data":{"o":{"x":114.15,"y":60.451302,"type":"corner"},"t":{"x":-26.2,"y":0}},"keys":{"s":[{"t":510,"v":{"x":1,"y":0}},{"t":585,"v":{"x":1,"y":0.650808}}]}}},"ecINH7K0LFT43":{"transform":{"data":{"o":{"x":98.47422,"y":115.599895,"type":"corner"},"r":-135.444309,"t":{"x":-26.2,"y":0}},"keys":{"s":[{"t":585,"v":{"x":1,"y":0}},{"t":660,"v":{"x":1,"y":0.613538}}]}}},"ecINH7K0LFT49":{"transform":{"data":{"o":{"x":143.024968,"y":2.602315,"type":"corner"},"t":{"x":-26.2,"y":0}},"keys":{"s":[{"t":645,"v":{"x":1,"y":0}},{"t":765,"v":{"x":1,"y":1.388368}}]}}},"ecINH7K0LFT54":{"transform":{"data":{"o":{"x":127.136288,"y":108.820542,"type":"corner"},"r":-139.325529,"t":{"x":-26.2,"y":0}},"keys":{"s":[{"t":765,"v":{"x":1,"y":0}},{"t":830,"v":{"x":1,"y":0.55253}},{"t":880,"v":{"x":1,"y":0.55253}},{"t":885,"v":{"x":1,"y":0.461993}}]}}},"ecINH7K0LFT60":{"transform":{"data":{"o":{"x":187.657703,"y":80.8,"type":"corner"},"r":136.161111,"t":{"x":-26.2,"y":0}},"keys":{"s":[{"t":830,"v":{"x":1,"y":0}},{"t":860,"v":{"x":1,"y":0.361621}}]}}},"ecINH7K0LFT65":{"transform":{"data":{"o":{"x":174.532432,"y":54.792094,"type":"corner"},"r":22.859031,"t":{"x":-26.2,"y":0}},"keys":{"s":[{"t":850,"v":{"x":1,"y":0}},{"t":905,"v":{"x":1,"y":0.728178}}]}}},"ecINH7K0LFT70":{"transform":{"data":{"o":{"x":150.536403,"y":115.77956,"type":"corner"},"r":-149.148008,"t":{"x":-26.2,"y":0}},"keys":{"s":[{"t":905,"v":{"x":1,"y":0}},{"t":970,"v":{"x":1,"y":0.820721}}]}}},"ecINH7K0LFT75":{"transform":{"data":{"o":{"x":179.596724,"y":63.569753,"type":"corner"},"t":{"x":-26.2,"y":0}},"keys":{"r":[{"t":970,"v":-21.57884},{"t":1040,"v":-16.447925}],"s":[{"t":970,"v":{"x":0.567834,"y":0.002555}},{"t":1040,"v":{"x":0.615767,"y":0.57174}}]}}},"ecINH7K0LFT80":{"transform":{"data":{"o":{"x":181.052401,"y":100.628834,"type":"corner"},"r":-118.501645,"t":{"x":-26.2,"y":0}},"keys":{"s":[{"t":1020,"v":{"x":1,"y":0},"e":[0,0,0.58,1]},{"t":1025,"v":{"x":1,"y":0.307945},"e":[0,0,0.58,1]},{"t":1115,"v":{"x":1,"y":0.627165}}]}}},"ecINH7K0LFT81":{"transform":{"data":{"o":{"x":113.10001,"y":45.548069,"type":"corner"},"t":{"x":-0.00001,"y":-0.000001}},"keys":{"s":[{"t":1115,"v":{"x":0,"y":0},"e":[0.175,0.885,0.32,1.275]},{"t":1250,"v":{"x":1,"y":1}}]}}}},"s":"MDDA1M2I5NjBVYUTJiM2IwOWZiGMmE3YWRhYzYAwNzg2ZjcwTTRczNmU2YTYwRXGEyQ2E3YjBhTM2ExYjJhN2FMkTmFjNjA3ODEZmNmE2MGE3UM2IyYTNiMDlmFYjJVYTdhZGFOjSGIxNjA3ODVZmNmFCNjBhNYGE3S2FhYWE2DMDc4NmZYNmEB2MDlmYWFiMmBEzYjBhYzlmYSjJhMzYwNzhYCYTQ5ZmFhYjFNhMzZhNjBiMWEFlYTNSYTNhMAjYwNzhLNzBiRYg|"}],"options":"MDWAyM2EzNGE5YTjljODk5YTljANGE2MkU0YThXiOTQ5MThiOTKNCNGFDNTQ0YOThiOTQ5MThiDOTM0YTYyNGEQ5YThkOWU4ZDHlhOWI4ZFE0YFWE1"},'__SVGATOR_PLAYER__',window)]]></script></svg>