<?xml version="1.0" encoding="UTF-8"?><svg id="Calque_1" xmlns="http://www.w3.org/2000/svg" viewBox="0 0 250 250"><defs><style>.cls-1{fill:#ff5841;}.cls-2{fill:#25171a;}</style></defs><circle class="cls-1" cx="101.39" cy="173.13" r="11.36"/><path class="cls-2" d="M95.95,99.86c-.36,0-.67-.26-.74-.62-.64-3.62-3.56-5.2-6.95-7.04-3.12-1.69-6.66-3.61-8.74-7.51-3.79-7.12,1.7-12,3.41-13.28-.57-2.02-2.02-9.14,3.51-14.97,3.42-3.6,7.04-2.8,9.94-2.15,2.75,.61,4.92,1.1,6.75-1.58,1.93-2.82,4.75-4.62,8.15-5.21,4.02-.7,8.4,.4,11.99,3.01,5.76,4.18,4.67,11.08,4.34,12.63,2.3,4.13,2.87,7.53,1.68,10.08-1.41,3.03-4.73,3.66-4.87,3.69-.41,.07-.8-.2-.87-.6-.07-.41,.2-.8,.6-.87h0s2.71-.54,3.78-2.86c.99-2.14,.4-5.16-1.77-8.95-.1-.17-.12-.38-.07-.57,.08-.29,1.93-7.24-3.7-11.33-3.27-2.37-7.23-3.37-10.86-2.75-2.99,.52-5.47,2.1-7.17,4.58-2.4,3.51-5.41,2.84-8.31,2.19-2.92-.65-5.69-1.27-8.52,1.72-5.74,6.05-3.13,13.66-3.02,13.98,.12,.33-.01,.7-.31,.89-.29,.18-7.12,4.57-3.36,11.64,1.86,3.5,5.05,5.22,8.13,6.89,3.58,1.94,6.96,3.77,7.72,8.1,.07,.41-.2,.8-.61,.87-.04,0-.09,.01-.13,.01Z"/><path class="cls-2" d="M167.74,129.63c-.18,0-.37-.07-.51-.2-5.79-5.4-21.22-16.9-22.61-17.93-11-3.55-14.13-3.2-14.16-3.2-.41,.04-.79-.23-.84-.63-.06-.41,.21-.78,.62-.85,.13-.02,3.35-.47,14.97,3.29,.08,.03,.15,.06,.22,.11,.17,.12,16.74,12.43,22.83,18.12,.3,.28,.32,.76,.04,1.06-.15,.16-.35,.24-.55,.24Z"/><path class="cls-2" d="M80.63,198.81c-.13,0-.25-.03-.36-.09-26.28-14.51-36.47-30.31-29.47-45.67,9.46-20.76,30.43-40.71,30.64-40.91,6.23-5.12,17.9-6.63,18.39-6.69,.4-.05,.79,.24,.84,.65,.05,.41-.24,.79-.65,.84-.12,.01-11.74,1.52-17.59,6.32-.17,.16-20.93,19.93-30.27,40.41-4.61,10.11-3.38,25.88,28.59,43.61,1.25-.3,7.07-2.25,9.49-12.7-3.33-3.5-16.48-17.46-17.09-19.95-.65-2.65,9.57-15.76,12.72-19.71,.26-.32,.73-.38,1.05-.12,.32,.26,.38,.73,.12,1.05-6.27,7.88-12.64,16.93-12.44,18.43,.41,1.67,10.64,12.88,17,19.55,.17,.18,.24,.43,.19,.68-2.84,12.94-10.72,14.25-11.05,14.3-.04,0-.07,0-.11,0Z"/><path class="cls-2" d="M107.06,152.42s-.06,0-.09,0c-.41-.05-.7-.42-.65-.83,1.31-10.82,2.96-16.22,4.28-20.56l.18-.59c1.42-4.67-.36-5.82-.38-5.83-.35-.21-.47-.67-.27-1.02,.2-.35,.64-.49,1-.29,.12,.06,2.9,1.63,1.09,7.58l-.18,.59c-1.31,4.29-2.94,9.62-4.23,20.3-.05,.38-.37,.66-.74,.66Z"/><path class="cls-2" d="M122.98,153.55c-.38,0-.7-.28-.74-.66-1.36-11.69-2.61-17.25-4.06-22.02-1.78-5.83,.83-8.13,.94-8.23,.32-.27,.79-.23,1.06,.09,.27,.32,.23,.79-.09,1.06-.07,.07-1.94,1.83-.48,6.65,1.47,4.84,2.74,10.48,4.11,22.28,.05,.41-.25,.78-.66,.83-.03,0-.06,0-.09,0Z"/><path class="cls-2" d="M110.41,125.18h-.01c-.26,0-.5-.15-.64-.38l-10.48-18.24c-.18-.32-.11-.72,.17-.95l2.94-2.44c.31-.26,.76-.22,1.03,.07l12.14,13.34c.23,.25,.26,.62,.08,.9l-4.6,7.34c-.14,.22-.38,.35-.64,.35Zm-9.51-18.82l9.54,16.61,3.64-5.8-11.27-12.39-1.91,1.58Z"/><path class="cls-2" d="M120.56,125.18c-.25,0-.48-.12-.62-.33l-5.03-7.34c-.19-.28-.17-.65,.05-.91l9.92-11.71c.21-.25,.57-.34,.88-.2l4.9,2.18c.19,.09,.34,.25,.41,.45,.07,.2,.04,.42-.06,.61l-9.79,16.87c-.13,.22-.36,.36-.62,.37,0,0-.02,0-.03,0Zm-4.09-8.05l4.03,5.89,8.77-15.12-3.62-1.62-9.18,10.85Z"/><path class="cls-2" d="M115.54,117.73c-.2,0-.39-.08-.54-.22l-12.99-13.24c-.2-.2-.26-.49-.18-.76,.95-2.95,1-7.19,.18-15.62-.04-.41,.26-.78,.67-.82,.41-.05,.78,.26,.82,.67,.69,7.04,.91,12.19-.11,15.79l12.1,12.33,8.95-10.47c-1.21-1.36-1.81-2.82-1.79-4.36,.03-2.77,2.08-4.72,2.16-4.8,6.82-7.12,4.39-11.72-.1-17.93-4.37-6.05-5.56-12.97-5.61-13.26-.07-.41,.21-.79,.62-.86,.4-.07,.79,.21,.86,.62,.01,.07,1.19,6.88,5.34,12.63,3.82,5.29,8.15,11.29-.07,19.88-.04,.04-1.7,1.64-1.72,3.76-.01,1.31,.6,2.58,1.83,3.77,.28,.28,.3,.72,.05,1.02l-9.92,11.61c-.14,.16-.33,.25-.54,.26h-.03Z"/><path class="cls-2" d="M152.56,188.07c-.4,0-.74-.32-.75-.72-.48-13.98-4.27-39.34-4.31-39.59-.04-.29,.08-.57,.32-.73,.24-.16,.55-.17,.8-.02,.27,.16,27.08,15.88,36.65,10.83,1.99-1.05,3.04-2.93,3.22-5.75,1.14-17.61-4.15-49.18-4.83-53.13-4.38-1.67-9.93-.39-11.53,.04l-3.65,29.98c-.05,.41-.42,.71-.84,.65-.41-.05-.7-.42-.65-.83l3.71-30.48c.04-.29,.24-.53,.52-.62,.31-.1,7.7-2.42,13.41,.02,.23,.1,.4,.31,.44,.56,.06,.35,6.14,35,4.92,53.9-.21,3.33-1.57,5.68-4.02,6.98-9.11,4.82-31.04-6.87-36.77-10.09,.83,5.73,3.69,26.17,4.1,38.24,.01,.41-.31,.76-.72,.78h-.03Z"/><path class="cls-2" d="M100.16,208.36c-.69,0-1.41-.08-2.15-.27-6.19-1.57-14.42-9.68-14.76-10.03-.29-.29-.3-.77,0-1.06,.29-.29,.77-.3,1.06,0,.08,.08,8.28,8.17,14.07,9.63,5.49,1.4,9.52-4.29,9.56-4.35,.24-.34,.7-.43,1.04-.19,.34,.24,.42,.7,.19,1.04-.17,.24-3.69,5.22-9.01,5.22Z"/><path class="cls-2" d="M80.09,202.53c-1.87,0-3.78-.01-5.31-.04-4.91-.1-10.33-.6-12.43-5.25-2.04-4.5-.12-10.98-.03-11.25,.12-.4,.54-.62,.93-.5,.4,.12,.62,.54,.5,.93-.02,.06-1.84,6.21-.03,10.2,1.75,3.85,6.44,4.27,11.1,4.37,4.54,.1,12.48,0,12.55,0,.46,.01,.75,.33,.76,.74s-.33,.75-.74,.76c-.05,0-3.59,.04-7.29,.04Z"/><path class="cls-2" d="M171.51,96.21c-.24,0-.47-.11-.62-.32-.81-1.17-7.86-11.55-5.36-15.46,2.64-4.12,7.59-5.97,11.29-4.21,1.23,.59,2.86,1.53,2.85,2.92-.02,1.37-1.64,2.26-2.86,2.81-.8,.36-1.3,.79-1.42,1.21-.07,.27,.02,.5,.08,.62,.66,.47,3.28,2.48,2.95,4.92-.05,.41-.43,.71-.84,.64-.41-.05-.7-.43-.64-.84,.2-1.5-1.69-3.08-2.43-3.57-.07-.05-.13-.1-.19-.17-.07-.09-.66-.9-.39-1.96,.23-.9,.99-1.65,2.26-2.22,1.92-.86,1.98-1.4,1.98-1.46,0-.06-.05-.62-2-1.55-3.02-1.44-7.14,.17-9.37,3.67-1.48,2.32,2.49,9.69,5.33,13.79,.24,.34,.15,.81-.19,1.04-.13,.09-.28,.13-.43,.13Z"/><path class="cls-2" d="M169.35,78.13c-.36,0-.68-.26-.74-.63-.26-1.57-2.47-15.47-.89-19.1,.58-1.34,1.36-1.52,1.9-1.45,2.2,.31,3.67,6.19,3.93,8.19,.46,3.53,1.38,11.12,1.38,11.12l-1.49,.18s-.92-7.58-1.38-11.11c-.4-3.03-1.91-6.67-2.65-6.89,0,.02-.14,.14-.32,.56-1.19,2.73,.32,14.1,1,18.26,.07,.41-.21,.79-.62,.86-.04,0-.08,0-.12,0Z"/><path class="cls-2" d="M179.23,83.55c-1.38,0-2.9-1.4-3.27-1.75-.3-.29-.3-.76-.02-1.06,.29-.3,.76-.3,1.06-.02,.9,.87,2.09,1.51,2.37,1.28,.46-.39,.18-2.6,0-4.06-.11-.85-.22-1.72-.26-2.54-.15-2.75-.59-4.72-2.32-6.06-1.5-1.16-3.02-.04-3.09,0-.33,.25-.8,.18-1.05-.14-.25-.33-.19-.79,.14-1.05,.85-.66,2.98-1.5,4.92,0,2.17,1.68,2.73,4.08,2.9,7.16,.04,.77,.15,1.62,.25,2.44,.3,2.4,.56,4.47-.51,5.39-.34,.29-.72,.41-1.12,.41Z"/><path class="cls-2" d="M182.53,83.64c-.74,0-1.71-.41-2.77-1.94-.24-.34-.15-.81,.19-1.04,.34-.24,.81-.15,1.04,.19,.64,.92,1.27,1.39,1.68,1.28,.58-.16,1.26-1.45,1.35-3.11l.02-.42c.15-2.58,.38-6.48-1.71-7.71-1.83-1.08-2.64,.06-2.79,.29-.21,.35-.67,.47-1.02,.26-.35-.21-.48-.66-.27-1.02,.06-.11,.65-1.07,1.87-1.4,.92-.24,1.92-.05,2.97,.56,2.87,1.69,2.61,6.14,2.44,9.09l-.02,.42c-.11,1.91-.9,4.04-2.44,4.47-.16,.05-.35,.08-.55,.08Z"/><path class="cls-2" d="M186.03,82.69c-.85,0-1.47-.24-1.87-.72-.61-.74-.35-1.67-.32-1.77,.12-.4,.54-.62,.94-.5,.4,.12,.62,.54,.5,.94-.02,.07-.04,.28,.04,.38,.1,.12,.44,.22,1.08,.15,1.09-.11,1.21-1.36,1.06-4.29-.03-.6-.06-1.21-.06-1.79s-.15-.98-.46-1.24c-.55-.46-1.54-.41-1.87-.35-.41,.07-.8-.2-.87-.61s.2-.79,.6-.87c.19-.03,1.91-.31,3.1,.67,.46,.38,1,1.1,1,2.39,0,.55,.03,1.13,.06,1.71,.12,2.49,.27,5.58-2.41,5.86-.18,.02-.36,.03-.53,.03Z"/><path class="cls-2" d="M183.03,98.49c-.34,0-.64-.23-.73-.57-.03-.13-.77-3.3,2.04-7.08,2.4-3.23,1.41-8.73,1.4-8.79-.08-.41,.19-.8,.6-.88,.41-.08,.8,.19,.88,.6,.05,.25,1.12,6.2-1.67,9.96-2.36,3.18-1.81,5.73-1.78,5.83,.09,.4-.16,.81-.56,.9-.06,.01-.12,.02-.18,.02Z"/><path class="cls-2" d="M126.52,203.59c-.18,0-.36,0-.55,0-8.52-.23-17.33-.12-17.42-.12-.2,.01-.35-.06-.48-.17l-5.7-4.65c-.24-.2-.34-.53-.24-.82,.1-.3,.38-.5,.69-.51,2.63-.06,9.69-.83,10.71-3.58,.31-.84,.12-1.28-.04-1.54-1.1-1.66-6.14-1.89-8.29-1.99-4.44-.21-13.81-3.16-14.2-3.28-.4-.12-.61-.55-.49-.94,.12-.39,.54-.62,.94-.49,.1,.03,9.57,3.01,13.82,3.21,3.85,.18,8.07,.55,9.47,2.67,.54,.82,.61,1.79,.2,2.89-1.19,3.21-6.99,4.16-10.14,4.44l4,3.26c1.55-.01,9.49-.08,17.2,.13,2.47,.07,4.06-.32,4.99-1.2,1.36-1.3,1.41-3.8,1.48-7.25,.03-1.32,.06-2.82,.17-4.42,.6-8.48,1.22-29.77,1.23-29.98,.04-.48,.23-4.28-4.85-4.81-5.92-.62-46.38-2.84-46.78-2.87-.41-.02-.73-.38-.71-.79,.02-.41,.38-.74,.79-.71,.41,.02,40.9,2.25,46.86,2.87,6.67,.7,6.2,6.34,6.19,6.4,0,.16-.62,21.48-1.23,29.99-.11,1.56-.14,3.04-.17,4.35-.08,3.68-.13,6.58-1.95,8.31-1.16,1.1-2.92,1.63-5.51,1.63Z"/><path class="cls-2" d="M129.82,88.44s-2.07,7.52-8.34,8.91c-6.27,1.39-10.58,2.98-6.46,5.23,4.12,2.25,6.53,5.32-.01,14.5l10.05-11.77s-1.85-2.5-1.64-4.58c.21-2.08,3.09-4.92,4.24-6.39,1.15-1.47,2.15-3.63,2.17-5.9Z"/><path class="cls-2" d="M134.63,159.24s2.3,.64,2.2,3.54c-.09,2.9-1.83,38.34-1.83,38.34,0,0-.33,3.04-3.7,3.6-3.37,.56-25.12,.46-25.12,.46,0,0,1.72-2.52,4.24-2.52s15.38,.31,16.86,.15,5.57-.21,5.93-8.21c.36-8,1.42-35.37,1.42-35.37Z"/><circle class="cls-2" cx="119.39" cy="139.72" r="2.23"/><circle class="cls-2" cx="113" cy="144.77" r="2.23"/><circle class="cls-2" cx="116.29" cy="125.6" r="2.23"/><circle class="cls-2" cx="120.98" cy="151.04" r="2.23"/><path class="cls-2" d="M111.27,131.47s-.01,0-.02,0l-1.16,4.1c.34,.22,.75,.35,1.18,.35,1.23,0,2.23-1,2.23-2.23s-1-2.23-2.23-2.23Z"/><path class="cls-2" d="M107.06,152.21l3.16,.41c-.07-1.16-1.03-2.09-2.21-2.09-.34,0-.66,.08-.95,.22v1.46Z"/><path class="cls-2" d="M122.27,91.9c-2.13,0-4.37-1.98-4.66-2.24-.21-.19-.29-.48-.22-.75,.07-.27,.29-.48,.56-.54,3.57-.79,6.46-3.19,6.49-3.21,.22-.19,.53-.23,.79-.11,.26,.12,.43,.38,.44,.67,.06,3.3-.65,5.24-2.18,5.93-.39,.18-.8,.25-1.22,.25Zm-2.51-2.48c.98,.64,2.26,1.25,3.11,.86,.7-.32,1.13-1.38,1.26-3.04-1.01,.67-2.55,1.57-4.37,2.18Z"/></svg>