<?xml version="1.0" encoding="UTF-8"?><svg id="Calque_1" xmlns="http://www.w3.org/2000/svg" viewBox="0 0 250 250"><defs><style>.cls-1{fill:#ff5841;}.cls-2{fill:#25171a;}</style></defs><path class="cls-2" d="M181.81,181.14c-.19,0-.38-.02-.58-.06-21.99-4.71-116.26-24.23-117.21-24.43-.41-.08-.67-.48-.58-.89,.08-.41,.49-.67,.89-.58,.95,.2,95.22,19.72,117.22,24.43,.56,.12,1.11-.15,1.36-.67,3.92-8.16,24.18-49.67,29.81-59.45,.09-.16,.03-.31,0-.36-.04-.07-.13-.18-.31-.19l-8.89-1.01c-.41-.05-.71-.42-.66-.83,.05-.41,.42-.71,.83-.66l8.84,1c.6,.02,1.19,.38,1.5,.96,.32,.58,.31,1.26-.02,1.83-5.61,9.74-25.84,51.2-29.75,59.35-.46,.96-1.42,1.54-2.45,1.54Z"/><path class="cls-2" d="M172.48,166.45c-.39,0-.84-.04-1.37-.14-2.43-.45-46.91-8.65-46.91-8.65l-2.07-.35c-.25-.04-.45-.2-.56-.43-.1-.23-.09-.49,.04-.7,0,0,4.53-7.34,10.15-16.48,.22-.35,.68-.46,1.03-.25,.35,.22,.46,.68,.25,1.03-4.42,7.19-8.17,13.27-9.56,15.54l.98,.17s44.49,8.21,46.92,8.66c1.38,.25,1.83,.01,1.91-.04h0c1-1.88,24.44-45.92,26.1-48.54,.34-.54,.7-1.04,1.02-1.5,.48-.68,1.21-1.71,1.15-2h0s-.13-.14-.67-.25c-1.16-.25-9.57-1.56-18.47-2.95-10.84-1.69-23.13-3.6-25.89-4.15-.41-.08-.67-.48-.59-.88,.08-.41,.48-.67,.88-.59,2.73,.55,15,2.46,25.83,4.14,9.32,1.45,17.36,2.7,18.56,2.96,.35,.08,1.41,.31,1.75,1.18,.39,.99-.37,2.06-1.32,3.41-.31,.44-.65,.92-.98,1.44-1.61,2.54-25.19,46.82-26.02,48.4-.14,.33-.61,.99-2.16,.99Zm.76-1.53s0,0,0,0c0,0,0,0,0,0Zm0,0s0,0,0,0c0,0,0,0,0,0Zm0,0h0s0,0,0,0Zm0,0h0Z"/><path class="cls-2" d="M136.11,134.41c-.13,0-.27-.04-.39-.11-.35-.22-.46-.68-.25-1.03,3.55-5.77,7.34-11.88,10.49-16.96,3.67-5.9,6.83-11,7.08-11.52,.18-.38,.63-.53,1-.35,.37,.18,.53,.63,.35,1-.27,.57-2.64,4.39-7.16,11.66-3.15,5.08-6.94,11.18-10.49,16.95-.14,.23-.39,.36-.64,.36Z"/><path class="cls-2" d="M174.63,169.21c-.57,0-1.57-.06-3.1-.34-2.43-.45-46.97-8.7-46.97-8.7l-2.72-.46c-.24-.04-.44-.19-.55-.41s-.1-.47,.02-.69l1.1-2.01c.2-.36,.65-.5,1.02-.3,.36,.2,.5,.66,.3,1.02l-.6,1.08,1.69,.29s44.54,8.26,46.97,8.71c1.47,.27,2.38,.31,2.85,.31,2.51-4.66,24.4-45.25,26-47.77,1.87-2.95,1.76-4.03,1.62-4.36-.04-.09-.14-.33-.68-.45-.4-.09-.66-.49-.57-.9,.09-.4,.49-.66,.9-.57,1.08,.25,1.54,.87,1.74,1.34,.51,1.24-.04,3.06-1.74,5.74-1.63,2.58-25.9,47.6-26.15,48.05-.11,.21-.32,.35-.56,.39-.04,0-.23,.03-.58,.03Zm.48-.77h0Z"/><path class="cls-2" d="M107.9,105.31c-.16,0-.32-.05-.46-.16-.33-.25-.39-.72-.14-1.05l3.05-3.98c.16-.21,.41-.31,.67-.29l29.26,2.78c.41,.04,.71,.41,.68,.82-.04,.41-.41,.71-.82,.68l-28.84-2.74-2.8,3.65c-.15,.19-.37,.29-.6,.29Z"/><path class="cls-2" d="M175.25,172.48c-.65,0-1.46-.09-2.46-.33-2.37-.56-47.41-9.45-47.87-9.54l-2.86-.89c-.2-.06-.37-.21-.46-.41s-.09-.42,0-.61l.12-.28-51.76-10.14c-.41-.08-.67-.47-.59-.88,.08-.41,.47-.67,.88-.59l52.68,10.32c.22,.04,.42,.19,.52,.39,.11,.2,.11,.44,.02,.65l-.16,.37,1.98,.62c1.78,.35,45.45,8.96,47.85,9.54,2.83,.68,3.41-.01,3.41-.02,1.04-1.89,25.03-45.41,26.69-48.02,1.1-1.74,1.57-3.24,1.25-4.01-.05-.13-.22-.52-1.04-.7-.4-.09-.66-.49-.57-.89,.09-.4,.49-.66,.89-.57,1.31,.29,1.87,1.02,2.11,1.59,.67,1.61-.37,3.82-1.37,5.39-1.62,2.55-25.76,46.33-26.6,47.86-.15,.34-.72,1.17-2.65,1.17Z"/><path class="cls-2" d="M123.21,147.64c-.98,0-1.85-.71-2.01-1.71l-1.2-7.54c-.77-4.82,2.53-9.36,7.34-10.12,4.81-.77,9.35,2.53,10.12,7.34l1,6.29c.18,1.11-.58,2.15-1.69,2.33-1.11,.17-2.15-.58-2.33-1.69l-1-6.29c-.41-2.6-2.86-4.38-5.46-3.96-1.26,.2-2.36,.88-3.11,1.91-.75,1.03-1.05,2.29-.85,3.55l1.2,7.54c.09,.54-.04,1.08-.36,1.52-.32,.44-.79,.73-1.33,.81h0c-.11,.02-.21,.03-.32,.03Zm5.53-17.99c-.38,0-.77,.03-1.16,.09-4,.64-6.73,4.41-6.1,8.4l1.2,7.54c.05,.29,.32,.48,.61,.45h0c.29-.05,.49-.32,.44-.61l-1.2-7.54c-.26-1.65,.14-3.31,1.12-4.67s2.44-2.25,4.09-2.51c3.41-.54,6.63,1.79,7.18,5.21l1,6.29c.05,.29,.32,.49,.61,.45,.29-.05,.49-.32,.44-.61l-1-6.29c-.57-3.61-3.7-6.19-7.25-6.19Z"/><path class="cls-2" d="M142.78,115.79c-.98,0-1.85-.71-2.01-1.71l-1.2-7.54c-.77-4.82,2.53-9.36,7.34-10.12,2.33-.38,4.66,.19,6.58,1.58,1.91,1.39,3.17,3.44,3.54,5.76l1,6.29c.18,1.11-.58,2.15-1.69,2.33-1.11,.17-2.15-.58-2.33-1.69l-1-6.29c-.41-2.6-2.86-4.37-5.46-3.96-1.26,.2-2.36,.88-3.11,1.91-.75,1.03-1.05,2.29-.85,3.55l1.2,7.54c.18,1.11-.58,2.15-1.69,2.33h0c-.11,.02-.21,.03-.32,.03Zm5.54-17.99c-.39,0-.77,.03-1.16,.09-4,.64-6.73,4.41-6.1,8.4l1.2,7.54c.05,.29,.32,.48,.61,.45h0c.29-.05,.49-.32,.44-.61l-1.2-7.54c-.26-1.65,.14-3.31,1.12-4.67s2.44-2.25,4.09-2.51c3.41-.54,6.63,1.79,7.18,5.21l1,6.29c.05,.29,.32,.48,.61,.44,.29-.05,.49-.32,.44-.61l-1-6.29c-.31-1.93-1.35-3.63-2.94-4.79-1.27-.92-2.76-1.4-4.3-1.4Z"/><g><path class="cls-2" d="M44.7,137.85c-.19,0-.41-.05-.59-.24-.29-.29-.3-.77,0-1.06,.16-.17,.38-.24,.6-.22,2.27-.8,23.56-16.03,24.18-26.83,.34-5.89-3.19-10.63-6.02-14.44-2.03-2.73-3.63-4.89-3.33-6.83,.13-.84,.62-1.56,1.45-2.14,1.39-.99,3.16-1.14,5.24-.46,5.46,1.79,11.92,9.07,12.9,12.03,.03,.08,.04,.08,.08,.09,1.58,.42,7.42-3.87,17.37-12.76l1.21-1.08c4.62-4.11,9.86-8.78,13.34-5.68,.79,.7,1.21,1.57,1.24,2.57,.1,3.04-3.29,6.73-7.73,11.24-4.88,4.96-7.74,7.19-7.86,7.29-.33,.25-.8,.19-1.05-.13s-.19-.8,.13-1.05c.03-.02,2.91-2.27,7.71-7.15,3.12-3.17,7.39-7.51,7.3-10.14-.02-.59-.26-1.07-.74-1.5-2.48-2.21-7.19,1.99-11.35,5.68l-1.21,1.08c-9.36,8.36-16.13,13.8-18.76,13.09-.54-.14-.94-.52-1.12-1.07-.86-2.58-7.06-9.48-11.95-11.08-1.61-.53-2.92-.44-3.9,.26-.65,.46-.79,.88-.83,1.16-.21,1.31,1.3,3.34,3.05,5.7,2.82,3.79,6.68,8.99,6.31,15.42-.66,11.49-22.04,26.95-25.15,28.15-.1,.04-.31,.12-.54,.12Zm.46-1.3s0,0,0,0c0,0,0,0,0,0Zm0,0s0,0,0,0c0,0,0,0,0,0Z"/><path class="cls-2" d="M103.25,104.38c-.2,0-.39-.08-.54-.23-.29-.3-.28-.77,.02-1.06,.05-.05,1.46-1.52-.12-4.14-1.52-2.51-3.52-1.58-3.61-1.55-.37,.18-.82,.02-1-.35-.18-.37-.02-.82,.35-1,1.14-.54,3.77-.8,5.54,2.12,1.78,2.95,.7,5.21-.12,6-.15,.14-.33,.21-.52,.21Z"/><path class="cls-2" d="M54.94,168.91c-.13,0-.26-.03-.38-.1-.36-.21-.48-.67-.27-1.03,.11-.18,11.01-18.6,26.39-26.88,16.73-9.01,22.96-14.44,26.19-17.74,4.05-4.14,4.83-9.17,3.57-10.68-1.23-1.48-2.33-.99-2.45-.92-.34,.17-.76,.06-.97-.26-.21-.32-.15-.74,.14-.98,.05-.05,1.48-1.35-.17-4.11-1.5-2.51-3.52-1.58-3.6-1.54-.38,.18-.82,.02-1-.35s-.02-.82,.35-1c1.15-.55,3.78-.81,5.54,2.13,1.13,1.89,1.15,3.44,.79,4.53,.78,.12,1.68,.54,2.52,1.55,2.11,2.54,.37,8.58-3.65,12.69-3.3,3.37-9.65,8.91-26.55,18.01-15,8.08-25.7,26.14-25.8,26.32-.14,.24-.39,.37-.65,.37Z"/><path class="cls-2" d="M73.85,84.45c-.14,0-.28-.04-.41-.12-.51-.34-10.67-9.58-13.77-12.4-.31-.28-.33-.75-.05-1.06,.28-.31,.75-.33,1.06-.05,5.19,4.72,13.09,11.88,13.61,12.27,.33,.24,.41,.71,.17,1.04-.15,.21-.38,.32-.61,.32Z"/><path class="cls-2" d="M79.1,79.91c-.37,0-.7-.28-.74-.66l-3.05-24.68c-.05-.41,.24-.79,.65-.84,.41-.05,.79,.24,.84,.65l3.05,24.68c.05,.41-.24,.79-.65,.84-.03,0-.06,0-.09,0Z"/><path class="cls-2" d="M86.86,81.41c-.08,0-.16-.01-.23-.04-.39-.13-.61-.55-.48-.95l4.56-13.84c.13-.39,.55-.61,.95-.48,.39,.13,.61,.55,.48,.95l-4.56,13.84c-.1,.32-.4,.52-.71,.52Z"/></g><g><path class="cls-2" d="M212.77,120.93s2.07-.45,1.63,.76-27.47,57.24-29.22,60.21-3.85,1.21-9.34,.44c-5.49-.77-108.82-22.64-108.82-22.64l-2.84-3.77,115.36,24.03s3.27,.93,4.05-.68,29.18-58.34,29.18-58.34Z"/><path class="cls-2" d="M182.54,184.3c-.9,0-1.91-.23-3.04-.49-1.07-.25-2.28-.52-3.77-.73-5.46-.76-104.65-21.76-108.87-22.65-.18-.04-.33-.14-.44-.28l-2.84-3.77c-.19-.25-.2-.59-.03-.85,.17-.26,.48-.4,.79-.33l115.36,24.03c.89,.25,2.84,.51,3.22-.27,.77-1.6,28.03-56.04,29.19-58.35,.1-.2,.29-.35,.51-.4,.5-.11,1.71-.29,2.31,.4,.18,.2,.44,.65,.18,1.35-.77,2.11-27.86,57.93-29.28,60.33-.92,1.54-1.99,2.02-3.28,2.02Zm-115.09-25.28c5.93,1.25,103.22,21.84,108.49,22.58,1.55,.22,2.85,.51,3.89,.75,2.94,.67,3.74,.78,4.7-.83,2.01-3.4,27.48-56.51,29.09-59.91-.1,0-.22,0-.35,.01-2.38,4.76-28.27,56.46-29,57.98-1.02,2.12-4.53,1.19-4.93,1.07l-113.36-23.61,1.47,1.96Z"/></g><path class="cls-2" d="M178.44,126.56s-.07,0-.1,0l-16.15-2.22c-.25-.03-.46-.19-.57-.42-.11-.23-.1-.49,.03-.71,6.25-10.7,6.49-10.81,6.78-10.93,.26-.12,.51-.22,16.26,2.3,.24,.04,.45,.2,.56,.42,.11,.22,.09,.48-.03,.7l-6.12,10.49c-.14,.23-.38,.37-.65,.37Zm-14.94-3.56l14.54,2,5.32-9.11c-5.24-.84-12.62-1.98-14.29-2.16-.78,1.16-3.55,5.82-5.57,9.26Z"/><path class="cls-2" d="M169.87,140.83s-.07,0-.1,0l-16.15-2.22c-.25-.03-.46-.19-.57-.42-.11-.23-.1-.49,.03-.71,6.25-10.7,6.49-10.81,6.78-10.93,.25-.1,.51-.22,16.26,2.3,.24,.04,.45,.2,.56,.42,.11,.22,.09,.48-.03,.7l-6.12,10.49c-.14,.23-.38,.37-.65,.37Zm-14.94-3.56l14.54,2,5.32-9.11c-5.24-.83-12.62-1.98-14.29-2.16-.78,1.16-3.55,5.82-5.57,9.26Z"/><g><path class="cls-1" d="M145.15,152.13s6.12-10.49,6.43-10.62,15.84,2.36,15.84,2.36l-6.12,10.49-16.15-2.22Z"/><path class="cls-2" d="M161.3,155.11s-.07,0-.1,0l-16.15-2.22c-.25-.03-.46-.19-.57-.42-.11-.23-.1-.49,.03-.71,6.25-10.7,6.49-10.81,6.78-10.93,.25-.11,.5-.22,16.26,2.3,.24,.04,.45,.2,.56,.42,.11,.22,.09,.48-.03,.7l-6.12,10.49c-.14,.23-.38,.37-.65,.37Zm-14.94-3.56l14.54,2,5.32-9.11c-5.24-.84-12.62-1.98-14.29-2.16-.78,1.16-3.55,5.82-5.57,9.26Z"/></g><path class="cls-2" d="M154.2,150.72c-.1,0-.2-.02-.29-.06-.2-.08-.36-.25-.43-.46l-1.14-3.56c-.13-.4,.09-.82,.49-.94,.4-.12,.82,.09,.94,.49l.87,2.72,7.54-3.87c.37-.19,.82-.04,1.01,.33,.19,.37,.04,.82-.33,1.01l-8.33,4.27c-.11,.06-.22,.08-.34,.08Z"/><path class="cls-2" d="M153.72,105.42s-.04,0-.07,0l-10.75-.94c-.41-.04-.72-.4-.68-.81,.04-.41,.41-.72,.81-.68l10.75,.94c.41,.04,.72,.4,.68,.81-.03,.39-.36,.68-.75,.68Z"/><path class="cls-2" d="M162.29,124.34c-.3,0-.59-.19-.7-.49-.14-.39,.05-.82,.44-.96l22.27-8.26c.39-.14,.82,.05,.96,.44s-.05,.82-.44,.96l-22.27,8.26c-.09,.03-.17,.05-.26,.05Z"/><path class="cls-2" d="M154.57,138.54c-.3,0-.59-.18-.7-.48-.15-.39,.04-.82,.43-.97l21-8.08c.39-.15,.82,.04,.97,.43,.15,.39-.04,.82-.43,.97l-21,8.08c-.09,.03-.18,.05-.27,.05Z"/></svg>