<?xml version="1.0" encoding="UTF-8"?><svg id="Calque_1" xmlns="http://www.w3.org/2000/svg" viewBox="0 0 250 250"><defs><style>.cls-1{fill:#ff5841;}.cls-2{fill:#25171a;}</style></defs><circle class="cls-1" cx="114.45" cy="149.57" r="27.73"/><g><path class="cls-2" d="M126.81,161.72c-.78,0-1.6-.14-2.47-.42-.39-.13-.61-.55-.48-.95,.13-.39,.55-.61,.95-.48,1.51,.49,2.83,.46,3.93-.1,2.01-1.03,2.95-3.59,3.42-5.04-4.16-1.98-37.79-12.59-60.7-19.65-.54,1.61-1.66,4.49-4.11,5.74-1.46,.75-3.17,.81-5.07,.19-2.11-.69-3.54-1.84-4.26-3.41-1.1-2.41-.08-4.89-.03-4.99,0,0,22.82-69.83,23.16-70.87l.04-.13c.96-2.85,1.01-5.15,.17-6.82-.59-1.18-1.67-2.03-3.19-2.53-1.43-.47-2.68-.39-3.81,.25-2.05,1.15-3.12,3.83-3.52,5.08l9.82,3.21c.39,.13,.61,.55,.48,.95-.13,.39-.55,.61-.95,.48l-10.51-3.43c-.37-.12-.59-.5-.5-.88,.05-.2,1.16-4.85,4.43-6.7,1.5-.84,3.18-.97,5.02-.37,1.92,.63,3.28,1.73,4.07,3.28,1.03,2.04,1,4.73-.09,7.97l-.04,.12c-.34,1.04-23.18,70.93-23.18,70.93-.03,.08-.83,2.06,0,3.86,.54,1.17,1.67,2.05,3.35,2.6,1.51,.49,2.83,.46,3.93-.1,2.16-1.1,3.07-3.96,3.52-5.33l.08-.24c.13-.39,.54-.6,.93-.48,40.91,12.59,61.94,19.53,62.51,20.63,.09,.18,.11,.42,.05,.61l-.07,.23c-.46,1.44-1.55,4.82-4.26,6.21-.8,.41-1.67,.61-2.61,.61Zm5.52-7.52s0,0,0,0h0Z"/><path class="cls-2" d="M121.71,150.97c-.08,0-.16-.01-.23-.04-.39-.13-.61-.55-.48-.95l22.26-68.1c.96-2.85,1.01-5.15,.17-6.82-.59-1.18-1.67-2.03-3.19-2.53l-60.85-19.89c-.39-.13-.61-.55-.48-.95,.13-.39,.55-.61,.95-.48l60.85,19.89c1.92,.63,3.28,1.73,4.07,3.28,1.03,2.04,1,4.73-.09,7.97l-.04,.12-22.21,67.97c-.1,.32-.4,.52-.71,.52Z"/><path class="cls-2" d="M124.58,161.34c-.08,0-.16-.01-.23-.04l-62.07-20.29c-.39-.13-.61-.55-.48-.95,.13-.39,.56-.61,.95-.48l62.07,20.29c.39,.13,.61,.55,.48,.95-.1,.32-.4,.52-.71,.52Z"/><path class="cls-2" d="M108.54,76.58c-.08,0-.16-.01-.23-.04l-18.33-5.99c-.39-.13-.61-.55-.48-.95,.13-.39,.55-.61,.95-.48l18.33,5.99c.39,.13,.61,.55,.48,.95-.1,.32-.4,.52-.71,.52Z"/><path class="cls-2" d="M127.06,92.31c-.08,0-.16-.01-.23-.04l-39.71-12.98c-.39-.13-.61-.55-.48-.95,.13-.39,.55-.61,.95-.48l39.71,12.98c.39,.13,.61,.55,.48,.95-.1,.32-.4,.52-.71,.52Z"/><path class="cls-2" d="M124.21,101.05c-.08,0-.16-.01-.23-.04l-39.71-12.98c-.39-.13-.61-.55-.48-.95,.13-.39,.55-.61,.95-.48l39.71,12.98c.39,.13,.61,.55,.48,.95-.1,.32-.4,.52-.71,.52Z"/><path class="cls-2" d="M121.35,109.8c-.08,0-.16-.01-.23-.04l-39.71-12.98c-.39-.13-.61-.55-.48-.95,.13-.39,.56-.61,.95-.48l39.71,12.98c.39,.13,.61,.55,.48,.95-.1,.32-.4,.52-.71,.52Z"/><path class="cls-2" d="M118.49,118.54c-.08,0-.16-.01-.23-.04l-39.71-12.98c-.39-.13-.61-.55-.48-.95,.13-.39,.56-.61,.95-.48l39.71,12.98c.39,.13,.61,.55,.48,.95-.1,.32-.4,.52-.71,.52Z"/><path class="cls-2" d="M90.55,119.09c-.08,0-.16-.01-.23-.04l-14.63-4.78c-.39-.13-.61-.55-.48-.95,.13-.39,.55-.61,.95-.48l14.63,4.78c.39,.13,.61,.55,.48,.95-.1,.32-.4,.52-.71,.52Z"/><path class="cls-2" d="M69.83,58.54s2.29-7.99,6.04-7.29,6.31,2.37,6.76,5.21-.91,5.97-.91,5.97l-11.88-3.88Z"/></g><g><g><path class="cls-2" d="M153.1,174.61l8.21,26.66s1.4,5.96,4.68,4.85c0,0-6.54,2.54-8.87-4.89l-8.78-28.33,4.75,1.71Z"/><path class="cls-2" d="M163.48,207.29c-.93,0-2.01-.16-3.07-.67-1.86-.9-3.21-2.63-4-5.17l-8.78-28.33c-.08-.27,0-.57,.2-.76,.21-.2,.5-.26,.77-.16l4.75,1.71c.22,.08,.39,.26,.46,.49l8.21,26.66c.23,.97,1.09,3.52,2.43,4.26,.41,.23,.83,.26,1.3,.1,.39-.13,.81,.07,.95,.46,.14,.38-.05,.81-.43,.96-.08,.03-1.24,.47-2.79,.47Zm-13.97-33.17l8.33,26.89c.66,2.11,1.74,3.54,3.21,4.25,.53,.26,1.08,.4,1.6,.47-1.38-1.54-1.99-3.96-2.07-4.29l-8.09-26.25-2.98-1.07Z"/></g><path class="cls-2" d="M163.56,207.35c-3.12,0-6-2.04-6.93-5.18l-9-29.04c-.12-.4,.1-.82,.49-.94,.4-.12,.82,.1,.94,.5l9,29.05c.89,3.03,4.07,4.77,7.1,3.88,3.02-.89,4.76-4.07,3.87-7.1l-11.03-35.59c-.12-.4,.1-.82,.49-.94,.4-.12,.82,.1,.94,.5l11.03,35.6c1.12,3.83-1.07,7.85-4.89,8.97-.68,.2-1.36,.29-2.03,.29Z"/></g><path class="cls-2" d="M172.89,157.25c-.35,0-.66-.24-.74-.58-.09-.39,.14-.79,.53-.89,.36-.09,7.25-.84,11.33-1.28,.41-.05,.78,.25,.83,.67,.04,.41-.25,.78-.67,.83-4.23,.45-10.68,1.16-11.14,1.25-.05,0-.1,.01-.14,.01Z"/><path class="cls-2" d="M185.38,170.15c-.15,0-.29-.04-.42-.13l-12.56-8.64c-.34-.24-.43-.7-.19-1.04,.24-.34,.7-.43,1.04-.19l12.56,8.64c.34,.24,.43,.7,.19,1.04-.15,.21-.38,.33-.62,.33Z"/><path class="cls-2" d="M173.47,172.18c-.26,0-.51-.13-.65-.37l-4.49-7.72c-.21-.36-.09-.82,.27-1.03,.36-.21,.82-.09,1.03,.27l4.49,7.72c.21,.36,.09,.82-.27,1.03-.12,.07-.25,.1-.38,.1Z"/><g><g><polyline class="cls-2" points="164.68 125.82 150.59 145.4 155.69 144.25 167.78 128.1 164.68 125.82"/><path class="cls-2" d="M150.59,146.15c-.25,0-.48-.12-.63-.34-.17-.26-.17-.6,.02-.85l14.09-19.58c.12-.16,.29-.27,.49-.3,.2-.03,.4,.02,.56,.13l3.1,2.27c.16,.12,.27,.3,.3,.5,.03,.2-.02,.4-.14,.56l-12.09,16.16c-.11,.14-.26,.24-.44,.28l-5.1,1.15c-.05,.01-.11,.02-.16,.02Zm14.25-19.28l-12.49,17.36,2.91-.65,11.47-15.33-1.88-1.38Z"/></g><path class="cls-2" d="M166.4,148.26c-.15,0-.3-.04-.43-.13-.34-.24-.42-.71-.19-1.04l8.85-12.67c.24-.34,.7-.42,1.04-.19,.34,.24,.42,.71,.19,1.04l-8.85,12.67c-.15,.21-.38,.32-.62,.32Z"/><path class="cls-2" d="M192.48,146.92c-.16,0-.31-.05-.44-.14l-38.82-28.41c-.17-.12-.27-.3-.3-.51-.03-.2,.03-.41,.16-.57l12.41-15.47c.25-.31,.7-.37,1.02-.14l17.42,12.52c.09,.06,.16,.15,.22,.24l13.48,24.04c.13,.24,.13,.53-.01,.76l-4.48,7.31c-.11,.18-.29,.3-.49,.34-.05,0-.1,.01-.15,.01Zm-37.75-29.3l37.53,27.47,3.83-6.24-13.18-23.52-16.71-12.01-11.47,14.3Z"/></g></svg>