<?xml version="1.0" encoding="UTF-8"?><svg id="Calque_1" xmlns="http://www.w3.org/2000/svg" viewBox="0 0 250 250"><defs><style>.cls-1{fill:#ff5841;}.cls-2{fill:#25171a;}</style></defs><path class="cls-2" d="M132.68,175.52c-.79,0-1.59-.19-2.3-.56-1.2-.62-2.08-1.66-2.49-2.94l-16.24-50.54c-.13-.39,.09-.82,.48-.94,.4-.12,.82,.09,.94,.48l16.24,50.54c.29,.9,.91,1.63,1.75,2.06,.53,.27,1.12,.41,1.71,.39,.33,0,.66-.07,.98-.17l39.75-12.77c.9-.29,1.63-.91,2.06-1.75,.43-.84,.51-1.8,.22-2.7-.13-.39,.09-.82,.48-.94,.4-.13,.82,.09,.94,.48,.41,1.28,.3,2.64-.31,3.84-.61,1.2-1.66,2.08-2.94,2.49l-39.75,12.77c-.45,.15-.93,.23-1.4,.24-.05,0-.09,0-.14,0Zm.26-4.8c-.35,0-.7-.08-1.02-.25-.54-.28-.93-.74-1.11-1.31l-16.25-50.56c-.13-.39,.09-.82,.48-.94,.4-.12,.82,.09,.94,.48l16.25,50.56c.06,.19,.19,.35,.37,.44,.18,.09,.38,.11,.57,.05l38.1-12.25c.19-.06,.35-.19,.44-.37,.09-.18,.11-.38,.05-.57l-26.15-81.38c-.06-.19-.19-.35-.37-.44-.11-.06-.24-.08-.36-.08-.07,0-.14,.01-.21,.04l-38.1,12.25c-.39,.13-.61,.55-.48,.94l4.08,12.68c.13,.39-.09,.82-.48,.94-.4,.13-.82-.09-.94-.48l-4.08-12.68c-.18-.57-.13-1.18,.14-1.72,.27-.53,.74-.93,1.31-1.11l38.1-12.25c.2-.06,.41-.1,.62-.11,.38,0,.76,.08,1.1,.25,.53,.27,.93,.74,1.11,1.31l26.15,81.38c.18,.57,.13,1.18-.14,1.72-.27,.53-.74,.93-1.31,1.11l-38.1,12.25c-.23,.07-.46,.11-.69,.11Zm-27.31-66.57c-.32,0-.61-.2-.71-.52l-1.65-5.15c-.16-.51-.03-1.04,.3-1.41-.12-.03-.24-.07-.36-.13-.34-.18-.6-.48-.71-.84l-.9-2.82c-.12-.37-.09-.76,.09-1.1,.1-.19,.23-.35,.39-.48l-1.47-4.56c-.85-2.64,.61-5.48,3.25-6.33l39.75-12.77c1.28-.41,2.64-.3,3.84,.31,1.2,.61,2.08,1.66,2.49,2.94l8.05,25.16c.13,.39-.09,.82-.49,.94-.4,.13-.82-.09-.94-.49l-8.05-25.16c-.29-.9-.91-1.63-1.75-2.06-.84-.43-1.8-.51-2.7-.22l-39.75,12.77c-1.85,.6-2.88,2.59-2.28,4.45l1.67,5.19c.06,.19,.04,.4-.05,.57s-.25,.31-.44,.37l-.24,.08,.94,2.74,.17-.11c.4-.12,.82,.09,.94,.48l.34,1.06c.06,.19,.04,.4-.05,.57s-.25,.31-.44,.37l-.24,.08,1.69,5.07c.13,.39-.09,.82-.48,.94-.08,.02-.15,.04-.23,.04Z"/><path class="cls-2" d="M51.31,167.69c-.25,0-.5-.13-.64-.36-.22-.35-.11-.81,.24-1.03,.28-.17,27.36-16.91,34.93-22.09-.35-2.87-1.75-17.71,5.52-26.62,4.95-6.07,17.34-20.25,25.4-20.84,3.2-.22,5.87,.97,7.31,3.3,1.55,2.52,1.38,5.98-.44,9.02-3.41,5.69-6.16,8.49-11.41,13.01-4.68,4.02-.6,9.91-.42,10.16,.24,.34,.16,.81-.18,1.05-.34,.24-.8,.16-1.04-.18-.05-.07-5.06-7.25,.67-12.17,5.13-4.4,7.8-7.13,11.11-12.64,1.53-2.56,1.71-5.42,.45-7.46-1.13-1.84-3.29-2.79-5.92-2.59-5.19,.38-14.29,7.96-24.35,20.29-7.48,9.17-5.16,25.75-5.14,25.92,.04,.28-.08,.56-.31,.72-7.04,4.88-35.09,22.22-35.37,22.39-.12,.08-.26,.11-.39,.11Z"/><path class="cls-2" d="M95.18,194.34l-.96-1.15s14.83-12.42,19.58-16.37c2.83-2.35,6.33-3.71,9.15-4.79,1.95-.75,3.63-1.4,4.38-2.12,.3-.29,.77-.27,1.06,.03,.29,.3,.27,.78-.03,1.06-.97,.92-2.69,1.58-4.87,2.43-2.71,1.05-6.09,2.35-8.73,4.55-4.75,3.95-19.57,16.37-19.57,16.37Z"/><path class="cls-2" d="M163.24,109.29c-.12,0-.23-.03-.34-.08-4.9-2.54-6.51-7.33-6.39-10.97,.1-2.94,1.31-5.27,3.15-6.08,2.1-.92,4.55-.81,6.72,.29,2.39,1.21,4.05,3.39,4.68,6.15,1.29,5.66-1.46,8.64-1.57,8.77-.28,.3-.76,.31-1.06,.03-.3-.28-.31-.76-.03-1.06,.1-.11,2.3-2.58,1.2-7.41-.53-2.31-1.91-4.14-3.89-5.14-1.78-.9-3.76-.99-5.45-.26-1.29,.56-2.17,2.43-2.25,4.75-.11,3.18,1.3,7.38,5.58,9.59,.37,.19,.51,.64,.32,1.01-.13,.26-.4,.41-.67,.41Z"/><path class="cls-2" d="M166.35,123.39c-.08,0-.15-.01-.23-.04-.22-.07-5.28-1.78-5.62-9.29-.15-3.35,1.31-5.97,4.03-7.18,2.55-1.14,5.57-.71,7.35,1.03,3.24,3.19,4.78,6.22,3.07,12.3-.11,.4-.53,.63-.93,.52-.4-.11-.63-.53-.52-.92,1.53-5.43,.3-7.9-2.68-10.83-1.33-1.31-3.72-1.62-5.69-.73-1.24,.56-3.31,2.04-3.14,5.74,.29,6.43,4.41,7.87,4.58,7.93,.39,.13,.61,.55,.48,.95-.1,.32-.4,.52-.71,.52Z"/><path class="cls-2" d="M171.39,136.43c-.12,0-.25-.03-.36-.09-1.74-.96-2.9-2.24-4.14-4.57-4.49-8.47-.08-10.85,1.8-11.87l.23-.13c1.09-.61,3.24-.87,5.35-.01,1.52,.62,3.55,2.05,4.56,5.36,1.89,6.21-.93,9.18-1.05,9.3-.29,.3-.76,.3-1.06,0-.29-.29-.3-.76-.02-1.06,.1-.11,2.3-2.52,.69-7.82-.83-2.75-2.46-3.91-3.69-4.41-1.76-.71-3.42-.42-4.06-.07l-.25,.13c-1.74,.94-4.98,2.69-1.19,9.85,1.1,2.07,2.06,3.15,3.54,3.96,.36,.2,.49,.66,.29,1.02-.14,.25-.39,.39-.66,.39Z"/><path class="cls-2" d="M178.55,149.26c-1.57,0-3.54-.83-5.88-3.43-2.13-2.37-3.11-6.02-2.34-8.68,.54-1.89,1.86-3.18,3.81-3.73,4.38-1.26,7.34,1.71,8.29,3.46,0,0,0,0,0,0,2.45,4.63,.78,10.28-1.5,11.68-.64,.39-1.44,.69-2.38,.69Zm-2.33-14.64c-.52,0-1.07,.07-1.67,.24-1.44,.41-2.38,1.32-2.78,2.71-.62,2.17,.24,5.29,2.02,7.27,1.68,1.87,4.15,3.82,6.35,2.46,1.53-.94,3.02-5.8,.97-9.7-.1-.18-1.72-2.98-4.89-2.98Z"/><g><g><path class="cls-1" d="M147.14,121.45l-2.74-5.23c-1.92-3.66-6.44-5.07-10.1-3.15-3.66,1.92-5.07,6.44-3.15,10.1l2.74,5.23c-.92,.55-1.27,1.72-.76,2.68h0c.52,.99,1.75,1.37,2.74,.85l3.62-1.9c.84,1.61,2.83,2.23,4.44,1.39,1.61-.84,2.23-2.83,1.39-4.44l3.62-1.9c.99-.52,1.37-1.75,.85-2.74h0c-.5-.96-1.67-1.35-2.64-.9Z"/><path class="cls-2" d="M134.92,132.92c-1,0-1.97-.54-2.46-1.49-.57-1.09-.35-2.39,.48-3.23l-2.45-4.68c-1.02-1.95-1.22-4.18-.57-6.28,.65-2.1,2.09-3.82,4.04-4.84,1.95-1.02,4.17-1.22,6.27-.57,2.1,.66,3.82,2.09,4.84,4.04l2.45,4.68c1.16-.2,2.36,.36,2.93,1.45,.34,.66,.41,1.41,.19,2.12-.22,.71-.71,1.29-1.36,1.63l-3.02,1.58c.56,1.82-.24,3.84-1.99,4.76-.96,.5-2.05,.6-3.08,.28-.79-.25-1.47-.71-1.97-1.35l-3.01,1.58c-.41,.21-.85,.32-1.29,.32Zm2.84-19.96c-1.07,0-2.14,.26-3.12,.77-1.59,.83-2.77,2.24-3.3,3.96-.54,1.72-.37,3.54,.46,5.13l2.74,5.23c.19,.35,.06,.79-.28,.99-.58,.35-.8,1.09-.48,1.69,.33,.62,1.1,.87,1.73,.54l3.62-1.9c.36-.19,.82-.05,1.01,.32,.32,.6,.85,1.04,1.49,1.25,.65,.2,1.34,.14,1.94-.18,1.24-.65,1.72-2.19,1.07-3.43-.19-.37-.05-.82,.32-1.01l3.62-1.9c.3-.16,.52-.42,.63-.75,.1-.33,.07-.67-.09-.97-.31-.6-1.04-.85-1.66-.57-.36,.16-.79,.02-.98-.33l-2.74-5.23c-.84-1.59-2.24-2.76-3.96-3.3-.66-.21-1.34-.31-2.01-.31Z"/></g><g><path class="cls-1" d="M133,113.85c-.39-.74-.1-1.64,.63-2.03s1.64-.1,2.03,.63"/><path class="cls-2" d="M133,114.6c-.27,0-.53-.15-.66-.4-.28-.53-.33-1.14-.16-1.72,.18-.58,.57-1.05,1.1-1.33,.53-.28,1.14-.34,1.72-.16,.57,.18,1.05,.57,1.32,1.1,.19,.37,.05,.82-.32,1.01-.37,.19-.82,.05-1.01-.32-.19-.37-.65-.51-1.02-.32-.37,.19-.51,.65-.32,1.02,.19,.37,.05,.82-.32,1.01-.11,.06-.23,.09-.35,.09Z"/></g><path class="cls-2" d="M148.36,114.9c-.27,0-.53-.15-.66-.4-1.98-3.78-5.89-6.11-10.15-6-.42,0-.76-.32-.76-.74,0-.41,.32-.76,.74-.76,.08,0,.16,0,.25,0,4.76,0,9.06,2.59,11.27,6.8,.19,.37,.05,.82-.32,1.01-.11,.06-.23,.09-.35,.09Z"/><path class="cls-2" d="M127.18,126c-.27,0-.53-.15-.66-.4-2.25-4.28-1.88-9.39,.95-13.33,.24-.33,.71-.41,1.05-.17,.34,.24,.41,.71,.17,1.05-2.5,3.48-2.82,7.98-.84,11.76,.19,.37,.05,.82-.32,1.01-.11,.06-.23,.09-.35,.09Z"/><g><line class="cls-1" x1="139.48" y1="130.04" x2="145.31" y2="126.98"/><path class="cls-2" d="M139.48,130.79c-.27,0-.53-.15-.66-.4-.19-.37-.05-.82,.32-1.01l5.83-3.06c.37-.19,.82-.05,1.01,.32,.19,.37,.05,.82-.32,1.01l-5.83,3.06c-.11,.06-.23,.09-.35,.09Z"/></g></g><g><path class="cls-2" d="M111.74,121.52s-3.4,2.95-2.7,5.55,2.38,7.39,2.85,11.14,5.29,10.59,4.86,18.33c-.43,7.74-4.69,21.05,.98,18.58,5.67-2.47,9.2-4.01,9.2-4.01,0,0,.54-.36,.6-1.86,.06-1.5-14.71-47.83-14.71-47.83l-1.08,.1Z"/><path class="cls-2" d="M116.51,176.17c-.49,0-.93-.14-1.3-.43-1.88-1.46-1.09-6.27-.18-11.85,.42-2.57,.85-5.23,.97-7.4,.27-4.83-1.6-9.33-3.1-12.95-.85-2.05-1.58-3.82-1.76-5.25-.33-2.69-1.31-5.94-2.1-8.54-.29-.95-.54-1.8-.73-2.5-.81-3.02,2.78-6.18,2.93-6.31,.12-.1,.27-.17,.42-.18l1.08-.1c.35-.03,.68,.18,.78,.52,3.48,10.9,14.81,46.57,14.75,48.09-.07,1.75-.74,2.32-.94,2.46-.04,.02-.07,.04-.11,.06,0,0-3.53,1.54-9.2,4.01-.56,.24-1.06,.36-1.52,.36Zm-4.45-53.93c-.93,.87-2.73,2.99-2.29,4.63,.18,.68,.44,1.52,.72,2.45,.8,2.66,1.8,5.97,2.15,8.79,.15,1.23,.85,2.91,1.66,4.86,1.56,3.76,3.5,8.43,3.21,13.6-.12,2.25-.56,4.95-.99,7.56-.69,4.24-1.55,9.51-.38,10.42,.3,.23,.87,.06,1.29-.12,5.07-2.21,8.44-3.68,9.08-3.96,.04-.07,.24-.42,.27-1.26-.14-1.55-8.67-28.74-14.49-47l-.23,.02Z"/></g><g><path class="cls-2" d="M181.93,146.2s-.92,2.27-3.05,2.09c-2.13-.19-5.34-2.62-5.34-2.62l2.91,10.52s.68-.86,1.69-2.06c1.03-1.22,3.21-5.61,3.8-7.92Z"/><path class="cls-2" d="M176.44,156.93c-.11,0-.21-.02-.31-.07-.2-.09-.35-.27-.41-.48l-2.91-10.52c-.09-.31,.04-.64,.3-.82,.27-.18,.62-.17,.87,.02,.85,.64,3.39,2.33,4.96,2.47,1.55,.13,2.26-1.55,2.29-1.62,.15-.36,.55-.55,.93-.43,.37,.12,.59,.51,.49,.89-.61,2.43-2.84,6.9-3.95,8.22-.67,.8-1.19,1.45-1.46,1.79-.29,.35-.31,.39-.47,.47-.1,.05-.22,.08-.33,.08Zm-1.64-9.52l1.98,7.17c.23-.28,.49-.59,.78-.94,.63-.75,1.73-2.8,2.59-4.74-.39,.12-.83,.18-1.33,.14-1.28-.11-2.84-.91-4.02-1.62Z"/></g></svg>