<?xml version="1.0" encoding="UTF-8"?><svg id="Calque_1" xmlns="http://www.w3.org/2000/svg" viewBox="0 0 250 250"><defs><style>.cls-1{fill:#ff5841;}.cls-2{fill:#25171a;}</style></defs><path class="cls-1" d="M136.45,120.21c-5.56,.96-9.28,6.24-8.32,11.8,.96,5.56,6.24,9.28,11.8,8.32,5.56-.96,9.28-6.24,8.32-11.8-.96-5.56-6.24-9.28-11.8-8.32Zm6.33,7.09l-4.09,6.94c-.11,.18-.29,.31-.5,.36,0,0-.01,0-.02,0-.2,.04-.41-.02-.58-.14-.5-.38-2.74-1.73-3.55-2.22-.36-.21-.47-.67-.26-1.03,.21-.36,.67-.47,1.03-.26,.24,.14,1.94,1.16,3,1.84l3.69-6.25c.21-.36,.67-.48,1.03-.27,.36,.21,.48,.67,.27,1.03Z"/><path class="cls-2" d="M95.8,166.77c-.36,0-.67-.26-.74-.62l-14.67-84.86c-.57-3.45-1.76-5.84-3.55-7.11-1.27-.9-2.85-1.2-4.7-.88-1.72,.3-3.01,1.09-3.82,2.36-1.52,2.37-1.11,5.82-.84,7.26l11.84-2.05c.41-.07,.8,.2,.87,.61,.07,.41-.2,.8-.61,.87l-12.55,2.17c-.39,.07-.75-.17-.85-.55-.06-.22-1.43-5.52,.89-9.12,1.05-1.64,2.67-2.66,4.83-3.03,2.26-.39,4.22,0,5.82,1.13,2.12,1.51,3.52,4.23,4.16,8.09l.02,.14,14.65,84.7c.07,.41-.2,.8-.61,.87-.04,0-.09,.01-.13,.01Z"/><path class="cls-2" d="M177.81,159.42c-.36,0-.67-.26-.74-.62-.07-.41,.2-.8,.61-.87,1.84-.32,3.19-1.08,4.02-2.26,1.56-2.22,1.07-5.45,.76-7.17-2.09,.04-12.37,1.46-53.76,9.23-.4,.08-.8-.19-.88-.6-.08-.41,.19-.8,.6-.88,53.62-10.06,54.54-9.43,55.09-9.05,.17,.11,.3,.33,.34,.52l.05,.27c.3,1.71,1.02,5.7-.97,8.53-1.07,1.52-2.75,2.49-4.99,2.88-.04,0-.09,.01-.13,.01Zm4.56-11.44s0,0,0,0h0Z"/><path class="cls-2" d="M168.57,149.79l-14.06-81.32c-.57-3.45-1.77-5.84-3.55-7.11-1.27-.9-2.85-1.2-4.7-.88l-72.66,12.57c-.41,.07-.8-.2-.87-.61-.07-.41,.2-.8,.61-.87l72.66-12.57c2.26-.39,4.22-.01,5.82,1.13,2.12,1.51,3.52,4.23,4.16,8.09l.02,.14,14.04,81.16-1.48,.26Z"/><path class="cls-2" d="M119.37,169.79c-.36,0-.67-.26-.74-.62-.07-.41,.2-.8,.61-.87l58.44-10.37c.41-.07,.8,.2,.87,.61,.07,.41-.2,.8-.61,.87l-58.44,10.37s-.09,.01-.13,.01Z"/><path class="cls-2" d="M93.89,85.57c-.36,0-.67-.26-.74-.62-.07-.41,.2-.8,.61-.87l19.86-3.44c.41-.07,.8,.2,.87,.61,.07,.41-.2,.8-.61,.87l-19.86,3.44s-.09,.01-.13,.01Z"/><path class="cls-2" d="M95.53,95.05c-.36,0-.67-.26-.74-.62-.07-.41,.2-.8,.61-.87l53.12-9.19c.41-.07,.8,.2,.87,.61,.07,.41-.2,.8-.61,.87l-53.12,9.19s-.09,.01-.13,.01Z"/><path class="cls-2" d="M97.32,104.4c-.36,0-.67-.26-.74-.62-.07-.41,.2-.8,.61-.87l53.12-9.19c.41-.07,.8,.2,.87,.61,.07,.41-.2,.8-.61,.87l-53.12,9.19s-.09,.01-.13,.01Z"/><path class="cls-2" d="M98.96,113.88c-.36,0-.67-.26-.74-.62-.07-.41,.2-.8,.61-.87l53.12-9.19c.41-.07,.8,.2,.87,.61,.07,.41-.2,.8-.61,.87l-53.12,9.19s-.09,.01-.13,.01Z"/><path class="cls-2" d="M100.45,123.48c-.36,0-.67-.26-.74-.62-.07-.41,.2-.8,.61-.87l23.55-4.07c.41-.07,.8,.2,.87,.61,.07,.41-.2,.8-.61,.87l-23.55,4.07s-.09,.01-.13,.01Z"/><path class="cls-2" d="M102.09,132.96c-.36,0-.67-.26-.74-.62-.07-.41,.2-.8,.61-.87l17.85-3.09c.41-.07,.8,.2,.87,.61,.07,.41-.2,.8-.61,.87l-17.85,3.09s-.09,.01-.13,.01Z"/><path class="cls-2" d="M67.06,84.31s-1.98-9.36,2.22-10.68c4.2-1.32,7.7-1,9.68,1.66,1.98,2.65,2.29,6.57,2.29,6.57l-14.19,2.45Z"/><path class="cls-2" d="M138.2,149.24c-1.07,0-2.16-.09-3.25-.28-10.3-1.78-17.23-11.62-15.45-21.92,1.79-10.3,11.62-17.23,21.92-15.45h0c10.3,1.79,17.23,11.62,15.45,21.92-1.6,9.21-9.63,15.73-18.68,15.73Zm-.02-36.43c-8.33,0-15.73,6-17.2,14.49-1.64,9.49,4.74,18.55,14.23,20.19,9.5,1.64,18.55-4.74,20.19-14.23,1.64-9.49-4.74-18.54-14.23-20.19h0c-1-.17-2-.26-2.99-.26Z"/><path class="cls-2" d="M98.3,191.13c-.6,0-1.2-.17-1.73-.52l-2.29-1.5c-.72-.47-1.21-1.2-1.38-2.05-.16-.85,.02-1.71,.51-2.42l25.04-37.06c.12-.18,.32-.3,.54-.33,.17-.02,4.19-.39,6.51,4.3,.12,.24,.1,.52-.04,.74l-1.36,2.09s0,0,0,0l-23.15,35.33c-.62,.91-1.63,1.4-2.65,1.4Zm21.17-42.38l-24.82,36.74c-.27,.38-.36,.84-.27,1.28,.09,.45,.35,.83,.73,1.08l2.29,1.5c.76,.5,1.8,.29,2.31-.46l24.26-37.05c-1.51-2.71-3.67-3.07-4.49-3.1Zm4,5.24h0Z"/><path class="cls-2" d="M122.68,149.95c-.14,0-.28-.04-.41-.12-.35-.23-.45-.69-.22-1.04l2.94-4.52c.23-.35,.69-.45,1.04-.22,.35,.23,.45,.69,.22,1.04l-2.94,4.52c-.14,.22-.38,.34-.63,.34Z"/></svg>