<?xml version="1.0" encoding="UTF-8"?><svg id="Calque_1" xmlns="http://www.w3.org/2000/svg" viewBox="0 0 250 250"><defs><style>.cls-1{fill:#ff5841;}.cls-2{fill:#25171a;}</style></defs><circle class="cls-1" cx="129.83" cy="176.13" r="31.78"/><circle class="cls-1" cx="85.01" cy="98.15" r="16.89"/><circle class="cls-1" cx="174.65" cy="128.9" r="24.17"/><path class="cls-2" d="M174.65,194.38H85.01c-.41,0-.75-.34-.75-.75V72.03c0-.41,.34-.75,.75-.75h89.64c.41,0,.75,.34,.75,.75v121.6c0,.41-.34,.75-.75,.75Zm-88.89-1.5h88.14V72.78H85.76v120.1Z"/><path class="cls-2" d="M167.26,186.54H92.39c-.41,0-.75-.34-.75-.75V79.87c0-.41,.34-.75,.75-.75h74.86c.41,0,.75,.34,.75,.75v105.92c0,.41-.34,.75-.75,.75Zm-74.11-1.5h73.36V80.62H93.14v104.42Z"/><path class="cls-2" d="M92.39,80.62c-.2,0-.4-.08-.55-.24l-7.39-7.84c-.28-.3-.27-.78,.03-1.06,.3-.29,.78-.27,1.06,.03l7.39,7.84c.28,.3,.27,.78-.03,1.06-.14,.14-.33,.2-.51,.2Z"/><path class="cls-2" d="M174.65,194.38c-.2,0-.4-.08-.55-.24l-7.39-7.84c-.28-.3-.27-.78,.03-1.06,.3-.28,.78-.27,1.06,.03l6.09,6.47V73.92l-6.09,6.47c-.28,.3-.76,.32-1.06,.03-.3-.28-.32-.76-.03-1.06l7.39-7.84c.21-.22,.54-.29,.82-.18,.29,.11,.47,.39,.47,.7v121.6c0,.31-.19,.58-.47,.7-.09,.04-.18,.05-.28,.05Z"/><path class="cls-2" d="M85.01,194.38c-.18,0-.37-.07-.51-.2-.3-.28-.32-.76-.03-1.06l7.39-7.84c.28-.3,.76-.32,1.06-.03,.3,.28,.32,.76,.03,1.06l-7.39,7.84c-.15,.16-.35,.24-.55,.24Z"/><path class="cls-2" d="M113.18,72.78c-.13,0-.27-.04-.39-.11-.35-.21-.47-.68-.25-1.03l16.65-27.41c.22-.35,.68-.47,1.03-.25,.35,.21,.47,.68,.25,1.03l-16.65,27.41c-.14,.23-.39,.36-.64,.36Z"/><path class="cls-2" d="M146.47,72.78c-.25,0-.5-.13-.64-.36l-16.65-27.41c-.21-.35-.1-.82,.25-1.03,.35-.21,.82-.1,1.03,.25l16.65,27.41c.21,.35,.1,.82-.25,1.03-.12,.07-.26,.11-.39,.11Z"/><path class="cls-2" d="M129.83,45.37c-1.81,0-3.28-1.47-3.28-3.28s1.47-3.28,3.28-3.28,3.28,1.47,3.28,3.28-1.47,3.28-3.28,3.28Zm0-5.07c-.98,0-1.78,.8-1.78,1.78s.8,1.78,1.78,1.78,1.78-.8,1.78-1.78-.8-1.78-1.78-1.78Z"/><g><path class="cls-2" d="M92.78,80.41v1.56h72.43l.06,103.82,2.17-.19-.48-104.28s.84-1.45-1.43-1.45-72.75,.54-72.75,.54Z"/><path class="cls-2" d="M165.27,186.54c-.19,0-.37-.07-.51-.2-.15-.14-.24-.34-.24-.55l-.06-103.07H92.78c-.41,0-.75-.34-.75-.75v-1.56c0-.41,.33-.75,.74-.75,.71,0,70.51-.54,72.76-.54,1.08,0,1.8,.3,2.14,.89,.32,.57,.17,1.16,.04,1.47l.48,104.11c0,.39-.3,.72-.69,.75l-2.17,.19s-.04,0-.06,0ZM93.53,81.22h71.68c.41,0,.75,.34,.75,.75l.06,103,.67-.06-.48-103.59c0-.13,.03-.27,.1-.38,.03-.05,.06-.15,.05-.2,0-.02-.19-.13-.83-.13-2.12,0-64.44,.48-72,.53v.07Z"/></g></svg>