<?xml version="1.0" encoding="UTF-8"?><svg id="Calque_1" xmlns="http://www.w3.org/2000/svg" viewBox="0 0 250 250"><defs><style>.cls-1{fill:#ff5841;}.cls-2{fill:#25171a;}</style></defs><g><path class="cls-1" d="M179.82,137.51h3.78c-3.25-9.82-10.82-8.89-10.82-8.89-1.3-2.31-3.9-2.02-3.9-2.02-1.07-2.88-3.44-5.32-7.72-3.96-4.28,1.35-4.2,7.21-4.2,7.21-7.55,1.2-7.05,7.66-7.05,7.66h29.9Z"/><path class="cls-1" d="M183.6,138.26h-33.68c-.39,0-.72-.3-.75-.69,0-.07-.44-6.8,7.07-8.35,.12-1.67,.79-6.06,4.7-7.29,3.82-1.21,6.87,.22,8.45,3.92,.91,.04,2.65,.34,3.8,2.01,1.8-.04,8.21,.61,11.12,9.42,.08,.23,.04,.48-.1,.67-.14,.19-.37,.31-.61,.31Zm-32.92-1.5h31.85c-3.15-8.05-9.38-7.43-9.66-7.39-.3,.04-.59-.11-.74-.38-1.03-1.83-3.08-1.65-3.16-1.64-.34,.04-.66-.17-.78-.48-.86-2.31-2.73-4.79-6.79-3.51-3.71,1.17-3.68,6.43-3.68,6.48,0,.37-.26,.69-.63,.75-5.4,.86-6.28,4.6-6.4,6.17Z"/></g><g><path class="cls-1" d="M113.54,183.64h5.97c-5.12-15.48-17.05-14.01-17.05-14.01-2.05-3.64-6.14-3.18-6.14-3.18-1.69-4.55-5.42-8.38-12.17-6.25-6.75,2.13-6.63,11.36-6.63,11.36-11.9,1.9-11.11,12.07-11.11,12.07h47.13Z"/><path class="cls-1" d="M119.51,184.39h-53.1c-.39,0-.72-.3-.75-.69,0-.11-.67-10.53,11.12-12.76,.11-2.23,.94-9.49,7.13-11.45,5.87-1.85,10.54,.41,12.9,6.2,1.26,0,4.21,.34,6.05,3.17,2.38-.06,12.71,.48,17.35,14.55,.08,.23,.04,.48-.1,.67-.14,.19-.37,.31-.61,.31Zm-52.36-1.5h51.31c-5-13.64-15.46-12.57-15.9-12.52-.3,.03-.6-.11-.74-.38-1.77-3.15-5.26-2.82-5.41-2.8-.33,.04-.67-.16-.78-.48-1.16-3.12-4.16-8.03-11.24-5.8-6.13,1.94-6.1,10.55-6.1,10.64,0,.37-.26,.69-.63,.75-9.45,1.51-10.43,8.35-10.49,10.58Z"/></g><path class="cls-2" d="M123.16,163.06c-.23,0-.46-.11-.6-.3-7.77-3.01-29.94-21.43-35.41-27.23-18.77-19.89-17.85-51.34,2.04-70.1,19.89-18.77,51.34-17.85,70.1,2.04,9.08,9.62,13.86,22.22,13.48,35.47-.39,13.26-5.9,25.55-15.52,34.63-4.95,4.68-27.04,23.15-33.85,25.45-.08,.03-.16,.04-.24,.04Zm.02-109.63c-12.33,0-23.98,4.62-32.96,13.09-19.29,18.2-20.17,48.7-1.98,67.98,5.32,5.64,27.91,24.38,35.09,26.94,6.68-2.67,27.31-19.69,32.9-24.97,9.33-8.8,14.67-20.73,15.04-33.58s-4.27-25.07-13.07-34.4c-8.8-9.33-20.73-14.67-33.58-15.04-.48-.01-.96-.02-1.44-.02Z"/><g><polygon class="cls-2" points="131.74 197.32 114.64 197.32 111.53 181.19 134.85 181.19 131.74 197.32"/><path class="cls-2" d="M131.74,198.07h-17.1c-.36,0-.67-.25-.74-.61l-3.11-16.13c-.04-.22,.02-.45,.16-.62,.14-.17,.35-.27,.58-.27h23.32c.22,0,.44,.1,.58,.27,.14,.17,.2,.4,.16,.62l-3.11,16.13c-.07,.35-.38,.61-.74,.61Zm-16.48-1.5h15.86l2.82-14.63h-21.5l2.82,14.63Z"/></g><path class="cls-2" d="M134.85,181.68c-.25,0-.49-.12-.64-.35l-11.69-18.63c-.22-.35-.11-.81,.24-1.03,.35-.22,.81-.11,1.03,.24l11.69,18.63c.22,.35,.11,.81-.24,1.03-.12,.08-.26,.11-.4,.11Z"/><path class="cls-2" d="M111.53,181.68c-.14,0-.27-.04-.4-.11-.35-.22-.46-.68-.24-1.03l11.63-18.63c.22-.35,.68-.46,1.03-.24,.35,.22,.46,.68,.24,1.03l-11.63,18.63c-.14,.23-.39,.35-.64,.35Z"/><path class="cls-2" d="M123.16,163.28c-.17,0-.34-.06-.48-.17-.34-.28-34.42-28.79-34.42-62.9s34.32-48.07,34.67-48.22c.38-.16,.82,.02,.98,.4,.16,.38-.02,.82-.4,.98-.34,.14-33.75,14.42-33.75,46.83s33.54,61.46,33.88,61.74c.32,.26,.37,.74,.1,1.06-.15,.18-.36,.27-.58,.27Z"/><path class="cls-2" d="M123.16,163.28c-.22,0-.43-.09-.58-.27-.26-.32-.22-.79,.1-1.06,.34-.28,33.99-28.34,33.99-61.74,0-3.05-.3-6.07-.88-8.97-.08-.41,.18-.8,.59-.88,.4-.08,.8,.18,.88,.59,.6,3,.91,6.12,.91,9.27,0,34.11-34.2,62.61-34.54,62.9-.14,.11-.31,.17-.48,.17Z"/><path class="cls-2" d="M149.91,75.81c-.25,0-.49-.12-.63-.34-9.82-15.08-26.19-22.03-26.35-22.09-.38-.16-.56-.6-.4-.98,.16-.38,.6-.56,.98-.4,.17,.07,16.95,7.18,27.03,22.66,.23,.35,.13,.81-.22,1.04-.13,.08-.27,.12-.41,.12Z"/><path class="cls-2" d="M123.16,163.28c-.12,0-.25-.03-.36-.09-.36-.2-.5-.66-.3-1.02,.15-.28,15.42-28.4,15.42-61.96,0-17.01-4.14-28.88-7.61-35.84-3.76-7.54-7.57-11.1-7.6-11.14-.3-.28-.32-.75-.04-1.06,.28-.3,.76-.32,1.06-.04,.64,.59,15.7,14.82,15.7,48.08s-15.45,62.4-15.61,62.68c-.14,.25-.39,.39-.66,.39Z"/><path class="cls-2" d="M123.22,163.28c-.26,0-.52-.14-.66-.39-.07-.14-7.52-13.79-12.07-33.27-.09-.4,.16-.81,.56-.9,.4-.09,.81,.16,.9,.56,4.5,19.27,11.85,32.75,11.92,32.89,.2,.36,.07,.82-.3,1.02-.11,.06-.24,.09-.36,.09Z"/><path class="cls-2" d="M108.55,117.79c-.37,0-.69-.27-.74-.64-.85-5.78-.85-10.71-.85-16.94,0-33.25,15.05-47.49,15.7-48.08,.3-.28,.78-.26,1.06,.04,.28,.3,.26,.78-.04,1.06-.15,.14-15.21,14.43-15.21,46.97,0,6.18,0,11.06,.84,16.73,.06,.41-.22,.79-.63,.85-.04,0-.07,0-.11,0Z"/><path class="cls-2" d="M123.97,103.97c-8.06,0-14.51-3.92-16.22-5.06-8.6,5.47-16.66,1.27-18.69,.02-7.57,5.92-15.07-.29-15.15-.35-.32-.27-.35-.74-.09-1.06,.27-.32,.74-.36,1.06-.09,.28,.24,6.9,5.69,13.64,0,.26-.22,.64-.24,.92-.03,.35,.25,8.72,6.16,17.9-.02,.27-.18,.61-.17,.87,.02,.62,.47,15.45,11.31,30,0,.23-.17,.53-.21,.79-.08,.09,.04,9.36,4.46,18.09,0,.25-.13,.55-.1,.78,.06,.23,.16,5.76,3.98,13.84-.06,.37-.18,.82-.03,1.01,.34,.19,.37,.04,.82-.34,1.01-7.77,3.88-13.48,1.1-14.99,.19-8.28,4-16.62,.87-18.61,0-5.06,3.81-10.2,5.09-14.8,5.09Z"/><path class="cls-2" d="M123.9,122.73c-7.61,0-13.71-3.68-15.36-4.78-8.12,5.15-15.73,1.22-17.7,.02-7.19,5.6-14.3-.29-14.37-.35-.32-.27-.35-.74-.09-1.06,.27-.32,.74-.36,1.06-.09,.26,.22,6.51,5.36,12.87,0,.26-.22,.64-.24,.92-.03,.33,.24,8.23,5.82,16.9-.02,.27-.18,.61-.17,.87,.02,.59,.44,14.61,10.7,28.36,0,.23-.17,.53-.21,.79-.08,.09,.04,8.85,4.21,17.09,0,.25-.13,.55-.1,.78,.06,.22,.15,5.43,3.75,13.06-.06,.37-.18,.82-.04,1.01,.34s.04,.82-.34,1.01c-7.34,3.67-12.75,1.06-14.22,.19-7.82,3.77-15.7,.84-17.61,0-4.8,3.61-9.66,4.82-14.02,4.82Z"/></svg>