<?xml version="1.0" encoding="utf-8"?><svg id="eIvSnbEcVtG1" xmlns="http://www.w3.org/2000/svg" xmlns:xlink="http://www.w3.org/1999/xlink" viewBox="0 0 606 390" shape-rendering="geometricPrecision" text-rendering="geometricPrecision"><g id="eIvSnbEcVtG2" transform="matrix(0.98 0 0 0.98 10.895863 6.927228)"><g id="eIvSnbEcVtG3" transform="matrix(1 0 0 1 0.000006 0.000003)"><g id="eIvSnbEcVtG4"><path id="eIvSnbEcVtG5" d="M209.3,84.3C213.6,83.4,232.1,79.7,237.7,78.7C243.3,77.7,253.6,74.4,253.6,77.1C253.6,79.8,259.2,93,258.2,98.9C258.2,98.9,238,104.1,237.2,109.9C236.4,115.6,242.2,121.4,249.3,129.5C256.4,137.6,266.9,150,267.9,153.6C268.9,157.2,269.4,162.2,262.6,168.5C255.8,174.7,229.8,196.5,222.8,197.2C215.7,198,219.5,196.8,213.8,185.6C208.1,174.3,199.2,153.9,189,149.4C178.9,144.8,173,144.1,173.3,132.8C173.6,121.5,173.9,120.3,166.4,118C158.9,115.7,134.8,114.3,136.7,106.9C138.6,99.5,151.9,87.2,151.9,87.2C151.9,87.2,175.1,89.1,183.9,88.6C183.9,88.6,178.8,96.4,186.1,102.2C193.3,108,201.7,94.6,204,89.1C204.1,89.1,205,85.2,209.3,84.3Z" clip-rule="evenodd" fill="rgb(157,21,84)" fill-rule="evenodd" stroke="none" stroke-width="1"/><g id="eIvSnbEcVtG6" clip-rule="evenodd" mask="url(#eIvSnbEcVtG8)"><path id="eIvSnbEcVtG7" d="M39.6,0C27.7,0,18.1,3.8,10.9,11.3C3.7,18.8,0,28.3,0,39.8C0,51,3.6,60.3,10.9,67.8C18.1,75.3,27.7,79.1,39.6,79.1C51.5,79.1,61.1,75.3,68.3,67.8C75.5,60.3,79.2,51,79.2,39.8C79.2,28.3,75.6,18.8,68.3,11.3C61.1,3.8,51.5,0,39.6,0" fill="rgb(255,88,65)" fill-rule="evenodd" stroke="none" stroke-width="1"/><mask id="eIvSnbEcVtG8" mask-type="luminance"><g id="eIvSnbEcVtG9"><polygon id="eIvSnbEcVtG10" points="0,0 79.2,0 79.2,79.1 0,79.1" clip-rule="evenodd" fill="rgb(255,255,255)" fill-rule="evenodd" stroke="none" stroke-width="1"/></g></mask></g><path id="eIvSnbEcVtG11" d="M151.5,87.7C142.4,85.1,133.6,81.3,125.1,77.2C111.3,70.5,98.1,62.5,85.5,53.8C82.5,51.8,78,48,74.4,50.7C74.4,50.7,74.4,50.7,74.3,50.7C72,49.7,68.9,49.7,67.9,52.2C67.9,52.3,67.9,52.3,67.8,52.3C66.9,52.2,65.9,52.2,65,52.5C62.7,53.1,62.2,54.9,63,57C63,57.1,61.2,58.9,61.1,60.5C61,62.8,62.8,64.5,64.4,65.9C67.1,68.2,70,70.2,72.9,72.2C84.2,80.1,96.1,87.3,108.3,93.9C117.3,98.8,126.6,103.3,136,107.3C136.5,107.5,138.1,106.8,137.4,106.4C122.1,99.8,107.3,92.1,93,83.4C84.2,78.1,75.5,72.5,67.4,66.2C66.1,65.2,64.7,64.1,63.8,62.8C62.5,60.9,62.7,58.4,64.5,57.3C64.6,57.2,64.9,57,64.8,56.8C64.3,55.6,63.8,53.6,65.6,53.3C66.4,53.2,67.2,53.3,68,53.5C68.4,53.6,69.3,53.4,69.4,52.9C69.7,51.4,70.4,50.9,71.8,51.3C72.4,51.5,73.1,51.7,73.7,52C74.1,52.2,74.8,52,75.1,51.7C76.7,49.9,79.5,51.5,81.1,52.6C82.7,53.6,84.3,54.9,85.9,56C92.5,60.5,99.3,64.7,106.2,68.7C116.5,74.7,127.1,80.1,138.2,84.5C142.2,86.1,146.3,87.5,150.4,88.7C151,88.8,152.5,88,151.5,87.7" clip-rule="evenodd" fill="rgb(0,0,0)" fill-rule="evenodd" stroke="none" stroke-width="1"/><path id="eIvSnbEcVtG12" d="M183.7,148.5C178.5,146.1,172.9,141.3,173.4,135.1C173.7,131.5,175,127.4,173.9,123.8C172.7,120,168.5,118.8,165.1,117.8C160.2,116.4,155.2,115.2,150.2,114C147.8,113.4,145.5,112.9,143.1,112.3C142.1,112,141.1,111.8,140.1,111.5C139.7,111.4,139.2,111.2,138.8,111.1C138.3,110.9,138.6,111,138.7,111.1C138.4,110.9,138.3,110.8,138,110.4C137.6,109.7,137.7,108.5,137.9,107.6C138.5,105,140.1,102.6,141.5,100.5C144.8,95.8,148.8,91.5,152.8,87.4C152.5,87.5,152.1,87.6,151.8,87.8C162.4,89.3,173.3,89.8,184,89.2C183.8,89,183.5,88.8,183.3,88.6C181.5,92.1,181.1,96.8,183.3,100.2C184.4,101.9,186.1,103.6,188.2,103.6C189.9,103.6,191.5,102.8,192.9,101.8C196.6,99.2,199.5,95.4,202.1,91.8C203.3,90.1,204.4,88.4,205.6,86.7C206.1,85.9,206.9,84.9,207.3,84C207.4,83.7,207.4,83.5,207.2,83.2C206.7,82.2,206.2,81.3,205.7,80.3C203.8,76.4,202.4,72.3,201.3,68.1L200.8,68.8C204.1,67.3,207.3,63.1,205.4,59.4C204.7,58.1,203.2,57.4,201.7,57.3C201.4,57.3,201.1,57.3,201,57.3C200,57,200.1,55.6,200.2,54.8C200.3,54,198.5,54.3,198.4,55C198.2,56.6,198.5,58.4,200.4,58.5C200.6,58.5,200.8,58.5,200.9,58.5C200.4,58.5,200.9,58.5,201,58.5C201.6,58.6,202.1,58.7,202.6,59C204.7,60.3,204.3,63.5,203.1,65.3C202.4,66.4,201.2,67.5,200,68C199.8,68.1,199.4,68.4,199.5,68.7C200.8,74.1,202.9,79.5,205.6,84.3C205.6,84.2,205.6,84,205.6,83.9C203.2,88,200.5,92.1,197.5,95.7C195.6,98,193.4,100.5,190.7,102C189.9,102.5,188.9,102.8,187.9,102.5C186.2,102,184.8,99.8,184.2,98.2C183.1,95.3,183.5,91.6,184.9,88.8C185.2,88.3,184.5,88.2,184.2,88.2C176.7,88.6,169.2,88.3,161.7,87.7C159.3,87.5,156.9,87.3,154.5,87C153.6,86.9,152.2,86.5,151.4,87C150.7,87.5,150.1,88.3,149.5,89C148.8,89.8,148.1,90.5,147.4,91.3C146.2,92.5,145.1,93.8,144,95.1C142.4,97,140.8,99,139.4,101.1C137.9,103.3,136.2,105.9,135.9,108.7C135.8,109.7,135.9,110.9,136.6,111.7C136.8,111.9,137,112,137.2,112.1C137.6,112.3,138.1,112.4,138.6,112.5C139.9,112.9,141.2,113.2,142.5,113.6C148.8,115.2,155.1,116.6,161.4,118.3C164.2,119,167.3,119.7,169.7,121.3C171.6,122.6,172.3,124.5,172.4,126.7C172.5,131.6,170.2,136.7,172.8,141.3C174.7,144.8,178.1,147.3,181.6,149.2C181.8,149.3,182.1,149.5,182.3,149.6C182.9,149.6,184.5,148.8,183.7,148.5" clip-rule="evenodd" fill="rgb(0,0,0)" fill-rule="evenodd" stroke="none" stroke-width="1"/></g><g id="eIvSnbEcVtG13"><path id="eIvSnbEcVtG14" d="M253.5,77.4C263.7,75.2,274,73.1,284.2,70.9C298.2,67.9,312.3,65,326.3,61.8C328.3,61.3,330.2,60.8,332.2,60.3C334.7,59.8,338.3,59,340.6,60.5C342.3,61.7,342.2,65,340.7,66.1C340.3,66.4,340.7,66.5,341,66.5C340.7,66.5,341,66.5,341.1,66.6C341.4,66.7,341.6,66.9,341.8,67.1C342.5,67.9,342.9,69.3,342.9,70.4C342.9,71.4,342.4,72.4,341.7,73C341.5,73.2,341.2,73.4,340.9,73.6C340.8,73.7,340.4,73.8,340.7,73.7C340.6,73.8,339.8,74.1,340.3,74.2C341.8,74.7,342.9,77,342.3,78.4C341.6,80.3,338.2,80.8,336.5,81.2C334.5,81.6,332.4,82,330.4,82.4C325.3,83.5,320.1,84.7,315,85.9C300.2,89.3,285.5,92.7,270.8,96C267.1,96.8,263.5,97.7,259.8,98.5C258.8,98.7,258.9,99.3,259.9,99C270.3,96.6,280.7,94.2,291,91.8C304.1,88.8,317.2,85.7,330.3,82.8C333.3,82.1,336.4,81.8,339.3,80.8C340.9,80.3,343.7,79.5,344.1,77.5C344.4,76,343.5,74.1,342.1,73.4C342,73.3,344.5,71.7,344.6,69.8C344.7,68.3,344.1,65.9,342.4,65.4C342.2,65.3,343.9,63,343.5,61.4C343,59.2,340.9,58.7,339,58.6C335.5,58.4,332.1,59.4,328.8,60.2C323.7,61.4,318.6,62.5,313.6,63.6C305.5,65.4,297.3,67.1,289.1,68.8C281.4,70.4,273.7,72.1,266,73.7C262,74.5,258.1,75.3,254.1,76.2C254,76.2,254,76.2,253.9,76.2C253.1,76.9,252.3,77.7,253.5,77.4" clip-rule="evenodd" fill="rgb(0,0,0)" fill-rule="evenodd" stroke="none" stroke-width="1"/><path id="eIvSnbEcVtG15" d="M333.6,11.4C333.6,11.4,332.5,33.8,325.6,50L305.8,63.5L292.3,50.8L333.6,11.4Z" clip-rule="evenodd" fill="rgb(157,21,84)" fill-rule="evenodd" stroke="none" stroke-width="1"/><path id="eIvSnbEcVtG16" d="M337.7,81.7C339.6,89.4,341.4,97.1,343.2,104.9C346.1,117.2,349,129.6,351.4,142C353,149.9,353.8,158.1,350.9,165.9C348.3,172.8,343.1,178.4,337.1,182.7C332.6,185.9,327.7,188.4,322.8,190.8C317.7,193.3,312.6,196,307.6,198.7C297.6,204.1,287.6,209.7,277.1,214.2C267.7,218.2,257.6,221.5,247.3,221.5C244.9,221.5,242.5,221.3,240.1,220.9C239.7,220.8,239.1,220.9,238.9,221.2C238.7,221.5,238.6,221.8,239.1,221.8C249,223.4,259,221.6,268.4,218.5C279,214.9,289,209.7,298.9,204.5C304.1,201.7,309.2,198.9,314.4,196.2C319.6,193.4,325.1,191,330.3,188.2C337.9,184.1,345.2,178.8,349.8,171.4C354.7,163.7,355.5,154.5,354,145.6C352,133.7,349.1,121.9,346.4,110.1C344.2,100.6,342.2,91,339.7,81.6C339.7,81.4,339.6,81.3,339.6,81.1C339.3,80.6,337.6,81.1,337.7,81.7" clip-rule="evenodd" fill="rgb(0,0,0)" fill-rule="evenodd" stroke="none" stroke-width="1"/><path id="eIvSnbEcVtG17" d="M308.1,89.5C309.2,96,310.4,102.5,311.5,109C313.3,119.3,315.1,129.7,316.9,140L318.1,146.7C318.1,146.7,307.8,152.2,302.4,154.9C298.2,157,293.9,159,289.6,160.7C285.6,162.4,281.2,164.1,276.8,164.4C275.1,164.5,273.8,164.1,272.3,163.3C270.9,162.5,269.4,162,267.8,161.7C267.6,161.7,266.9,162.6,267.4,162.7C268.6,163,269.7,163.4,270.9,164.1C272.1,164.8,273.3,165.3,274.7,165.4C279.1,165.7,283.7,164,287.8,162.4C296.5,159,305,154.8,313.3,150.5C315.4,149.4,317.6,148.3,319.7,147.1C319.9,147,320.1,146.8,320,146.6C318.9,140.1,317.7,133.6,316.6,127.1C314.8,116.8,313,106.4,311.2,96.1L310,89C309.8,88.5,308,88.9,308.1,89.5" clip-rule="evenodd" fill="rgb(0,0,0)" fill-rule="evenodd" stroke="none" stroke-width="1"/><path id="eIvSnbEcVtG18" d="M184.3,42.9C183,46.2,180.6,49.4,177.8,51.6C176.6,52.6,175.2,53.2,174,54.2C173.4,54.7,172.7,55.4,172.7,56.2C172.7,57.5,174.1,58,174.8,58.9C175.6,60.1,174.1,62,173.6,63C172.8,64.8,172,66.8,172.2,68.8C172.8,73.8,179.4,73.6,182.4,76.3C184.4,78.1,183.7,81.6,183.5,83.9C183.4,85.4,183.3,87,183.1,88.5C183,89.2,184.8,88.9,184.9,88.3C185.1,87.1,185.1,85.9,185.2,84.7C185.3,83.2,185.4,81.7,185.5,80.3C185.5,79.3,185.5,78.2,185.2,77.2C184.6,75.5,183,74.7,181.5,74.1C179.3,73.1,176.4,72.3,174.9,70.4C173.5,68.5,174.1,66,174.9,64C175.5,62.6,176.7,61,176.9,59.4C177.1,58,175.5,57.5,174.9,56.5C173.6,54.6,177.7,53,178.8,52.2C182,49.8,184.8,46.3,186.2,42.6C186.3,42.1,184.6,42.3,184.3,42.9" clip-rule="evenodd" fill="rgb(0,0,0)" fill-rule="evenodd" stroke="none" stroke-width="1"/><path id="eIvSnbEcVtG19" d="M183.7,148.5C178.5,146.1,172.9,141.3,173.4,135.1C173.7,131.5,175,127.4,173.9,123.8C172.7,120,168.5,118.8,165.1,117.8C160.2,116.4,155.2,115.2,150.2,114C147.8,113.4,145.5,112.9,143.1,112.3C142.1,112,141.1,111.8,140.1,111.5C139.7,111.4,139.2,111.2,138.8,111.1C138.3,110.9,138.6,111,138.7,111.1C138.4,110.9,138.3,110.8,138,110.4C137.6,109.7,137.7,108.5,137.9,107.6C138.5,105,140.1,102.6,141.5,100.5C144.8,95.8,152.7,87.8,152.3,87.9C162.9,89.4,183.2,89.5,183,89.3C181.2,92.8,181.1,96.8,183.3,100.2C184.4,101.9,186.1,103.6,188.2,103.6C189.9,103.6,191.5,102.8,192.9,101.8C196.6,99.2,199.5,95.4,202.1,91.8C203.3,90.1,204.4,88.4,205.6,86.7C206.1,85.9,206.9,84.9,207.3,84C207.4,83.7,207.4,83.5,207.2,83.2C206.7,82.2,206.2,81.3,205.7,80.3C203.8,76.4,202.4,72.3,201.3,68.1L200.8,68.8C204.1,67.3,207.3,63.1,205.4,59.4C204.7,58.1,203.2,57.4,201.7,57.3C201.4,57.3,201.1,57.3,201,57.3C200,57,200.1,55.6,200.2,54.8C200.3,54,198.5,54.3,198.4,55C198.2,56.6,198.5,58.4,200.4,58.5C200.6,58.5,200.8,58.5,200.9,58.5C200.4,58.5,200.9,58.5,201,58.5C201.6,58.6,202.1,58.7,202.6,59C204.7,60.3,204.3,63.5,203.1,65.3C202.4,66.4,201.2,67.5,200,68C199.8,68.1,199.4,68.4,199.5,68.7C200.8,74.1,202.9,79.5,205.6,84.3C205.6,84.2,205.6,84,205.6,83.9C203.2,88,200.5,92.1,197.5,95.7C195.6,98,193.4,100.5,190.7,102C189.9,102.5,188.9,102.8,187.9,102.5C186.2,102,184.8,99.8,184.2,98.2C183.1,95.3,183.5,91.6,184.9,88.8C185.2,88.3,184.5,88.2,184.2,88.2C176.7,88.6,169.2,88.3,161.7,87.7C159.3,87.5,156.9,87.3,154.5,87C153.6,86.9,152.2,86.5,151.4,87C150.7,87.5,150.1,88.3,149.5,89C148.8,89.8,148.1,90.5,147.4,91.3C146.2,92.5,145.1,93.8,144,95.1C142.4,97,140.8,99,139.4,101.1C137.9,103.3,136.2,105.9,135.9,108.7C135.8,109.7,135.9,110.9,136.6,111.7C136.8,111.9,137,112,137.2,112.1C137.6,112.3,138.1,112.4,138.6,112.5C139.9,112.9,141.2,113.2,142.5,113.6C148.8,115.2,155.1,116.6,161.4,118.3C164.2,119,167.3,119.7,169.7,121.3C171.6,122.6,172.3,124.5,172.4,126.7C172.5,131.6,170.2,136.7,172.8,141.3C174.7,144.8,178.1,147.3,181.6,149.2C181.8,149.3,182.1,149.5,182.3,149.6C182.9,149.6,184.5,148.8,183.7,148.5" clip-rule="evenodd" fill="rgb(0,0,0)" fill-rule="evenodd" stroke="none" stroke-width="1"/><path id="eIvSnbEcVtG20" d="M212.2,83.4C223,81.8,233.7,80.2,244.4,78.2C247.4,77.7,249.5,77.3,252.4,76.5C252.5,76.7,254.4,81.7,255.3,84.5C256.9,89.4,258.4,94.6,258.5,99.7C258.5,99.9,253,101.4,250,102.5C247.6,103.4,245.3,104.3,243,105.5C241.4,106.4,239.5,107.4,238.4,109C237.4,110.5,237.7,112.3,238.1,113.9C238.9,116.4,240.3,118.6,241.7,120.8C245.6,126.8,250.4,132.2,255.1,137.7C257.6,140.6,260.1,143.5,262.4,146.5C264.2,148.8,266,151.2,267.1,153.9C267.9,155.9,268.3,158,267.8,160.1C267.3,162,266.2,163.6,264.9,165C262.4,167.8,259.7,170.3,256.9,172.7C253,176.1,249.1,179.4,245,182.5C240.8,185.8,236.4,188.9,231.8,191.7C228.3,193.9,224.5,196.1,220.4,197.2C219.9,197.3,219.4,197.5,218.9,197.5C218.7,197.5,208.1,176.9,201.7,166.9C199.2,162.9,196.5,159,193.6,155.3C193.1,154.7,191.4,155.4,192,156.1C201.3,168.1,208.7,181.7,215.6,195.2C216.2,196.3,216.8,197.5,217.3,198.6C217.4,198.8,217.8,198.9,218,198.9C221.7,198.5,225.2,196.8,228.5,195C232.9,192.6,237.2,189.8,241.2,186.8C249.1,181.1,256.8,174.9,263.7,168C266.1,165.6,268.8,162.9,269.5,159.4C270.4,154.5,267.1,149.9,264.3,146.2C259.7,140.1,254.5,134.5,249.6,128.5C247.4,125.8,245.3,123.1,243.3,120.2C241.8,118,240.4,115.7,239.6,113.1C239.1,111.4,239.1,109.8,240.4,108.6C242.1,107.1,244.2,106.1,246.3,105.2C250.2,103.5,254.3,102.2,258.5,101C258.8,100.9,259,100.9,259.3,100.8C259.6,100.7,260,100.5,260,100.1C260,94.7,258.5,89.3,256.9,84.3C255.9,81.3,254.9,78.3,253.7,75.4C253.5,75,253.1,74.9,252.7,75C246.9,76.5,240.9,77.4,235,78.4C228.7,79.5,222.4,80.4,216.1,81.4C214.8,81.6,213.5,81.8,212.2,82C211.4,82.2,211,83.5,212.2,83.4" clip-rule="evenodd" fill="rgb(0,0,0)" fill-rule="evenodd" stroke="none" stroke-width="1"/><path id="eIvSnbEcVtG21" d="M180.8,50C179.8,46,180.2,41.3,181.9,37.5C185.1,30.7,192.8,28.2,199.8,28.2C206.7,28.3,213.9,30.7,218.7,35.8C221.3,38.5,223,41.8,223.9,45.4C224.5,47.9,224.7,50.5,225.2,53C225.7,55.6,226.3,58.1,226.9,60.7C228,64.9,229.4,69.1,231.3,73.1C231.9,74.3,232.5,75.5,233.2,76.6C233.6,77.2,234,77.9,234.6,78.3C235.1,78.6,236.7,77.9,236.2,77.6C234.8,76.7,233.9,74.3,233.2,72.8C231.5,69.1,230.1,65.2,229,61.3C228.3,58.7,227.7,56,227.1,53.4C226.6,50.7,226.3,47.9,225.7,45.2C224.9,41.5,223.1,38.1,220.5,35.3C215.6,30,208.2,27.5,201.1,27.3C194.1,27.1,186,29.1,181.6,35C178.5,39.2,177.6,45.3,178.9,50.4C179.2,51,180.9,50.5,180.8,50" clip-rule="evenodd" fill="rgb(0,0,0)" fill-rule="evenodd" stroke="none" stroke-width="1"/><path id="eIvSnbEcVtG22" d="M248.1,103.8C250.6,106.6,251.8,110.9,252.4,114.5C253.6,121.4,252.1,128.6,254.4,135.4C254.7,136.2,255,137.2,255.6,137.8C255.9,138.1,257.5,137.5,257.3,137.2C257,136.9,256.5,135.9,256.3,135.3C255.4,133,255.1,130.4,254.9,127.9C254.6,123.6,255,119.4,254.3,115.1C253.9,112.2,253.1,109.3,251.8,106.6C251.3,105.5,250.6,104.3,249.8,103.3C249.5,103,248,103.8,248.1,103.8" clip-rule="evenodd" fill="rgb(0,0,0)" fill-rule="evenodd" stroke="none" stroke-width="1"/></g></g><g id="eIvSnbEcVtG23"><path id="eIvSnbEcVtG24" d="M390.8,389L606,389C601.2,365.4,583.1,285.5,555.5,261.5C523,233.2,508.9,262.5,508.9,262.5C502.9,253,495.5,244.9,486.8,241.9C460.5,232.7,461.5,264.6,462.4,274.1C462.4,274.1,452.6,254.2,432.9,261C413.2,267.8,427.7,296.2,427.7,296.2C427.7,296.2,370.2,291.8,374.9,346.9C376.5,365.3,382.9,378.9,390.8,389" clip-rule="evenodd" fill="rgb(255,247,246)" fill-rule="evenodd" stroke="none" stroke-width="1"/><g id="eIvSnbEcVtG25" clip-rule="evenodd" mask="url(#eIvSnbEcVtG27)"><path id="eIvSnbEcVtG26" d="M275,389.9L290,389.9L325.9,389.9L369.3,389.9L406.8,389.9L419.2,389.9C421.2,389.9,423.1,390,425.1,389.9C425.2,389.9,425.3,389.9,425.4,389.9C426,389.9,426.1,389,425.5,388.8C419.2,387.2,413.1,384.3,407.5,381C395.1,373.8,384.5,363.5,378,350.6C373.8,342.2,371.4,332.9,370.8,323.6C370.3,315.8,371.1,307.7,374.6,300.6C379.9,289.8,390.5,283.4,401.8,280.4C406.3,279.2,410.8,278.6,415.4,278.3C417.9,278.1,420.4,278.2,422.9,278.2C423,278.2,423.1,278.2,423.2,278.2C423.6,278.2,423.8,277.7,423.7,277.4C422.4,275,421.4,272.4,420.5,269.8C418.9,265,417.9,259.7,419.1,254.8C420.8,248.2,426.7,245.1,433,244.2C439.4,243.3,445.7,245.2,450.7,249.3C453.3,251.5,455.8,254.2,457.4,257.2C457.6,257.6,458.5,257.5,458.4,256.9C457.7,249.8,457.8,242.1,460.4,235.5C461.8,231.8,464.3,228.5,468.1,226.9C473.1,224.8,479.1,226,483.9,228C492.5,231.5,498.9,239,504,246.4C504.4,247,505.3,246.4,504.9,245.9C500.3,239.1,494.7,232.5,487.3,228.5C482.2,225.7,475.5,223.9,469.7,225.3C460.9,227.5,458,237.1,457.2,245.1C456.8,249,456.9,253,457.3,257C457.6,256.9,458,256.8,458.3,256.7C454,248.5,444.8,242.5,435.5,242.9C429,243.2,421.8,245.7,419,252C416.8,256.9,417.4,262.7,418.8,267.8C419.7,271.3,421,274.8,422.8,278C423,277.7,423.1,277.5,423.3,277.2C417.2,276.8,410.8,277.5,404.8,278.7C393.5,281,382.4,286.4,375.9,296.2C371.9,302.3,370,309.4,369.7,316.7C369.3,326.2,371,336,374.4,344.8C379.8,359.1,390.1,371,402.8,379.3C407.3,382.3,412.1,384.8,417.1,386.9C418.7,387.6,420.4,388.2,422.1,388.8C423,389.1,424,389.6,424.9,389.7C425,389.7,425.2,389.8,425.3,389.8C425.3,389.4,425.4,389.1,425.4,388.7L410.5,388.7L374.6,388.7L331.2,388.7L293.7,388.7L281.3,388.7C279.3,388.7,277.4,388.6,275.4,388.7C275.3,388.7,275.2,388.7,275.1,388.7C274.3,388.9,274.3,389.9,275,389.9" fill="rgb(0,0,0)" fill-rule="evenodd" stroke="none" stroke-width="1"/><mask id="eIvSnbEcVtG27" mask-type="luminance"><g id="eIvSnbEcVtG28"><polygon id="eIvSnbEcVtG29" points="274.5,224.8 504.9,224.8 504.9,390 274.5,390" clip-rule="evenodd" fill="rgb(255,255,255)" fill-rule="evenodd" stroke="none" stroke-width="1"/></g></mask></g></g><g id="eIvSnbEcVtG30"><path id="eIvSnbEcVtG31" d="M223.6,199C223.5,203.5,223.3,208,223.2,212.5C222.9,223.5,222.6,234.5,222.4,245.4C222.1,259.4,221.8,273.5,221.7,287.5C221.5,300.9,221.4,314.2,221.5,327.6C221.6,336.9,221.6,346.2,222.4,355.5C222.4,355.9,222.5,356.4,222.5,356.8C222.5,356.7,222.5,356.8,221.8,356.8C221.5,356.8,220.2,357,220.4,357.4C221,359.3,221.6,361.2,222.3,363.1C222.3,363.2,222.5,363.2,222.6,363.3C231.4,365,240.3,366.6,249.1,368.3C250.4,368.5,251.6,368.8,252.9,369C253.3,369.1,254.3,368.9,254.3,368.4C254.5,366,254.6,363.7,254.8,361.3C254.8,361.2,254.5,361.1,254.5,361.1C251.2,360.7,247.8,360.2,244.4,359.8C244,359.7,242.4,360.5,243.3,360.6C246.5,361,249.8,361.4,253,361.9C253.1,361.9,252.7,365.9,252.6,368C252.6,368.3,236.3,364.9,227.5,363.3C226.3,363.1,225.2,362.9,224,362.6C223.9,362.6,223,359.5,222.4,357.8C222.4,357.8,222.6,357.8,222.9,357.8C223.2,357.8,224.4,357.7,224.3,357.2C223.3,348.7,223.4,340.1,223.3,331.5C223.1,318.4,223.2,305.4,223.4,292.3C223.6,278.1,223.8,264,224.1,249.8C224.3,238.3,224.6,226.7,224.9,215.2C225,211.5,225.1,207.7,225.2,204C225.2,202.9,225.3,201.7,225.3,200.6C225.3,200.1,225.5,199.3,225.4,198.8C225.4,198.7,225.4,198.6,225.4,198.6C225.4,198.1,223.6,198.4,223.6,199" clip-rule="evenodd" fill="rgb(0,0,0)" fill-rule="evenodd" stroke="none" stroke-width="1"/><path id="eIvSnbEcVtG32" d="M252.9,356.1C253.2,352.6,253.6,349.1,253.9,345.5C254.8,336.7,255.6,327.9,256.5,319.1C257.7,307.8,258.8,296.4,260.1,285.1C261.3,273.8,262.6,262.5,263.9,251.2C264.9,242.6,266,234,267.3,225.5C267.4,224.8,267.5,224,267.7,223.3C267.8,222.5,266.1,222.7,265.9,223.5C264.5,231.5,263.6,239.6,262.6,247.7C261.2,258.8,260,269.9,258.8,281.1C257.6,292.6,256.4,304,255.2,315.5C254.3,324.7,253.3,334,252.4,343.3C252.1,346.2,251.8,349.2,251.5,352.1C251.4,353.4,251,354.9,251.1,356.2C251.1,356.3,251.1,356.3,251.1,356.4C251.1,357.1,252.9,356.9,252.9,356.1" clip-rule="evenodd" fill="rgb(0,0,0)" fill-rule="evenodd" stroke="none" stroke-width="1"/><path id="eIvSnbEcVtG33" d="M252.8,387.9L195.8,387.7C195.8,387.7,207.7,375.3,224.2,370.1L252.1,372.5L252.8,387.9Z" clip-rule="evenodd" fill="rgb(157,21,84)" fill-rule="evenodd" stroke="none" stroke-width="1"/></g></g><script><![CDATA[!function(t,n){"object"==typeof exports&&"undefined"!=typeof module?module.exports=n():"function"==typeof define&&define.amd?define(n):((t="undefined"!=typeof globalThis?globalThis:t||self).__SVGATOR_PLAYER__=t.__SVGATOR_PLAYER__||{},t.__SVGATOR_PLAYER__["91c80d77"]=n())}(this,(function(){"use strict";function t(t,n){var e=Object.keys(t);if(Object.getOwnPropertySymbols){var r=Object.getOwnPropertySymbols(t);n&&(r=r.filter((function(n){return Object.getOwnPropertyDescriptor(t,n).enumerable}))),e.push.apply(e,r)}return e}function n(t){return(n="function"==typeof Symbol&&"symbol"==typeof Symbol.iterator?function(t){return typeof t}:function(t){return t&&"function"==typeof Symbol&&t.constructor===Symbol&&t!==Symbol.prototype?"symbol":typeof t})(t)}function e(t,n){if(!(t instanceof n))throw new TypeError("Cannot call a class as a function")}function r(t,n){for(var e=0;e<n.length;e++){var r=n[e];r.enumerable=r.enumerable||!1,r.configurable=!0,"value"in r&&(r.writable=!0),Object.defineProperty(t,r.key,r)}}function i(t,n,e){return n&&r(t.prototype,n),e&&r(t,e),t}function u(t,n,e){return n in t?Object.defineProperty(t,n,{value:e,enumerable:!0,configurable:!0,writable:!0}):t[n]=e,t}function o(t){return(o=Object.setPrototypeOf?Object.getPrototypeOf:function(t){return t.__proto__||Object.getPrototypeOf(t)})(t)}function a(t,n){return(a=Object.setPrototypeOf||function(t,n){return t.__proto__=n,t})(t,n)}function l(t,n){if(n&&("object"==typeof n||"function"==typeof n))return n;if(void 0!==n)throw new TypeError("Derived constructors may only return object or undefined");return function(t){if(void 0===t)throw new ReferenceError("this hasn't been initialised - super() hasn't been called");return t}(t)}function s(t){var n=function(){if("undefined"==typeof Reflect||!Reflect.construct)return!1;if(Reflect.construct.sham)return!1;if("function"==typeof Proxy)return!0;try{return Boolean.prototype.valueOf.call(Reflect.construct(Boolean,[],(function(){}))),!0}catch(t){return!1}}();return function(){var e,r=o(t);if(n){var i=o(this).constructor;e=Reflect.construct(r,arguments,i)}else e=r.apply(this,arguments);return l(this,e)}}function f(t,n,e){return(f="undefined"!=typeof Reflect&&Reflect.get?Reflect.get:function(t,n,e){var r=function(t,n){for(;!Object.prototype.hasOwnProperty.call(t,n)&&null!==(t=o(t)););return t}(t,n);if(r){var i=Object.getOwnPropertyDescriptor(r,n);return i.get?i.get.call(e):i.value}})(t,n,e||t)}var c=h(Math.pow(10,-6));function h(t){var n=arguments.length>1&&void 0!==arguments[1]?arguments[1]:6;if(Number.isInteger(t))return t;var e=Math.pow(10,n);return Math.round((+t+Number.EPSILON)*e)/e}function v(t,n){var e=arguments.length>2&&void 0!==arguments[2]?arguments[2]:c;return Math.abs(t-n)<e}var d=Math.PI/180;function y(t){return t}function g(t,n,e){var r=1-e;return 3*e*r*(t*r+n*e)+e*e*e}function p(){var t=arguments.length>0&&void 0!==arguments[0]?arguments[0]:0,n=arguments.length>1&&void 0!==arguments[1]?arguments[1]:0,e=arguments.length>2&&void 0!==arguments[2]?arguments[2]:1,r=arguments.length>3&&void 0!==arguments[3]?arguments[3]:1;return t<0||t>1||e<0||e>1?null:v(t,n)&&v(e,r)?y:function(i){if(i<=0)return t>0?i*n/t:0===n&&e>0?i*r/e:0;if(i>=1)return e<1?1+(i-1)*(r-1)/(e-1):1===e&&t<1?1+(i-1)*(n-1)/(t-1):1;for(var u,o=0,a=1;o<a;){var l=g(t,e,u=(o+a)/2);if(v(i,l))break;l<i?o=u:a=u}return g(n,r,u)}}function b(){return 1}function m(t){return 1===t?1:0}function w(){var t=arguments.length>0&&void 0!==arguments[0]?arguments[0]:1,n=arguments.length>1&&void 0!==arguments[1]?arguments[1]:0;if(1===t){if(0===n)return m;if(1===n)return b}var e=1/t;return function(t){return t>=1?1:(t+=n*e)-t%e}}function x(t,n,e){return t>=.5?e:n}function A(t,n,e){return 0===t||n===e?n:t*(e-n)+n}function k(t,n,e){var r=A(t,n,e);return r<=0?0:r}function _(t,n,e){return 0===t?n:1===t?e:{x:A(t,n.x,e.x),y:A(t,n.y,e.y)}}function S(t,n,e){return 0===t?n:1===t?e:{x:k(t,n.x,e.x),y:k(t,n.y,e.y)}}function O(t,n,e){var r=function(t,n,e){return Math.round(A(t,n,e))}(t,n,e);return r<=0?0:r>=255?255:r}function M(t,n,e){return 0===t?n:1===t?e:{r:O(t,n.r,e.r),g:O(t,n.g,e.g),b:O(t,n.b,e.b),a:A(t,null==n.a?1:n.a,null==e.a?1:e.a)}}function E(t,n,e){if(0===t)return n;if(1===t)return e;var r=n.length;if(r!==e.length)return x(t,n,e);for(var i=[],u=0;u<r;u++)i.push(M(t,n[u],e[u]));return i}function P(t,n,e){var r=n.length;if(r!==e.length)return x(t,n,e);for(var i=new Array(r),u=0;u<r;u++)i[u]=A(t,n[u],e[u]);return i}function j(t,n){for(var e=[],r=0;r<t;r++)e.push(n);return e}function B(t,n){if(--n<=0)return t;var e=(t=Object.assign([],t)).length;do{for(var r=0;r<e;r++)t.push(t[r])}while(--n>0);return t}var I,R=function(){function t(n){e(this,t),this.list=n,this.length=n.length}return i(t,[{key:"setAttribute",value:function(t,n){for(var e=this.list,r=0;r<this.length;r++)e[r].setAttribute(t,n)}},{key:"removeAttribute",value:function(t){for(var n=this.list,e=0;e<this.length;e++)n[e].removeAttribute(t)}},{key:"style",value:function(t,n){for(var e=this.list,r=0;r<this.length;r++)e[r].style[t]=n}}]),t}(),T=/-./g,N=function(t,n){return n.toUpperCase()};function C(t){return"function"==typeof t?t:x}function F(t){return t?"function"==typeof t?t:Array.isArray(t)?function(t){var n=arguments.length>1&&void 0!==arguments[1]?arguments[1]:y;if(!Array.isArray(t))return n;switch(t.length){case 1:return w(t[0])||n;case 2:return w(t[0],t[1])||n;case 4:return p(t[0],t[1],t[2],t[3])||n}return n}(t,null):function(t,n){var e=arguments.length>2&&void 0!==arguments[2]?arguments[2]:y;switch(t){case"linear":return y;case"steps":return w(n.steps||1,n.jump||0)||e;case"bezier":case"cubic-bezier":return p(n.x1||0,n.y1||0,n.x2||0,n.y2||0)||e}return e}(t.type,t.value,null):null}function L(t,n,e){var r=arguments.length>3&&void 0!==arguments[3]&&arguments[3],i=n.length-1;if(t<=n[0].t)return r?[0,0,n[0].v]:n[0].v;if(t>=n[i].t)return r?[i,1,n[i].v]:n[i].v;var u,o=n[0],a=null;for(u=1;u<=i;u++){if(!(t>n[u].t)){a=n[u];break}o=n[u]}return null==a?r?[i,1,n[i].v]:n[i].v:o.t===a.t?r?[u,1,a.v]:a.v:(t=(t-o.t)/(a.t-o.t),o.e&&(t=o.e(t)),r?[u,t,e(t,o.v,a.v)]:e(t,o.v,a.v))}function V(t,n){var e=arguments.length>2&&void 0!==arguments[2]?arguments[2]:null;return t&&t.length?"function"!=typeof n?null:("function"!=typeof e&&(e=null),function(r){var i=L(r,t,n);return null!=i&&e&&(i=e(i)),i}):null}function q(t,n){return t.t-n.t}function D(t,e,r,i,u){var o,a="@"===r[0],l="#"===r[0],s=I[r],f=x;switch(a?(o=r.substr(1),r=o.replace(T,N)):l&&(r=r.substr(1)),n(s)){case"function":if(f=s(i,u,L,F,r,a,e,t),l)return f;break;case"string":f=V(i,C(s));break;case"object":if((f=V(i,C(s.i),s.f))&&"function"==typeof s.u)return s.u(e,f,r,a,t)}return f?function(t,n,e){if(arguments.length>3&&void 0!==arguments[3]&&arguments[3])return t instanceof R?function(r){return t.style(n,e(r))}:function(r){return t.style[n]=e(r)};if(Array.isArray(n)){var r=n.length;return function(i){var u=e(i);if(null==u)for(var o=0;o<r;o++)t[o].removeAttribute(n);else for(var a=0;a<r;a++)t[a].setAttribute(n,u)}}return function(r){var i=e(r);null==i?t.removeAttribute(n):t.setAttribute(n,i)}}(e,r,f,a):null}function z(t,e,r,i){if(!i||"object"!==n(i))return null;var u=null,o=null;return Array.isArray(i)?o=function(t){if(!t||!t.length)return null;for(var n=0;n<t.length;n++)t[n].e&&(t[n].e=F(t[n].e));return t.sort(q)}(i):(o=i.keys,u=i.data||null),o?D(t,e,r,o,u):null}function Y(t,n,e){if(!e)return null;var r=[];for(var i in e)if(e.hasOwnProperty(i)){var u=z(t,n,i,e[i]);u&&r.push(u)}return r.length?r:null}function G(t,n){if(!n.duration||n.duration<0)return null;var e=function(t,n){if(!n)return null;var e=[];if(Array.isArray(n))for(var r=n.length,i=0;i<r;i++){var u=n[i];if(2===u.length){var o=null;if("string"==typeof u[0])o=t.getElementById(u[0]);else if(Array.isArray(u[0])){o=[];for(var a=0;a<u[0].length;a++)if("string"==typeof u[0][a]){var l=t.getElementById(u[0][a]);l&&o.push(l)}o=o.length?1===o.length?o[0]:new R(o):null}if(o){var s=Y(t,o,u[1]);s&&(e=e.concat(s))}}}else for(var f in n)if(n.hasOwnProperty(f)){var c=t.getElementById(f);if(c){var h=Y(t,c,n[f]);h&&(e=e.concat(h))}}return e.length?e:null}(t,n.elements);return e?function(t,n){var e=arguments.length>2&&void 0!==arguments[2]?arguments[2]:1/0,r=arguments.length>3&&void 0!==arguments[3]?arguments[3]:1,i=arguments.length>4&&void 0!==arguments[4]&&arguments[4],u=arguments.length>5&&void 0!==arguments[5]?arguments[5]:1,o=t.length,a=r>0?n:0;i&&e%2==0&&(a=n-a);var l=null;return function(s,f){var c=s%n,h=1+(s-c)/n;f*=r,i&&h%2==0&&(f=-f);var v=!1;if(h>e)c=a,v=!0,-1===u&&(c=r>0?0:n);else if(f<0&&(c=n-c),c===l)return!1;l=c;for(var d=0;d<o;d++)t[d](c);return v}}(e,n.duration,n.iterations||1/0,n.direction||1,!!n.alternate,n.fill||1):null}function U(t){return+("0x"+(t.replace(/[^0-9a-fA-F]+/g,"")||27))}function W(t,n,e){return!t||!e||n>t.length?t:t.substring(0,n)+W(t.substring(n+1),e,e)}function H(t){var n=arguments.length>1&&void 0!==arguments[1]?arguments[1]:27;return!t||t%n?t%n:H(t/n,n)}function Q(t,n,e){if(t&&t.length){var r=U(e),i=U(n),u=H(r)+5,o=W(t,H(r,5),u);return o=o.replace(/\x7c$/g,"==").replace(/\x2f$/g,"="),o=function(t,n,e){var r=+("0x"+t.substring(0,4));t=t.substring(4);for(var i=n%r+e%27,u=[],o=0;o<t.length;o+=2)if("|"!==t[o]){var a=+("0x"+t[o]+t[o+1])-i;u.push(a)}else{var l=+("0x"+t.substring(o+1,o+1+4))-i;o+=3,u.push(l)}return String.fromCharCode.apply(String,u)}(o=(o=atob(o)).replace(/[\x41-\x5A]/g,""),i,r),o=JSON.parse(o)}}Number.isInteger||(Number.isInteger=function(t){return"number"==typeof t&&isFinite(t)&&Math.floor(t)===t}),Number.EPSILON||(Number.EPSILON=2220446049250313e-31);var X=function(){function n(t,r){var i=arguments.length>2&&void 0!==arguments[2]?arguments[2]:{};e(this,n),this._id=0,this._running=!1,this._rollingBack=!1,this._animations=t,this.duration=r.duration,this.alternate=r.alternate,this.fill=r.fill,this.iterations=r.iterations,this.direction=i.direction||1,this.speed=i.speed||1,this.fps=i.fps||100,this.offset=i.offset||0,this.rollbackStartOffset=0}return i(n,[{key:"_rollback",value:function(){var t=this,n=1/0,e=null;this.rollbackStartOffset=this.offset,this._rollingBack||(this._rollingBack=!0,this._running=!0);this._id=window.requestAnimationFrame((function r(i){if(t._rollingBack){null==e&&(e=i);var u=i-e,o=t.rollbackStartOffset-u,a=Math.round(o*t.speed);if(a>t.duration&&n!=1/0){var l=!!t.alternate&&a/t.duration%2>1,s=a%t.duration;a=(s+=l?t.duration:0)||t.duration}var f=t.fps?1e3/t.fps:0,c=Math.max(0,a);if(c<n-f){t.offset=c,n=c;for(var h=t._animations,v=h.length,d=0;d<v;d++)h[d](c,t.direction)}var y=!1;if(t.iterations>0&&-1===t.fill){var g=t.iterations*t.duration,p=g==a;a=p?0:a,t.offset=p?0:t.offset,y=a>g}a>0&&t.offset>=a&&!y?t._id=window.requestAnimationFrame(r):t.stop()}}))}},{key:"_start",value:function(){var t=this,n=arguments.length>0&&void 0!==arguments[0]?arguments[0]:0,e=-1/0,r=null,i={},u=function u(o){t._running=!0,null==r&&(r=o);var a=Math.round((o-r+n)*t.speed),l=t.fps?1e3/t.fps:0;if(a>e+l&&!t._rollingBack){t.offset=a,e=a;for(var s=t._animations,f=s.length,c=0,h=0;h<f;h++)i[h]?c++:(i[h]=s[h](a,t.direction),i[h]&&c++);if(c===f)return void t._stop()}t._id=window.requestAnimationFrame(u)};this._id=window.requestAnimationFrame(u)}},{key:"_stop",value:function(){this._id&&window.cancelAnimationFrame(this._id),this._running=!1,this._rollingBack=!1}},{key:"play",value:function(){!this._rollingBack&&this._running||(this._rollingBack=!1,this.rollbackStartOffset>this.duration&&(this.offset=this.rollbackStartOffset-(this.rollbackStartOffset-this.offset)%this.duration,this.rollbackStartOffset=0),this._start(this.offset))}},{key:"stop",value:function(){this._stop(),this.offset=0,this.rollbackStartOffset=0;var t=this.direction,n=this._animations;window.requestAnimationFrame((function(){for(var e=0;e<n.length;e++)n[e](0,t)}))}},{key:"reachedToEnd",value:function(){return this.iterations>0&&this.offset>=this.iterations*this.duration}},{key:"restart",value:function(){this._stop(),this.offset=0,this._start()}},{key:"pause",value:function(){this._stop()}},{key:"reverse",value:function(){this.direction=-this.direction}}],[{key:"build",value:function(e,r){return delete e.animationSettings,e.options=Q(e.options,e.root,"91c80d77"),e.animations.map((function(n){var r=Q(n.s,e.root,"91c80d77");for(var i in delete n.s,e.animationSettings||(e.animationSettings=function(n){for(var e=1;e<arguments.length;e++){var r=null!=arguments[e]?arguments[e]:{};e%2?t(Object(r),!0).forEach((function(t){u(n,t,r[t])})):Object.getOwnPropertyDescriptors?Object.defineProperties(n,Object.getOwnPropertyDescriptors(r)):t(Object(r)).forEach((function(t){Object.defineProperty(n,t,Object.getOwnPropertyDescriptor(r,t))}))}return n}({},r)),r)r.hasOwnProperty(i)&&(n[i]=r[i])})),(e=function(t,n){if(I=n,!t||!t.root||!Array.isArray(t.animations))return null;for(var e=document.getElementsByTagName("svg"),r=!1,i=0;i<e.length;i++)if(e[i].id===t.root&&!e[i].svgatorAnimation){(r=e[i]).svgatorAnimation=!0;break}if(!r)return null;var u=t.animations.map((function(t){return G(r,t)})).filter((function(t){return!!t}));return u.length?{element:r,animations:u,animationSettings:t.animationSettings,options:t.options||void 0}:null}(e,r))?{el:e.element,options:e.options||{},player:new n(e.animations,e.animationSettings,e.options)}:null}},{key:"push",value:function(t){return this.build(t)}},{key:"init",value:function(){var t=this,n=window.__SVGATOR_PLAYER__&&window.__SVGATOR_PLAYER__["91c80d77"];Array.isArray(n)&&n.splice(0).forEach((function(n){return t.build(n)}))}}]),n}();!function(){for(var t=0,n=["ms","moz","webkit","o"],e=0;e<n.length&&!window.requestAnimationFrame;++e)window.requestAnimationFrame=window[n[e]+"RequestAnimationFrame"],window.cancelAnimationFrame=window[n[e]+"CancelAnimationFrame"]||window[n[e]+"CancelRequestAnimationFrame"];window.requestAnimationFrame||(window.requestAnimationFrame=function(n){var e=Date.now(),r=Math.max(0,16-(e-t)),i=window.setTimeout((function(){n(e+r)}),r);return t=e+r,i},window.cancelAnimationFrame=window.clearTimeout)}();var $=function(t,n){var e=!1,r=null;return function(i){e&&clearTimeout(e),e=setTimeout((function(){return function(){for(var i=0,u=window.innerHeight,o=0,a=window.innerWidth,l=t.parentNode;l instanceof Element;){var s=window.getComputedStyle(l);if("visible"!==s.overflowY||"visible"!==s.overflowX){var f=l.getBoundingClientRect();"visible"!==s.overflowY&&(i=Math.max(i,f.top),u=Math.min(u,f.bottom)),"visible"!==s.overflowX&&(o=Math.max(o,f.left),a=Math.min(a,f.right))}if(l===l.parentNode)break;l=l.parentNode}e=!1;var c=t.getBoundingClientRect(),h=Math.min(c.height,Math.max(0,i-c.top)),v=Math.min(c.height,Math.max(0,c.bottom-u)),d=Math.min(c.width,Math.max(0,o-c.left)),y=Math.min(c.width,Math.max(0,c.right-a)),g=(c.height-h-v)/c.height,p=(c.width-d-y)/c.width,b=Math.round(g*p*100);null!==r&&r===b||(r=b,n(b))}()}),100)}},J=function(){function t(n,r,i){e(this,t),r=Math.max(1,r||1),r=Math.min(r,100),this.el=n,this.onTresholdChange=i&&i.call?i:function(){},this.tresholdPercent=r||1,this.currentVisibility=null,this.visibilityCalculator=$(n,this.onVisibilityUpdate.bind(this)),this.bindScrollWatchers(),this.visibilityCalculator()}return i(t,[{key:"bindScrollWatchers",value:function(){for(var t=this.el.parentNode;t&&(t.addEventListener("scroll",this.visibilityCalculator),t!==t.parentNode&&t!==document);)t=t.parentNode}},{key:"onVisibilityUpdate",value:function(t){var n=this.currentVisibility>=this.tresholdPercent,e=t>=this.tresholdPercent;if(null===this.currentVisibility||n!==e)return this.currentVisibility=t,void this.onTresholdChange(e);this.currentVisibility=t}}]),t}();function Z(t){return h(t)+""}function K(t){var n=arguments.length>1&&void 0!==arguments[1]?arguments[1]:" ";return t&&t.length?t.map(Z).join(n):""}function tt(t){return Z(t.x)+","+Z(t.y)}function nt(t){return t?null==t.a||t.a>=1?"rgb("+t.r+","+t.g+","+t.b+")":"rgba("+t.r+","+t.g+","+t.b+","+t.a+")":"transparent"}var et={f:null,i:S,u:function(t,n){return function(e){var r=n(e);t.setAttribute("rx",Z(r.x)),t.setAttribute("ry",Z(r.y))}}},rt={f:null,i:function(t,n,e){return 0===t?n:1===t?e:{width:k(t,n.width,e.width),height:k(t,n.height,e.height)}},u:function(t,n){return function(e){var r=n(e);t.setAttribute("width",Z(r.width)),t.setAttribute("height",Z(r.height))}}},it=Math.sin,ut=Math.cos,ot=Math.acos,at=Math.asin,lt=Math.tan,st=Math.atan2,ft=Math.PI/180,ct=180/Math.PI,ht=Math.sqrt,vt=function(){function t(){var n=arguments.length>0&&void 0!==arguments[0]?arguments[0]:1,r=arguments.length>1&&void 0!==arguments[1]?arguments[1]:0,i=arguments.length>2&&void 0!==arguments[2]?arguments[2]:0,u=arguments.length>3&&void 0!==arguments[3]?arguments[3]:1,o=arguments.length>4&&void 0!==arguments[4]?arguments[4]:0,a=arguments.length>5&&void 0!==arguments[5]?arguments[5]:0;e(this,t),this.m=[n,r,i,u,o,a],this.i=null,this.w=null,this.s=null}return i(t,[{key:"determinant",get:function(){var t=this.m;return t[0]*t[3]-t[1]*t[2]}},{key:"isIdentity",get:function(){if(null===this.i){var t=this.m;this.i=1===t[0]&&0===t[1]&&0===t[2]&&1===t[3]&&0===t[4]&&0===t[5]}return this.i}},{key:"point",value:function(t,n){var e=this.m;return{x:e[0]*t+e[2]*n+e[4],y:e[1]*t+e[3]*n+e[5]}}},{key:"translateSelf",value:function(){var t=arguments.length>0&&void 0!==arguments[0]?arguments[0]:0,n=arguments.length>1&&void 0!==arguments[1]?arguments[1]:0;if(!t&&!n)return this;var e=this.m;return e[4]+=e[0]*t+e[2]*n,e[5]+=e[1]*t+e[3]*n,this.w=this.s=this.i=null,this}},{key:"rotateSelf",value:function(){var t=arguments.length>0&&void 0!==arguments[0]?arguments[0]:0;if(t%=360){var n=it(t*=ft),e=ut(t),r=this.m,i=r[0],u=r[1];r[0]=i*e+r[2]*n,r[1]=u*e+r[3]*n,r[2]=r[2]*e-i*n,r[3]=r[3]*e-u*n,this.w=this.s=this.i=null}return this}},{key:"scaleSelf",value:function(){var t=arguments.length>0&&void 0!==arguments[0]?arguments[0]:1,n=arguments.length>1&&void 0!==arguments[1]?arguments[1]:1;if(1!==t||1!==n){var e=this.m;e[0]*=t,e[1]*=t,e[2]*=n,e[3]*=n,this.w=this.s=this.i=null}return this}},{key:"skewSelf",value:function(t,n){if(n%=360,(t%=360)||n){var e=this.m,r=e[0],i=e[1],u=e[2],o=e[3];t&&(t=lt(t*ft),e[2]+=r*t,e[3]+=i*t),n&&(n=lt(n*ft),e[0]+=u*n,e[1]+=o*n),this.w=this.s=this.i=null}return this}},{key:"resetSelf",value:function(){var t=arguments.length>0&&void 0!==arguments[0]?arguments[0]:1,n=arguments.length>1&&void 0!==arguments[1]?arguments[1]:0,e=arguments.length>2&&void 0!==arguments[2]?arguments[2]:0,r=arguments.length>3&&void 0!==arguments[3]?arguments[3]:1,i=arguments.length>4&&void 0!==arguments[4]?arguments[4]:0,u=arguments.length>5&&void 0!==arguments[5]?arguments[5]:0,o=this.m;return o[0]=t,o[1]=n,o[2]=e,o[3]=r,o[4]=i,o[5]=u,this.w=this.s=this.i=null,this}},{key:"recomposeSelf",value:function(){var t=arguments.length>0&&void 0!==arguments[0]?arguments[0]:null,n=arguments.length>1&&void 0!==arguments[1]?arguments[1]:null,e=arguments.length>2&&void 0!==arguments[2]?arguments[2]:null,r=arguments.length>3&&void 0!==arguments[3]?arguments[3]:null,i=arguments.length>4&&void 0!==arguments[4]?arguments[4]:null;return this.isIdentity||this.resetSelf(),t&&(t.x||t.y)&&this.translateSelf(t.x,t.y),n&&this.rotateSelf(n),e&&(e.x&&this.skewSelf(e.x,0),e.y&&this.skewSelf(0,e.y)),!r||1===r.x&&1===r.y||this.scaleSelf(r.x,r.y),i&&(i.x||i.y)&&this.translateSelf(i.x,i.y),this}},{key:"decompose",value:function(){var t=arguments.length>0&&void 0!==arguments[0]?arguments[0]:0,n=arguments.length>1&&void 0!==arguments[1]?arguments[1]:0,e=this.m,r=e[0]*e[0]+e[1]*e[1],i=[[e[0],e[1]],[e[2],e[3]]],u=ht(r);if(0===u)return{origin:{x:h(e[4]),y:h(e[5])},translate:{x:h(t),y:h(n)},scale:{x:0,y:0},skew:{x:0,y:0},rotate:0};i[0][0]/=u,i[0][1]/=u;var o=e[0]*e[3]-e[1]*e[2]<0;o&&(u=-u);var a=i[0][0]*i[1][0]+i[0][1]*i[1][1];i[1][0]-=i[0][0]*a,i[1][1]-=i[0][1]*a;var l=ht(i[1][0]*i[1][0]+i[1][1]*i[1][1]);if(0===l)return{origin:{x:h(e[4]),y:h(e[5])},translate:{x:h(t),y:h(n)},scale:{x:h(u),y:0},skew:{x:0,y:0},rotate:0};i[1][0]/=l,i[1][1]/=l,a/=l;var s=0;return i[1][1]<0?(s=ot(i[1][1])*ct,i[0][1]<0&&(s=360-s)):s=at(i[0][1])*ct,o&&(s=-s),a=st(a,ht(i[0][0]*i[0][0]+i[0][1]*i[0][1]))*ct,o&&(a=-a),{origin:{x:h(e[4]),y:h(e[5])},translate:{x:h(t),y:h(n)},scale:{x:h(u),y:h(l)},skew:{x:h(a),y:0},rotate:h(s)}}},{key:"toString",value:function(){return null===this.s&&(this.s="matrix("+this.m.map((function(t){return h(t)})).join(" ")+")"),this.s}}]),t}();Object.freeze({M:2,L:2,Z:0,H:1,V:1,C:6,Q:4,T:2,S:4,A:7});var dt={},yt=null;function gt(t){var e=function(){if(yt)return yt;if("object"!==("undefined"==typeof document?"undefined":n(document))||!document.createElementNS)return{};var t=document.createElementNS("http://www.w3.org/2000/svg","svg");return t&&t.style?(t.style.position="absolute",t.style.opacity="0.01",t.style.zIndex="-9999",t.style.left="-9999px",t.style.width="1px",t.style.height="1px",yt={svg:t}):{}}().svg;if(!e)return function(t){return null};var r=document.createElementNS(e.namespaceURI,"path");r.setAttributeNS(null,"d",t),r.setAttributeNS(null,"fill","none"),r.setAttributeNS(null,"stroke","none"),e.appendChild(r);var i=r.getTotalLength();return function(t){var n=r.getPointAtLength(i*t);return{x:n.x,y:n.y}}}function pt(t){return dt[t]?dt[t]:dt[t]=gt(t)}function bt(t,n,e,r){if(!t||!r)return!1;var i=["M",t.x,t.y];if(n&&e&&(i.push("C"),i.push(n.x),i.push(n.y),i.push(e.x),i.push(e.y)),n?!e:e){var u=n||e;i.push("Q"),i.push(u.x),i.push(u.y)}return n||e||i.push("L"),i.push(r.x),i.push(r.y),i.join(" ")}function mt(t,n,e,r){var i=arguments.length>4&&void 0!==arguments[4]?arguments[4]:1,u=bt(t,n,e,r),o=pt(u);try{return o(i)}catch(t){return null}}function wt(t,n,e,r){var i=1-r;return i*i*t+2*i*r*n+r*r*e}function xt(t,n,e,r){return 2*(1-r)*(n-t)+2*r*(e-n)}function At(t,n,e,r){var i=arguments.length>4&&void 0!==arguments[4]&&arguments[4],u=mt(t,n,null,e,r);return u||(u={x:wt(t.x,n.x,e.x,r),y:wt(t.y,n.y,e.y,r)}),i&&(u.a=kt(t,n,e,r)),u}function kt(t,n,e,r){return Math.atan2(xt(t.y,n.y,e.y,r),xt(t.x,n.x,e.x,r))}function _t(t,n,e,r,i){var u=i*i;return i*u*(r-t+3*(n-e))+3*u*(t+e-2*n)+3*i*(n-t)+t}function St(t,n,e,r,i){var u=1-i;return 3*(u*u*(n-t)+2*u*i*(e-n)+i*i*(r-e))}function Ot(t,n,e,r,i){var u=arguments.length>5&&void 0!==arguments[5]&&arguments[5],o=mt(t,n,e,r,i);return o||(o={x:_t(t.x,n.x,e.x,r.x,i),y:_t(t.y,n.y,e.y,r.y,i)}),u&&(o.a=Mt(t,n,e,r,i)),o}function Mt(t,n,e,r,i){return Math.atan2(St(t.y,n.y,e.y,r.y,i),St(t.x,n.x,e.x,r.x,i))}function Et(t,n,e){return t+(n-t)*e}function Pt(t,n,e){var r=arguments.length>3&&void 0!==arguments[3]&&arguments[3],i={x:Et(t.x,n.x,e),y:Et(t.y,n.y,e)};return r&&(i.a=jt(t,n)),i}function jt(t,n){return Math.atan2(n.y-t.y,n.x-t.x)}function Bt(t,n,e){var r=arguments.length>3&&void 0!==arguments[3]&&arguments[3];if(Rt(n)){if(Tt(e))return At(n,e.start,e,t,r)}else if(Rt(e)){if(n.end)return At(n,n.end,e,t,r)}else{if(n.end)return e.start?Ot(n,n.end,e.start,e,t,r):At(n,n.end,e,t,r);if(e.start)return At(n,e.start,e,t,r)}return Pt(n,e,t,r)}function It(t,n,e){var r=Bt(t,n,e,!0);return r.a=function(t){return arguments.length>1&&void 0!==arguments[1]&&arguments[1]?t+Math.PI:t}(r.a)/d,r}function Rt(t){return!t.type||"corner"===t.type}function Tt(t){return null!=t.start&&!Rt(t)}var Nt=new vt;var Ct={f:function(t){return t?t.join(" "):""},i:function(t,e,r){if(0===t)return e;if(1===t)return r;var i=e.length;if(i!==r.length)return x(t,e,r);for(var u,o=new Array(i),a=0;a<i;a++){if((u=n(e[a]))!==n(r[a]))return x(t,e,r);if("number"===u)o[a]=A(t,e[a],r[a]);else{if(e[a]!==r[a])return x(t,e,r);o[a]=e[a]}}return o}},Ft={f:null,i:P,u:function(t,n){return function(e){var r=n(e);t.setAttribute("x1",Z(r[0])),t.setAttribute("y1",Z(r[1])),t.setAttribute("x2",Z(r[2])),t.setAttribute("y2",Z(r[3]))}}},Lt={f:Z,i:A},Vt={f:Z,i:function(t,n,e){var r=A(t,n,e);return r<=0?0:r>=1?1:r}},qt={f:function(t){var n=arguments.length>1&&void 0!==arguments[1]?arguments[1]:" ";return t&&t.length>0&&(t=t.map((function(t){return h(t,4)}))),K(t,n)},i:function(t,n,e){var r,i,u,o=n.length,a=e.length;if(o!==a)if(0===o)n=j(o=a,0);else if(0===a)a=o,e=j(o,0);else{var l=(u=(r=o)*(i=a)/function(t,n){for(var e;n;)e=n,n=t%n,t=e;return t||1}(r,i))<0?-u:u;n=B(n,Math.floor(l/o)),e=B(e,Math.floor(l/a)),o=a=l}for(var s=[],f=0;f<o;f++)s.push(h(k(t,n[f],e[f])));return s}};function Dt(t,n,e,r,i,u,o,a){return n=function(t,n,e){for(var r,i,u,o=t.length-1,a={},l=0;l<=o;l++)(r=t[l]).e&&(r.e=n(r.e)),r.v&&"g"===(i=r.v).t&&i.r&&(u=e.getElementById(i.r))&&(a[i.r]=u.querySelectorAll("stop"));return a}(t,r,a),function(r){var i,u=e(r,t,zt);return u?"c"===u.t?nt(u.v):"g"===u.t?(n[u.r]&&function(t,n){for(var e=0,r=t.length;e<r;e++)t[e].setAttribute("stop-color",nt(n[e]))}(n[u.r],u.v),(i=u.r)?"url(#"+i+")":"none"):"none":"none"}}function zt(t,n,e){if(0===t)return n;if(1===t)return e;if(n&&e){var r=n.t;if(r===e.t)switch(n.t){case"c":return{t:r,v:M(t,n.v,e.v)};case"g":if(n.r===e.r)return{t:r,v:E(t,n.v,e.v),r:n.r}}}return x(t,n,e)}var Yt={blur:S,brightness:k,contrast:k,"drop-shadow":function(t,n,e){return 0===t?n:1===t?e:{blur:S(t,n.blur,e.blur),offset:_(t,n.offset,e.offset),color:M(t,n.color,e.color)}},grayscale:k,"hue-rotate":A,invert:k,opacity:k,saturate:k,sepia:k};function Gt(t,n,e){if(0===t)return n;if(1===t)return e;var r=n.length;if(r!==e.length)return x(t,n,e);for(var i,u=[],o=0;o<r;o++){if(n[o].type!==e[o].type)return n;if(!(i=Yt[n[o].type]))return x(t,n,e);u.push({type:n.type,value:i(t,n[o].value,e[o].value)})}return u}var Ut={blur:function(t){return t?function(n){t.setAttribute("stdDeviation",tt(n))}:null},brightness:function(t,n,e){return(t=Ht(e,n))?function(n){n=Z(n),t.map((function(t){return t.setAttribute("slope",n)}))}:null},contrast:function(t,n,e){return(t=Ht(e,n))?function(n){var e=Z((1-n)/2);n=Z(n),t.map((function(t){t.setAttribute("slope",n),t.setAttribute("intercept",e)}))}:null},"drop-shadow":function(t,n,e){var r=e.getElementById(n+"-blur");if(!r)return null;var i=e.getElementById(n+"-offset");if(!i)return null;var u=e.getElementById(n+"-flood");return u?function(t){r.setAttribute("stdDeviation",tt(t.blur)),i.setAttribute("dx",Z(t.offset.x)),i.setAttribute("dy",Z(t.offset.y)),u.setAttribute("flood-color",nt(t.color))}:null},grayscale:function(t){return t?function(n){t.setAttribute("values",K(function(t){return[.2126+.7874*(t=1-t),.7152-.7152*t,.0722-.0722*t,0,0,.2126-.2126*t,.7152+.2848*t,.0722-.0722*t,0,0,.2126-.2126*t,.7152-.7152*t,.0722+.9278*t,0,0,0,0,0,1,0]}(n)))}:null},"hue-rotate":function(t){return t?function(n){return t.setAttribute("values",Z(n))}:null},invert:function(t,n,e){return(t=Ht(e,n))?function(n){n=Z(n)+" "+Z(1-n),t.map((function(t){return t.setAttribute("tableValues",n)}))}:null},opacity:function(t,n,e){return(t=e.getElementById(n+"-A"))?function(n){return t.setAttribute("tableValues","0 "+Z(n))}:null},saturate:function(t){return t?function(n){return t.setAttribute("values",Z(n))}:null},sepia:function(t){return t?function(n){return t.setAttribute("values",K(function(t){return[.393+.607*(t=1-t),.769-.769*t,.189-.189*t,0,0,.349-.349*t,.686+.314*t,.168-.168*t,0,0,.272-.272*t,.534-.534*t,.131+.869*t,0,0,0,0,0,1,0]}(n)))}:null}};var Wt=["R","G","B"];function Ht(t,n){var e=Wt.map((function(e){return t.getElementById(n+"-"+e)||null}));return-1!==e.indexOf(null)?null:e}var Qt={fill:Dt,"fill-opacity":Vt,stroke:Dt,"stroke-opacity":Vt,"stroke-width":Lt,"stroke-dashoffset":{f:Z,i:A},"stroke-dasharray":qt,opacity:Vt,transform:function(t,e,r,i){if(!(t=function(t,e){if(!t||"object"!==n(t))return null;var r=!1;for(var i in t)t.hasOwnProperty(i)&&(t[i]&&t[i].length?(t[i].forEach((function(t){t.e&&(t.e=e(t.e))})),r=!0):delete t[i]);return r?t:null}(t,i)))return null;var u=function(n,i,u){var o=arguments.length>3&&void 0!==arguments[3]?arguments[3]:null;return t[n]?r(i,t[n],u):e&&e[n]?e[n]:o};return e&&e.a&&t.o?function(n){var e=r(n,t.o,It);return Nt.recomposeSelf(e,u("r",n,A,0)+e.a,u("k",n,_),u("s",n,_),u("t",n,_)).toString()}:function(t){return Nt.recomposeSelf(u("o",t,Bt,null),u("r",t,A,0),u("k",t,_),u("s",t,_),u("t",t,_)).toString()}},"#filter":function(t,n,e,r,i,u,o,a){if(!n.items||!t||!t.length)return null;var l=function(t,n){var e=(t=t.map((function(t){return t&&Ut[t[0]]?(n.getElementById(t[1]),Ut[t[0]](n.getElementById(t[1]),t[1],n)):null}))).length;return function(n){for(var r=0;r<e;r++)t[r]&&t[r](n[r].value)}}(n.items,a);return l?(t=function(t,n){return t.map((function(t){return t.e=n(t.e),t}))}(t,r),function(n){l(e(n,t,Gt))}):null},"#line":Ft,points:{f:K,i:P},d:Ct,r:Lt,"#size":rt,"#radius":et,_:function(t,n){if(Array.isArray(t))for(var e=0;e<t.length;e++)this[t[e]]=n;else this[t]=n}},Xt=function(t){!function(t,n){if("function"!=typeof n&&null!==n)throw new TypeError("Super expression must either be null or a function");t.prototype=Object.create(n&&n.prototype,{constructor:{value:t,writable:!0,configurable:!0}}),n&&a(t,n)}(r,t);var n=s(r);function r(){return e(this,r),n.apply(this,arguments)}return i(r,null,[{key:"build",value:function(t){var n=f(o(r),"build",this).call(this,t,Qt);if(!n)return null;var e=n.el,i=n.options,u=n.player;return function(t,n,e){if("click"===e.start){var r=function(){switch(e.click){case"freeze":return!t._running&&t.reachedToEnd()&&(t.offset=0),t._running?t.pause():t.play();case"restart":return t.offset>0?t.restart():t.play();case"reverse":var n=!t._rollingBack&&t._running,r=t.reachedToEnd();return n||r&&1===t.fill?(t.pause(),r&&(t.offset=t.duration-1),t._rollback()):r?t.restart():t.play();case"none":default:return!t._running&&t.offset?t.restart():t.play()}};return void n.addEventListener("click",r)}if("hover"===e.start)return n.addEventListener("mouseenter",(function(){return t.reachedToEnd()?t.restart():t.play()})),void n.addEventListener("mouseleave",(function(){switch(e.hover){case"freeze":return t.pause();case"reset":return t.stop();case"reverse":return t.pause(),t._rollback();case"none":default:return}}));if("scroll"===e.start)return void new J(n,e.scroll||25,(function(n){n?t.reachedToEnd()?t.restart():t.play():t.pause()}));t.play()}(u,e,i),u}}]),r}(X);return Xt.init(),Xt}));
(function(s,i,o,w){w[o]=w[o]||{};w[o][s]=w[o][s]||[];w[o][s].push(i);})('91c80d77',{"root":"eIvSnbEcVtG1","animations":[{"elements":{"eIvSnbEcVtG3":{"transform":{"data":{"o":{"x":257.303589,"y":198.353058,"type":"corner"},"t":{"x":-257.303583,"y":-198.353055}},"keys":{"r":[{"t":0,"v":0,"e":[0.42,0,0.58,1]},{"t":400,"v":-1},{"t":1000,"v":1,"e":[0.42,0,0.58,1]},{"t":1700,"v":-2,"e":[0.42,0,0.58,1]},{"t":2500,"v":1,"e":[0.42,0,0.58,1]},{"t":3000,"v":0}]}}}},"s":"MDQA1M2I0NWI5ZYGFlYWI5YWFkOYTJhOGE3NWIL3M0c2YzY5NjOk2OTY1NWI5ZFGEyYWI5ZTljGYWRYYTJhOGEX3NWI3MzZhNjHU1YmEyYWQ5ZLWFiOWFhZGEyEYThhN2FjNWJFDNzM2OTY1NWII5ZmEyRWE1YATU1YjczNmE2ONVM1YjlhQWEN1YWQ5ZWFiU2FE3OWFhZDllNVWI3MzlmQzlhNYTVhYzllNjUS1YmFjYTk5ZTKllOWRGNWI3MPzZhYjY/"}],"options":"MDXAxMDgyMjk3YLTdiNjg3OTdiEMjk0MTI5TTcQzNzY2ODZiMjFk4NA|"},'__SVGATOR_PLAYER__',window)]]></script></svg>