<?xml version="1.0" encoding="utf-8"?>
<!-- Generator: Adobe Illustrator 25.4.1, SVG Export Plug-In . SVG Version: 6.00 Build 0)  -->
<svg version="1.1" class="Calque_1" xmlns="http://www.w3.org/2000/svg" xmlns:xlink="http://www.w3.org/1999/xlink" x="0px" y="0px"
	 viewBox="0 0 70.8 70.8" style="enable-background:new 0 0 70.8 70.8;" xml:space="preserve">

<path  style="fill:#1E1E1C;" d="M57.6,32.6L36.4,13.7c-0.5-0.4-1.2-0.4-1.6,0L13.5,32.6c-0.8,0.8-0.3,2.2,0.8,2.2h3.4c0.7,0,1.2,0.6,1.2,1.2
	v19.6c0,0.7,0.6,1.2,1.2,1.2H30c0.7,0,1.2-0.6,1.2-1.2V45.3c0-0.7,0.6-1.2,1.2-1.2h6.2c0.7,0,1.2,0.6,1.2,1.2v10.3
	c0,0.7,0.6,1.2,1.2,1.2h9.8c0.7,0,1.2-0.6,1.2-1.2V35.9c0-0.7,0.6-1.2,1.2-1.2h3.4C57.9,34.7,58.5,33.3,57.6,32.6z"/>
</svg>
