<?xml version="1.0" encoding="utf-8"?>
<!-- Generator: Adobe Illustrator 25.4.1, SVG Export Plug-In . SVG Version: 6.00 Build 0)  -->
<svg version="1.1" class="Calque_1" xmlns="http://www.w3.org/2000/svg" xmlns:xlink="http://www.w3.org/1999/xlink" x="0px" y="0px"
	 viewBox="0 0 70.8 70.8" style="enable-background:new 0 0 70.8 70.8;" xml:space="preserve">

<path style="fill:#1E1E1C;" d="M55.5,55.7V29.2h-20V12.5h-20v43.2h-1.3v1.8h42.6v-1.8H55.5z M18.3,15.5h5.8v5.8h-5.8V15.5z M18.3,23.9h5.8v5.8
	h-5.8V23.9z M18.3,32.4h5.8v5.8h-5.8V32.4z M18.3,40.9h5.8v5.8h-5.8V40.9z M30.3,55.7h-9.4v-5.8h9.4V55.7z M32.8,46.7H27v-5.8h5.8
	V46.7z M32.8,38.2H27v-5.8h5.8V38.2z M32.8,29.8H27v-5.8h5.8V29.8z M32.8,21.3H27v-5.8h5.8V21.3z M38.3,32.4h5.8v5.8h-5.8V32.4z
	 M38.3,40.9h5.8v5.8h-5.8V40.9z M50.2,55.7h-9.4v-5.8h9.4V55.7z M52.7,46.7h-5.8v-5.8h5.8V46.7z M52.7,38.2h-5.8v-5.8h5.8V38.2z"/>
</svg>
