<?xml version="1.0" encoding="utf-8"?>
<!-- Generator: Adobe Illustrator 25.2.3, SVG Export Plug-In . SVG Version: 6.00 Build 0)  -->
<svg version="1.1" class="Calque_1" xmlns="http://www.w3.org/2000/svg" xmlns:xlink="http://www.w3.org/1999/xlink" x="0px" y="0px"
	 viewBox="0 0 50 50" style="enable-background:new 0 0 50 50;" xml:space="preserve">

<path d="M44.7,13c0-0.9,0-1.6,0-1.6c0-5.3-4.3-9.6-9.6-9.6s-9.6,4.3-9.6,9.6c0,0,0,0.7,0,1.6H19v35.3h30.9V13H44.7z
	 M28.4,11.3c0-3.6,3-6.6,6.6-6.6s6.6,3,6.6,6.6c0,0.2,0,0.9,0,1.6H28.5C28.4,12.2,28.4,11.5,28.4,11.3z M46.9,16v29.3H22V16H46.9z"
	/>
</svg>
