<?xml version="1.0" encoding="utf-8"?>
<!-- Generator: Adobe Illustrator 25.4.1, SVG Export Plug-In . SVG Version: 6.00 Build 0)  -->
<svg version="1.1" id="Calque_1" xmlns="http://www.w3.org/2000/svg" xmlns:xlink="http://www.w3.org/1999/xlink" x="0px" y="0px"
	 viewBox="0 0 50 50" style="enable-background:new 0 0 50 50;" xml:space="preserve">
<style type="text/css">
	.st0{fill:#7F7F80;}
</style>
<path class="st0" d="M47.9,45.8L35.4,33.4c2.7-3.2,4.3-7.3,4.3-11.8c0-10.2-8.3-18.5-18.5-18.5C11,3.1,2.7,11.4,2.7,21.6
	c0,10.2,8.3,18.5,18.5,18.5c4.6,0,8.9-1.7,12.1-4.6l12.5,12.5c0.3,0.3,0.7,0.4,1.1,0.4s0.8-0.1,1.1-0.4
	C48.5,47.4,48.5,46.4,47.9,45.8z M5.7,21.6c0-8.5,6.9-15.5,15.5-15.5c8.5,0,15.5,6.9,15.5,15.5c0,8.5-6.9,15.5-15.5,15.5
	C12.7,37.1,5.7,30.1,5.7,21.6z"/>
</svg>
